<?xml version="1.0" encoding="UTF-8" standalone="no"?>
<!-- Created with Inkscape (http://www.inkscape.org/) -->

<svg
   xmlns:dc="http://purl.org/dc/elements/1.1/"
   xmlns:cc="http://creativecommons.org/ns#"
   xmlns:rdf="http://www.w3.org/1999/02/22-rdf-syntax-ns#"
   xmlns:svg="http://www.w3.org/2000/svg"
   xmlns="http://www.w3.org/2000/svg"
   xmlns:sodipodi="http://sodipodi.sourceforge.net/DTD/sodipodi-0.dtd"
   xmlns:inkscape="http://www.inkscape.org/namespaces/inkscape"
   id="svg2"
   version="1.1"
   inkscape:version="0.48.5 r10040"
   width="682.65002"
   height="901.64496"
   xml:space="preserve"
   sodipodi:docname="soz_iii_b_1_2__02_13.pdf"><metadata
     id="metadata8"><rdf:RDF><cc:Work
         rdf:about=""><dc:format>image/svg+xml</dc:format><dc:type
           rdf:resource="http://purl.org/dc/dcmitype/StillImage" /><dc:title></dc:title></cc:Work></rdf:RDF></metadata><defs
     id="defs6"><clipPath
       clipPathUnits="userSpaceOnUse"
       id="clipPath24"><path
         d="m 33.121,785.16 15,0 0,12.72 -15,0 0,-12.72 z"
         clip-rule="evenodd"
         id="path26"
         inkscape:connector-curvature="0" /></clipPath><clipPath
       clipPathUnits="userSpaceOnUse"
       id="clipPath32"><path
         d="m 33.12,785.16 15,0 0,12.72 -15,0 0,-12.72 z"
         clip-rule="evenodd"
         id="path34"
         inkscape:connector-curvature="0" /></clipPath><clipPath
       clipPathUnits="userSpaceOnUse"
       id="clipPath44"><path
         d="m 33.12,785.16 15,0 0,12.72 -15,0 0,-12.72 z"
         clip-rule="evenodd"
         id="path46"
         inkscape:connector-curvature="0" /></clipPath><clipPath
       clipPathUnits="userSpaceOnUse"
       id="clipPath52"><path
         d="m 49.681,785.16 526.56,0 0,12.72 -526.56,0 0,-12.72 z"
         clip-rule="evenodd"
         id="path54"
         inkscape:connector-curvature="0" /></clipPath><clipPath
       clipPathUnits="userSpaceOnUse"
       id="clipPath60"><path
         d="m 49.68,785.16 526.56,0 0,12.72 -526.56,0 0,-12.72 z"
         clip-rule="evenodd"
         id="path62"
         inkscape:connector-curvature="0" /></clipPath><clipPath
       clipPathUnits="userSpaceOnUse"
       id="clipPath72"><path
         d="m 49.68,785.16 526.56,0 0,12.72 -526.56,0 0,-12.72 z"
         clip-rule="evenodd"
         id="path74"
         inkscape:connector-curvature="0" /></clipPath><clipPath
       clipPathUnits="userSpaceOnUse"
       id="clipPath102"><path
         d="m 49.681,760.92 351.08,0 0,22.8 -351.08,0 0,-22.8 z"
         clip-rule="evenodd"
         id="path104"
         inkscape:connector-curvature="0" /></clipPath><clipPath
       clipPathUnits="userSpaceOnUse"
       id="clipPath110"><path
         d="m 49.68,760.92 351.07,0 0,22.8 -351.07,0 0,-22.8 z"
         clip-rule="evenodd"
         id="path112"
         inkscape:connector-curvature="0" /></clipPath><clipPath
       clipPathUnits="userSpaceOnUse"
       id="clipPath120"><path
         d="m 49.68,760.92 351.07,0 0,22.8 -351.07,0 0,-22.8 z"
         clip-rule="evenodd"
         id="path122"
         inkscape:connector-curvature="0" /></clipPath><clipPath
       clipPathUnits="userSpaceOnUse"
       id="clipPath128"><path
         d="m 49.68,760.92 351.07,0 0,22.8 -351.07,0 0,-22.8 z"
         clip-rule="evenodd"
         id="path130"
         inkscape:connector-curvature="0" /></clipPath><clipPath
       clipPathUnits="userSpaceOnUse"
       id="clipPath140"><path
         d="m 49.68,760.92 351.07,0 0,22.8 -351.07,0 0,-22.8 z"
         clip-rule="evenodd"
         id="path142"
         inkscape:connector-curvature="0" /></clipPath><clipPath
       clipPathUnits="userSpaceOnUse"
       id="clipPath152"><path
         d="m 49.68,760.92 351.07,0 0,22.8 -351.07,0 0,-22.8 z"
         clip-rule="evenodd"
         id="path154"
         inkscape:connector-curvature="0" /></clipPath><clipPath
       clipPathUnits="userSpaceOnUse"
       id="clipPath160"><path
         d="m 401.24,760.92 175.01,0 0,22.8 -175.01,0 0,-22.8 z"
         clip-rule="evenodd"
         id="path162"
         inkscape:connector-curvature="0" /></clipPath><clipPath
       clipPathUnits="userSpaceOnUse"
       id="clipPath168"><path
         d="m 401.23,760.92 175.01,0 0,22.8 -175.01,0 0,-22.8 z"
         clip-rule="evenodd"
         id="path170"
         inkscape:connector-curvature="0" /></clipPath><clipPath
       clipPathUnits="userSpaceOnUse"
       id="clipPath180"><path
         d="m 401.23,760.92 175.01,0 0,22.8 -175.01,0 0,-22.8 z"
         clip-rule="evenodd"
         id="path182"
         inkscape:connector-curvature="0" /></clipPath><clipPath
       clipPathUnits="userSpaceOnUse"
       id="clipPath188"><path
         d="m 401.23,760.92 175.01,0 0,22.8 -175.01,0 0,-22.8 z"
         clip-rule="evenodd"
         id="path190"
         inkscape:connector-curvature="0" /></clipPath><clipPath
       clipPathUnits="userSpaceOnUse"
       id="clipPath196"><path
         d="m 401.23,760.92 175.01,0 0,22.8 -175.01,0 0,-22.8 z"
         clip-rule="evenodd"
         id="path198"
         inkscape:connector-curvature="0" /></clipPath><clipPath
       clipPathUnits="userSpaceOnUse"
       id="clipPath204"><path
         d="m 401.23,760.92 175.01,0 0,22.8 -175.01,0 0,-22.8 z"
         clip-rule="evenodd"
         id="path206"
         inkscape:connector-curvature="0" /></clipPath><clipPath
       clipPathUnits="userSpaceOnUse"
       id="clipPath212"><path
         d="m 401.23,760.92 175.01,0 0,22.8 -175.01,0 0,-22.8 z"
         clip-rule="evenodd"
         id="path214"
         inkscape:connector-curvature="0" /></clipPath><clipPath
       clipPathUnits="userSpaceOnUse"
       id="clipPath220"><path
         d="m 401.23,760.92 175.01,0 0,22.8 -175.01,0 0,-22.8 z"
         clip-rule="evenodd"
         id="path222"
         inkscape:connector-curvature="0" /></clipPath><clipPath
       clipPathUnits="userSpaceOnUse"
       id="clipPath252"><path
         d="m 49.681,741.09 351.08,0 0,19.35 -351.08,0 0,-19.35 z"
         clip-rule="evenodd"
         id="path254"
         inkscape:connector-curvature="0" /></clipPath><clipPath
       clipPathUnits="userSpaceOnUse"
       id="clipPath260"><path
         d="m 49.68,741.1 351.07,0 0,19.344 -351.07,0 0,-19.344 z"
         clip-rule="evenodd"
         id="path262"
         inkscape:connector-curvature="0" /></clipPath><clipPath
       clipPathUnits="userSpaceOnUse"
       id="clipPath270"><path
         d="m 49.68,741.1 351.07,0 0,19.344 -351.07,0 0,-19.344 z"
         clip-rule="evenodd"
         id="path272"
         inkscape:connector-curvature="0" /></clipPath><clipPath
       clipPathUnits="userSpaceOnUse"
       id="clipPath278"><path
         d="m 49.68,741.1 351.07,0 0,19.344 -351.07,0 0,-19.344 z"
         clip-rule="evenodd"
         id="path280"
         inkscape:connector-curvature="0" /></clipPath><clipPath
       clipPathUnits="userSpaceOnUse"
       id="clipPath290"><path
         d="m 49.68,741.1 351.07,0 0,19.344 -351.07,0 0,-19.344 z"
         clip-rule="evenodd"
         id="path292"
         inkscape:connector-curvature="0" /></clipPath><clipPath
       clipPathUnits="userSpaceOnUse"
       id="clipPath298"><path
         d="m 401.24,741.09 175.01,0 0,19.35 -175.01,0 0,-19.35 z"
         clip-rule="evenodd"
         id="path300"
         inkscape:connector-curvature="0" /></clipPath><clipPath
       clipPathUnits="userSpaceOnUse"
       id="clipPath306"><path
         d="m 401.23,741.1 175.01,0 0,19.344 -175.01,0 0,-19.344 z"
         clip-rule="evenodd"
         id="path308"
         inkscape:connector-curvature="0" /></clipPath><clipPath
       clipPathUnits="userSpaceOnUse"
       id="clipPath318"><path
         d="m 401.23,741.1 175.01,0 0,19.344 -175.01,0 0,-19.344 z"
         clip-rule="evenodd"
         id="path320"
         inkscape:connector-curvature="0" /></clipPath><clipPath
       clipPathUnits="userSpaceOnUse"
       id="clipPath326"><path
         d="m 401.23,741.1 175.01,0 0,19.344 -175.01,0 0,-19.344 z"
         clip-rule="evenodd"
         id="path328"
         inkscape:connector-curvature="0" /></clipPath><clipPath
       clipPathUnits="userSpaceOnUse"
       id="clipPath334"><path
         d="m 401.23,741.1 175.01,0 0,19.344 -175.01,0 0,-19.344 z"
         clip-rule="evenodd"
         id="path336"
         inkscape:connector-curvature="0" /></clipPath><clipPath
       clipPathUnits="userSpaceOnUse"
       id="clipPath342"><path
         d="m 401.23,741.1 175.01,0 0,19.344 -175.01,0 0,-19.344 z"
         clip-rule="evenodd"
         id="path344"
         inkscape:connector-curvature="0" /></clipPath><clipPath
       clipPathUnits="userSpaceOnUse"
       id="clipPath350"><path
         d="m 401.23,741.1 175.01,0 0,19.344 -175.01,0 0,-19.344 z"
         clip-rule="evenodd"
         id="path352"
         inkscape:connector-curvature="0" /></clipPath><clipPath
       clipPathUnits="userSpaceOnUse"
       id="clipPath358"><path
         d="m 401.23,741.1 175.01,0 0,19.344 -175.01,0 0,-19.344 z"
         clip-rule="evenodd"
         id="path360"
         inkscape:connector-curvature="0" /></clipPath><clipPath
       clipPathUnits="userSpaceOnUse"
       id="clipPath382"><path
         d="m 49.681,721.29 351.08,0 0,19.32 -351.08,0 0,-19.32 z"
         clip-rule="evenodd"
         id="path384"
         inkscape:connector-curvature="0" /></clipPath><clipPath
       clipPathUnits="userSpaceOnUse"
       id="clipPath390"><path
         d="m 49.68,721.3 351.07,0 0,19.32 -351.07,0 0,-19.32 z"
         clip-rule="evenodd"
         id="path392"
         inkscape:connector-curvature="0" /></clipPath><clipPath
       clipPathUnits="userSpaceOnUse"
       id="clipPath400"><path
         d="m 49.68,721.3 351.07,0 0,19.32 -351.07,0 0,-19.32 z"
         clip-rule="evenodd"
         id="path402"
         inkscape:connector-curvature="0" /></clipPath><clipPath
       clipPathUnits="userSpaceOnUse"
       id="clipPath408"><path
         d="m 49.68,721.3 351.07,0 0,19.32 -351.07,0 0,-19.32 z"
         clip-rule="evenodd"
         id="path410"
         inkscape:connector-curvature="0" /></clipPath><clipPath
       clipPathUnits="userSpaceOnUse"
       id="clipPath420"><path
         d="m 49.68,721.3 351.07,0 0,19.32 -351.07,0 0,-19.32 z"
         clip-rule="evenodd"
         id="path422"
         inkscape:connector-curvature="0" /></clipPath><clipPath
       clipPathUnits="userSpaceOnUse"
       id="clipPath428"><path
         d="m 401.24,721.29 175.01,0 0,19.32 -175.01,0 0,-19.32 z"
         clip-rule="evenodd"
         id="path430"
         inkscape:connector-curvature="0" /></clipPath><clipPath
       clipPathUnits="userSpaceOnUse"
       id="clipPath436"><path
         d="m 401.23,721.3 175.01,0 0,19.32 -175.01,0 0,-19.32 z"
         clip-rule="evenodd"
         id="path438"
         inkscape:connector-curvature="0" /></clipPath><clipPath
       clipPathUnits="userSpaceOnUse"
       id="clipPath444"><path
         d="m 401.23,721.3 175.01,0 0,19.32 -175.01,0 0,-19.32 z"
         clip-rule="evenodd"
         id="path446"
         inkscape:connector-curvature="0" /></clipPath><clipPath
       clipPathUnits="userSpaceOnUse"
       id="clipPath452"><path
         d="m 401.23,721.3 175.01,0 0,19.32 -175.01,0 0,-19.32 z"
         clip-rule="evenodd"
         id="path454"
         inkscape:connector-curvature="0" /></clipPath><clipPath
       clipPathUnits="userSpaceOnUse"
       id="clipPath460"><path
         d="m 401.23,721.3 175.01,0 0,19.32 -175.01,0 0,-19.32 z"
         clip-rule="evenodd"
         id="path462"
         inkscape:connector-curvature="0" /></clipPath><clipPath
       clipPathUnits="userSpaceOnUse"
       id="clipPath468"><path
         d="m 401.23,721.3 175.01,0 0,19.32 -175.01,0 0,-19.32 z"
         clip-rule="evenodd"
         id="path470"
         inkscape:connector-curvature="0" /></clipPath><clipPath
       clipPathUnits="userSpaceOnUse"
       id="clipPath476"><path
         d="m 401.23,721.3 175.01,0 0,19.32 -175.01,0 0,-19.32 z"
         clip-rule="evenodd"
         id="path478"
         inkscape:connector-curvature="0" /></clipPath><clipPath
       clipPathUnits="userSpaceOnUse"
       id="clipPath500"><path
         d="m 49.681,549.43 526.56,0 0,171.26 -526.56,0 0,-171.26 z"
         clip-rule="evenodd"
         id="path502"
         inkscape:connector-curvature="0" /></clipPath><clipPath
       clipPathUnits="userSpaceOnUse"
       id="clipPath508"><path
         d="m 49.68,549.43 526.56,0 0,171.26 -526.56,0 0,-171.26 z"
         clip-rule="evenodd"
         id="path510"
         inkscape:connector-curvature="0" /></clipPath><clipPath
       clipPathUnits="userSpaceOnUse"
       id="clipPath520"><path
         d="m 49.68,549.43 526.56,0 0,171.26 -526.56,0 0,-171.26 z"
         clip-rule="evenodd"
         id="path522"
         inkscape:connector-curvature="0" /></clipPath><clipPath
       clipPathUnits="userSpaceOnUse"
       id="clipPath532"><path
         d="m 49.68,549.43 526.56,0 0,171.26 -526.56,0 0,-171.26 z"
         clip-rule="evenodd"
         id="path534"
         inkscape:connector-curvature="0" /></clipPath><clipPath
       clipPathUnits="userSpaceOnUse"
       id="clipPath540"><path
         d="m 49.68,549.43 526.56,0 0,171.26 -526.56,0 0,-171.26 z"
         clip-rule="evenodd"
         id="path542"
         inkscape:connector-curvature="0" /></clipPath><clipPath
       clipPathUnits="userSpaceOnUse"
       id="clipPath548"><path
         d="m 49.68,549.43 526.56,0 0,171.26 -526.56,0 0,-171.26 z"
         clip-rule="evenodd"
         id="path550"
         inkscape:connector-curvature="0" /></clipPath><clipPath
       clipPathUnits="userSpaceOnUse"
       id="clipPath556"><path
         d="m 49.68,549.43 526.56,0 0,171.26 -526.56,0 0,-171.26 z"
         clip-rule="evenodd"
         id="path558"
         inkscape:connector-curvature="0" /></clipPath><clipPath
       clipPathUnits="userSpaceOnUse"
       id="clipPath564"><path
         d="m 49.68,549.43 526.56,0 0,171.26 -526.56,0 0,-171.26 z"
         clip-rule="evenodd"
         id="path566"
         inkscape:connector-curvature="0" /></clipPath><clipPath
       clipPathUnits="userSpaceOnUse"
       id="clipPath572"><path
         d="m 49.68,549.43 526.56,0 0,171.26 -526.56,0 0,-171.26 z"
         clip-rule="evenodd"
         id="path574"
         inkscape:connector-curvature="0" /></clipPath><clipPath
       clipPathUnits="userSpaceOnUse"
       id="clipPath580"><path
         d="m 49.68,549.43 526.56,0 0,171.26 -526.56,0 0,-171.26 z"
         clip-rule="evenodd"
         id="path582"
         inkscape:connector-curvature="0" /></clipPath><clipPath
       clipPathUnits="userSpaceOnUse"
       id="clipPath588"><path
         d="m 49.68,549.43 526.56,0 0,171.26 -526.56,0 0,-171.26 z"
         clip-rule="evenodd"
         id="path590"
         inkscape:connector-curvature="0" /></clipPath><clipPath
       clipPathUnits="userSpaceOnUse"
       id="clipPath596"><path
         d="m 49.68,549.43 526.56,0 0,171.26 -526.56,0 0,-171.26 z"
         clip-rule="evenodd"
         id="path598"
         inkscape:connector-curvature="0" /></clipPath><clipPath
       clipPathUnits="userSpaceOnUse"
       id="clipPath604"><path
         d="m 49.68,549.43 526.56,0 0,171.26 -526.56,0 0,-171.26 z"
         clip-rule="evenodd"
         id="path606"
         inkscape:connector-curvature="0" /></clipPath><clipPath
       clipPathUnits="userSpaceOnUse"
       id="clipPath612"><path
         d="m 49.68,549.43 526.56,0 0,171.26 -526.56,0 0,-171.26 z"
         clip-rule="evenodd"
         id="path614"
         inkscape:connector-curvature="0" /></clipPath><clipPath
       clipPathUnits="userSpaceOnUse"
       id="clipPath620"><path
         d="m 49.68,549.43 526.56,0 0,171.26 -526.56,0 0,-171.26 z"
         clip-rule="evenodd"
         id="path622"
         inkscape:connector-curvature="0" /></clipPath><clipPath
       clipPathUnits="userSpaceOnUse"
       id="clipPath628"><path
         d="m 49.68,549.43 526.56,0 0,171.26 -526.56,0 0,-171.26 z"
         clip-rule="evenodd"
         id="path630"
         inkscape:connector-curvature="0" /></clipPath><clipPath
       clipPathUnits="userSpaceOnUse"
       id="clipPath636"><path
         d="m 49.68,549.43 526.56,0 0,171.26 -526.56,0 0,-171.26 z"
         clip-rule="evenodd"
         id="path638"
         inkscape:connector-curvature="0" /></clipPath><clipPath
       clipPathUnits="userSpaceOnUse"
       id="clipPath644"><path
         d="m 49.68,549.43 526.56,0 0,171.26 -526.56,0 0,-171.26 z"
         clip-rule="evenodd"
         id="path646"
         inkscape:connector-curvature="0" /></clipPath><clipPath
       clipPathUnits="userSpaceOnUse"
       id="clipPath652"><path
         d="m 49.68,549.43 526.56,0 0,171.26 -526.56,0 0,-171.26 z"
         clip-rule="evenodd"
         id="path654"
         inkscape:connector-curvature="0" /></clipPath><clipPath
       clipPathUnits="userSpaceOnUse"
       id="clipPath660"><path
         d="m 49.68,549.43 526.56,0 0,171.26 -526.56,0 0,-171.26 z"
         clip-rule="evenodd"
         id="path662"
         inkscape:connector-curvature="0" /></clipPath><clipPath
       clipPathUnits="userSpaceOnUse"
       id="clipPath668"><path
         d="m 49.68,549.43 526.56,0 0,171.26 -526.56,0 0,-171.26 z"
         clip-rule="evenodd"
         id="path670"
         inkscape:connector-curvature="0" /></clipPath><clipPath
       clipPathUnits="userSpaceOnUse"
       id="clipPath676"><path
         d="m 49.68,549.43 526.56,0 0,171.26 -526.56,0 0,-171.26 z"
         clip-rule="evenodd"
         id="path678"
         inkscape:connector-curvature="0" /></clipPath><clipPath
       clipPathUnits="userSpaceOnUse"
       id="clipPath684"><path
         d="m 49.68,549.43 526.56,0 0,171.26 -526.56,0 0,-171.26 z"
         clip-rule="evenodd"
         id="path686"
         inkscape:connector-curvature="0" /></clipPath><clipPath
       clipPathUnits="userSpaceOnUse"
       id="clipPath706"><path
         d="m 49.681,536.23 526.56,0 0,12.6 -526.56,0 0,-12.6 z"
         clip-rule="evenodd"
         id="path708"
         inkscape:connector-curvature="0" /></clipPath><clipPath
       clipPathUnits="userSpaceOnUse"
       id="clipPath714"><path
         d="m 49.681,536.23 526.56,0 0,12.6 -526.56,0 0,-12.6 z"
         clip-rule="evenodd"
         id="path716"
         inkscape:connector-curvature="0" /></clipPath><clipPath
       clipPathUnits="userSpaceOnUse"
       id="clipPath722"><path
         d="m 49.68,536.23 526.56,0 0,12.6 -526.56,0 0,-12.6 z"
         clip-rule="evenodd"
         id="path724"
         inkscape:connector-curvature="0" /></clipPath><clipPath
       clipPathUnits="userSpaceOnUse"
       id="clipPath736"><path
         d="m 49.681,536.23 526.56,0 0,12.6 -526.56,0 0,-12.6 z"
         clip-rule="evenodd"
         id="path738"
         inkscape:connector-curvature="0" /></clipPath><clipPath
       clipPathUnits="userSpaceOnUse"
       id="clipPath744"><path
         d="m 49.68,536.23 526.56,0 0,12.6 -526.56,0 0,-12.6 z"
         clip-rule="evenodd"
         id="path746"
         inkscape:connector-curvature="0" /></clipPath></defs><sodipodi:namedview
     pagecolor="#ffffff"
     bordercolor="#666666"
     borderopacity="1"
     objecttolerance="10"
     gridtolerance="10"
     guidetolerance="10"
     inkscape:pageopacity="0"
     inkscape:pageshadow="2"
     inkscape:window-width="1280"
     inkscape:window-height="780"
     id="namedview4"
     showgrid="false"
     fit-margin-top="0"
     fit-margin-left="0"
     fit-margin-right="0"
     fit-margin-bottom="0"
     inkscape:zoom="0.15856822"
     inkscape:cx="1822.2322"
     inkscape:cy="1404.2843"
     inkscape:window-x="0"
     inkscape:window-y="20"
     inkscape:window-maximized="1"
     inkscape:current-layer="g10" /><g
     id="g10"
     inkscape:groupmode="layer"
     inkscape:label="soz_iii_b_1_2__02_13"
     transform="matrix(1.25,0,0,-1.25,-39.6,999.15)"><g
       id="g20"><g
         id="g22"
         clip-path="url(#clipPath24)"><g
           id="g28"><g
             id="g30"
             clip-path="url(#clipPath32)"><text
               transform="matrix(1,0,0,-1,36.96,788.16)"
               id="text36"><tspan
                 style="font-size:9.96000004px;font-variant:normal;font-weight:bold;writing-mode:lr-tb;fill:#000000;fill-opacity:1;fill-rule:nonzero;stroke:none;font-family:Arial;-inkscape-font-specification:Arial Bold"
                 x="0"
                 y="0"
                 id="tspan38">D</tspan></text>
</g></g><g
           id="g40"><g
             id="g42"
             clip-path="url(#clipPath44)" /></g></g></g><path
       d="m 31.68,797.76 1.44,0 0,1.56 -1.44,0 0,-1.56 z"
       style="fill:#000000;fill-opacity:1;fill-rule:evenodd;stroke:none"
       id="path76"
       inkscape:connector-curvature="0" /><path
       d="m 31.68,797.88 1.44,0 0,1.44 -1.44,0 0,-1.44 z"
       style="fill:#000000;fill-opacity:1;fill-rule:evenodd;stroke:none"
       id="path78"
       inkscape:connector-curvature="0" /><path
       d="m 33.12,797.88 15.12,0 0,1.44 -15.12,0 0,-1.44 z"
       style="fill:#000000;fill-opacity:1;fill-rule:evenodd;stroke:none"
       id="path80"
       inkscape:connector-curvature="0" /><path
       d="m 48.24,797.76 1.44,0 0,1.56 -1.44,0 0,-1.56 z"
       style="fill:#000000;fill-opacity:1;fill-rule:evenodd;stroke:none"
       id="path82"
       inkscape:connector-curvature="0" /><path
       d="m 48.24,797.88 1.44,0 0,1.44 -1.44,0 0,-1.44 z"
       style="fill:#000000;fill-opacity:1;fill-rule:evenodd;stroke:none"
       id="path84"
       inkscape:connector-curvature="0" /><path
       d="m 49.68,798.84 526.68,0 0,0.48 -526.68,0 0,-0.48 z"
       style="fill:#000000;fill-opacity:1;fill-rule:evenodd;stroke:none"
       id="path86"
       inkscape:connector-curvature="0" /><path
       d="m 576.36,797.76 1.44,0 0,1.08 -1.44,0 0,-1.08 z"
       style="fill:#000000;fill-opacity:1;fill-rule:evenodd;stroke:none"
       id="path88"
       inkscape:connector-curvature="0" /><path
       d="m 576.36,798.84 1.44,0 0,0.48 -1.44,0 0,-0.48 z"
       style="fill:#000000;fill-opacity:1;fill-rule:evenodd;stroke:none"
       id="path90"
       inkscape:connector-curvature="0" /><path
       d="m 31.68,785.16 1.44,0 0,12.6 -1.44,0 0,-12.6 z"
       style="fill:#000000;fill-opacity:1;fill-rule:evenodd;stroke:none"
       id="path92"
       inkscape:connector-curvature="0" /><path
       d="m 48.24,785.16 1.44,0 0,12.6 -1.44,0 0,-12.6 z"
       style="fill:#000000;fill-opacity:1;fill-rule:evenodd;stroke:none"
       id="path94"
       inkscape:connector-curvature="0" /><path
       d="m 576.36,785.16 1.44,0 0,12.6 -1.44,0 0,-12.6 z"
       style="fill:#000000;fill-opacity:1;fill-rule:evenodd;stroke:none"
       id="path96"
       inkscape:connector-curvature="0" /><g
       id="g106"><g
         id="g108"
         clip-path="url(#clipPath110)"><path
           d="m 53.52,767.88 9.24,0 0,9.24 -9.24,0 0,-9.24 z"
           style="fill:none;stroke:#000000;stroke-width:0.72000003;stroke-linecap:butt;stroke-linejoin:round;stroke-miterlimit:10;stroke-opacity:1;stroke-dasharray:none"
           id="path114"
           inkscape:connector-curvature="0" /></g></g><g
       id="g116"><g
         id="g118"
         clip-path="url(#clipPath120)" /></g><g
       id="g148"><g
         id="g150"
         clip-path="url(#clipPath152)" /></g><path
       d="m 31.68,783.72 1.44,0 0,1.44 -1.44,0 0,-1.44 z"
       style="fill:#000000;fill-opacity:1;fill-rule:evenodd;stroke:none"
       id="path224"
       inkscape:connector-curvature="0" /><path
       d="m 31.68,783.72 1.44,0 0,1.44 -1.44,0 0,-1.44 z"
       style="fill:#000000;fill-opacity:1;fill-rule:evenodd;stroke:none"
       id="path226"
       inkscape:connector-curvature="0" /><path
       d="m 33.12,783.72 15.12,0 0,1.44 -15.12,0 0,-1.44 z"
       style="fill:#000000;fill-opacity:1;fill-rule:evenodd;stroke:none"
       id="path228"
       inkscape:connector-curvature="0" /><path
       d="m 48.24,783.6 1.44,0 0,1.56 -1.44,0 0,-1.56 z"
       style="fill:#000000;fill-opacity:1;fill-rule:evenodd;stroke:none"
       id="path230"
       inkscape:connector-curvature="0" /><path
       d="m 49.68,784.68 351.07,0 0,0.48 -351.07,0 0,-0.48 z"
       style="fill:#000000;fill-opacity:1;fill-rule:evenodd;stroke:none"
       id="path232"
       inkscape:connector-curvature="0" /><path
       d="m 400.75,783.6 0.48,0 0,1.08 -0.48,0 0,-1.08 z"
       style="fill:#000000;fill-opacity:1;fill-rule:evenodd;stroke:none"
       id="path234"
       inkscape:connector-curvature="0" /><path
       d="m 400.75,784.68 0.48,0 0,0.48 -0.48,0 0,-0.48 z"
       style="fill:#000000;fill-opacity:1;fill-rule:evenodd;stroke:none"
       id="path236"
       inkscape:connector-curvature="0" /><path
       d="m 401.23,784.68 175.13,0 0,0.48 -175.13,0 0,-0.48 z"
       style="fill:#000000;fill-opacity:1;fill-rule:evenodd;stroke:none"
       id="path238"
       inkscape:connector-curvature="0" /><path
       d="m 576.36,783.6 1.44,0 0,1.56 -1.44,0 0,-1.56 z"
       style="fill:#000000;fill-opacity:1;fill-rule:evenodd;stroke:none"
       id="path240"
       inkscape:connector-curvature="0" /><path
       d="m 48.24,760.92 1.44,0 0,22.68 -1.44,0 0,-22.68 z"
       style="fill:#000000;fill-opacity:1;fill-rule:evenodd;stroke:none"
       id="path242"
       inkscape:connector-curvature="0" /><path
       d="m 400.75,760.92 0.48,0 0,22.68 -0.48,0 0,-22.68 z"
       style="fill:#000000;fill-opacity:1;fill-rule:evenodd;stroke:none"
       id="path244"
       inkscape:connector-curvature="0" /><path
       d="m 576.36,760.92 1.44,0 0,22.68 -1.44,0 0,-22.68 z"
       style="fill:#000000;fill-opacity:1;fill-rule:evenodd;stroke:none"
       id="path246"
       inkscape:connector-curvature="0" /><g
       id="g256"><g
         id="g258"
         clip-path="url(#clipPath260)"><path
           d="m 53.52,746.38 9.24,0 0,9.264 -9.24,0 0,-9.264 z"
           style="fill:none;stroke:#000000;stroke-width:0.72000003;stroke-linecap:butt;stroke-linejoin:round;stroke-miterlimit:10;stroke-opacity:1;stroke-dasharray:none"
           id="path264"
           inkscape:connector-curvature="0" /></g></g><g
       id="g266"><g
         id="g268"
         clip-path="url(#clipPath270)" /></g><g
       id="g286"><g
         id="g288"
         clip-path="url(#clipPath290)" /></g><path
       d="m 48.24,760.44 1.44,0 0,0.48 -1.44,0 0,-0.48 z"
       style="fill:#000000;fill-opacity:1;fill-rule:evenodd;stroke:none"
       id="path362"
       inkscape:connector-curvature="0" /><path
       d="m 49.68,760.44 351.07,0 0,0.48 -351.07,0 0,-0.48 z"
       style="fill:#000000;fill-opacity:1;fill-rule:evenodd;stroke:none"
       id="path364"
       inkscape:connector-curvature="0" /><path
       d="m 400.75,760.44 0.48,0 0,0.48 -0.48,0 0,-0.48 z"
       style="fill:#000000;fill-opacity:1;fill-rule:evenodd;stroke:none"
       id="path366"
       inkscape:connector-curvature="0" /><path
       d="m 401.23,760.44 175.13,0 0,0.48 -175.13,0 0,-0.48 z"
       style="fill:#000000;fill-opacity:1;fill-rule:evenodd;stroke:none"
       id="path368"
       inkscape:connector-curvature="0" /><path
       d="m 576.36,760.44 1.44,0 0,0.48 -1.44,0 0,-0.48 z"
       style="fill:#000000;fill-opacity:1;fill-rule:evenodd;stroke:none"
       id="path370"
       inkscape:connector-curvature="0" /><path
       d="m 48.24,741.1 1.44,0 0,19.344 -1.44,0 0,-19.344 z"
       style="fill:#000000;fill-opacity:1;fill-rule:evenodd;stroke:none"
       id="path372"
       inkscape:connector-curvature="0" /><path
       d="m 400.75,741.1 0.48,0 0,19.344 -0.48,0 0,-19.344 z"
       style="fill:#000000;fill-opacity:1;fill-rule:evenodd;stroke:none"
       id="path374"
       inkscape:connector-curvature="0" /><path
       d="m 576.36,741.1 1.44,0 0,19.344 -1.44,0 0,-19.344 z"
       style="fill:#000000;fill-opacity:1;fill-rule:evenodd;stroke:none"
       id="path376"
       inkscape:connector-curvature="0" /><g
       id="g386"><g
         id="g388"
         clip-path="url(#clipPath390)"><path
           d="m 53.52,726.46 9.24,0 0,9.24 -9.24,0 0,-9.24 z"
           style="fill:none;stroke:#000000;stroke-width:0.72000003;stroke-linecap:butt;stroke-linejoin:round;stroke-miterlimit:10;stroke-opacity:1;stroke-dasharray:none"
           id="path394"
           inkscape:connector-curvature="0" /></g></g><g
       id="g396"><g
         id="g398"
         clip-path="url(#clipPath400)" /></g><g
       id="g416"><g
         id="g418"
         clip-path="url(#clipPath420)" /></g><g
       id="g424"><g
         id="g426"
         clip-path="url(#clipPath428)"><g
           id="g432"><g
             id="g434"
             clip-path="url(#clipPath436)" /></g><g
           id="g440"><g
             id="g442"
             clip-path="url(#clipPath444)" /></g><g
           id="g448"><g
             id="g450"
             clip-path="url(#clipPath452)" /></g><g
           id="g456"><g
             id="g458"
             clip-path="url(#clipPath460)" /></g><g
           id="g464"><g
             id="g466"
             clip-path="url(#clipPath468)" /></g><g
           id="g472"><g
             id="g474"
             clip-path="url(#clipPath476)" /></g></g></g><path
       d="m 48.24,740.62 1.44,0 0,0.48 -1.44,0 0,-0.48 z"
       style="fill:#000000;fill-opacity:1;fill-rule:evenodd;stroke:none"
       id="path480"
       inkscape:connector-curvature="0" /><path
       d="m 49.68,740.62 351.07,0 0,0.48 -351.07,0 0,-0.48 z"
       style="fill:#000000;fill-opacity:1;fill-rule:evenodd;stroke:none"
       id="path482"
       inkscape:connector-curvature="0" /><path
       d="m 400.75,740.62 0.48,0 0,0.48 -0.48,0 0,-0.48 z"
       style="fill:#000000;fill-opacity:1;fill-rule:evenodd;stroke:none"
       id="path484"
       inkscape:connector-curvature="0" /><path
       d="m 401.23,740.62 175.13,0 0,0.48 -175.13,0 0,-0.48 z"
       style="fill:#000000;fill-opacity:1;fill-rule:evenodd;stroke:none"
       id="path486"
       inkscape:connector-curvature="0" /><path
       d="m 576.36,740.62 1.44,0 0,0.48 -1.44,0 0,-0.48 z"
       style="fill:#000000;fill-opacity:1;fill-rule:evenodd;stroke:none"
       id="path488"
       inkscape:connector-curvature="0" /><path
       d="m 48.24,721.3 1.44,0 0,19.32 -1.44,0 0,-19.32 z"
       style="fill:#000000;fill-opacity:1;fill-rule:evenodd;stroke:none"
       id="path490"
       inkscape:connector-curvature="0" /><path
       d="m 400.75,721.3 0.48,0 0,19.32 -0.48,0 0,-19.32 z"
       style="fill:#000000;fill-opacity:1;fill-rule:evenodd;stroke:none"
       id="path492"
       inkscape:connector-curvature="0" /><path
       d="m 576.36,721.3 1.44,0 0,19.32 -1.44,0 0,-19.32 z"
       style="fill:#000000;fill-opacity:1;fill-rule:evenodd;stroke:none"
       id="path494"
       inkscape:connector-curvature="0" /><path
       d="m 48.24,720.82 1.44,0 0,0.48 -1.44,0 0,-0.48 z"
       style="fill:#000000;fill-opacity:1;fill-rule:evenodd;stroke:none"
       id="path688"
       inkscape:connector-curvature="0" /><path
       d="m 49.68,720.82 351.07,0 0,0.48 -351.07,0 0,-0.48 z"
       style="fill:#000000;fill-opacity:1;fill-rule:evenodd;stroke:none"
       id="path690"
       inkscape:connector-curvature="0" /><path
       d="m 400.75,720.82 0.48,0 0,0.48 -0.48,0 0,-0.48 z"
       style="fill:#000000;fill-opacity:1;fill-rule:evenodd;stroke:none"
       id="path692"
       inkscape:connector-curvature="0" /><path
       d="m 401.23,720.82 175.13,0 0,0.48 -175.13,0 0,-0.48 z"
       style="fill:#000000;fill-opacity:1;fill-rule:evenodd;stroke:none"
       id="path694"
       inkscape:connector-curvature="0" /><path
       d="m 576.36,720.82 1.44,0 0,0.48 -1.44,0 0,-0.48 z"
       style="fill:#000000;fill-opacity:1;fill-rule:evenodd;stroke:none"
       id="path696"
       inkscape:connector-curvature="0" /><path
       d="m 48.24,549.43 1.44,0 0,171.38 -1.44,0 0,-171.38 z"
       style="fill:#000000;fill-opacity:1;fill-rule:evenodd;stroke:none"
       id="path698"
       inkscape:connector-curvature="0" /><path
       d="m 576.36,549.43 1.44,0 0,171.38 -1.44,0 0,-171.38 z"
       style="fill:#000000;fill-opacity:1;fill-rule:evenodd;stroke:none"
       id="path700"
       inkscape:connector-curvature="0" /><g
       id="g702"><g
         id="g704"
         clip-path="url(#clipPath706)" /></g><g
       id="g732"><g
         id="g734"
         clip-path="url(#clipPath736)"><g
           id="g740"><g
             id="g742"
             clip-path="url(#clipPath744)" /></g></g></g><path
       d="m 48.24,548.95 1.44,0 0,0.48 -1.44,0 0,-0.48 z"
       style="fill:#000000;fill-opacity:1;fill-rule:evenodd;stroke:none"
       id="path748"
       inkscape:connector-curvature="0" /><path
       d="m 49.68,548.95 526.68,0 0,0.48 -526.68,0 0,-0.48 z"
       style="fill:#000000;fill-opacity:1;fill-rule:evenodd;stroke:none"
       id="path750"
       inkscape:connector-curvature="0" /><path
       d="m 576.36,548.95 1.44,0 0,0.48 -1.44,0 0,-0.48 z"
       style="fill:#000000;fill-opacity:1;fill-rule:evenodd;stroke:none"
       id="path752"
       inkscape:connector-curvature="0" /><path
       d="m 48.24,536.35 1.44,0 0,12.6 -1.44,0 0,-12.6 z"
       style="fill:#000000;fill-opacity:1;fill-rule:evenodd;stroke:none"
       id="path754"
       inkscape:connector-curvature="0" /><path
       d="m 48.24,534.91 1.44,0 0,1.44 -1.44,0 0,-1.44 z"
       style="fill:#000000;fill-opacity:1;fill-rule:evenodd;stroke:none"
       id="path756"
       inkscape:connector-curvature="0" /><path
       d="m 48.24,534.91 1.44,0 0,1.44 -1.44,0 0,-1.44 z"
       style="fill:#000000;fill-opacity:1;fill-rule:evenodd;stroke:none"
       id="path758"
       inkscape:connector-curvature="0" /><path
       d="m 49.68,534.91 526.68,0 0,1.44 -526.68,0 0,-1.44 z"
       style="fill:#000000;fill-opacity:1;fill-rule:evenodd;stroke:none"
       id="path760"
       inkscape:connector-curvature="0" /><path
       d="m 576.36,536.35 1.44,0 0,12.6 -1.44,0 0,-12.6 z"
       style="fill:#000000;fill-opacity:1;fill-rule:evenodd;stroke:none"
       id="path762"
       inkscape:connector-curvature="0" /><path
       d="m 576.36,534.91 1.44,0 0,1.44 -1.44,0 0,-1.44 z"
       style="fill:#000000;fill-opacity:1;fill-rule:evenodd;stroke:none"
       id="path764"
       inkscape:connector-curvature="0" /><path
       d="m 576.36,534.91 1.44,0 0,1.44 -1.44,0 0,-1.44 z"
       style="fill:#000000;fill-opacity:1;fill-rule:evenodd;stroke:none"
       id="path766"
       inkscape:connector-curvature="0" /></g></svg>