<?xml version="1.0" encoding="UTF-8" standalone="no"?>
<!-- Created with Inkscape (http://www.inkscape.org/) -->

<svg
   xmlns:dc="http://purl.org/dc/elements/1.1/"
   xmlns:cc="http://creativecommons.org/ns#"
   xmlns:rdf="http://www.w3.org/1999/02/22-rdf-syntax-ns#"
   xmlns:svg="http://www.w3.org/2000/svg"
   xmlns="http://www.w3.org/2000/svg"
   xmlns:sodipodi="http://sodipodi.sourceforge.net/DTD/sodipodi-0.dtd"
   xmlns:inkscape="http://www.inkscape.org/namespaces/inkscape"
   id="svg2"
   version="1.1"
   inkscape:version="0.48.5 r10040"
   width="744.15"
   height="1052.4"
   xml:space="preserve"
   sodipodi:docname="PKH.pdf"><metadata
     id="metadata8"><rdf:RDF><cc:Work
         rdf:about=""><dc:format>image/svg+xml</dc:format><dc:type
           rdf:resource="http://purl.org/dc/dcmitype/StillImage" /><dc:title></dc:title></cc:Work></rdf:RDF></metadata><defs
     id="defs6"><clipPath
       clipPathUnits="userSpaceOnUse"
       id="clipPath96"><path
         d="m 0.00125,-0.09137 595.44,0 0,842.01 -595.44,0 0,-842.01 z"
         clip-rule="evenodd"
         id="path98" /></clipPath><clipPath
       clipPathUnits="userSpaceOnUse"
       id="clipPath126"><path
         d="m 0.00125,-0.09137 595.44,0 0,842.01 -595.44,0 0,-842.01 z"
         clip-rule="evenodd"
         id="path128" /></clipPath><clipPath
       clipPathUnits="userSpaceOnUse"
       id="clipPath156"><path
         d="m 0.00125,-0.09137 595.44,0 0,842.01 -595.44,0 0,-842.01 z"
         clip-rule="evenodd"
         id="path158" /></clipPath><clipPath
       clipPathUnits="userSpaceOnUse"
       id="clipPath198"><path
         d="m 0.00125,-0.09137 595.44,0 0,842.01 -595.44,0 0,-842.01 z"
         clip-rule="evenodd"
         id="path200" /></clipPath></defs><sodipodi:namedview
     pagecolor="#ffffff"
     bordercolor="#666666"
     borderopacity="1"
     objecttolerance="10"
     gridtolerance="10"
     guidetolerance="10"
     inkscape:pageopacity="0"
     inkscape:pageshadow="2"
     inkscape:window-width="1280"
     inkscape:window-height="780"
     id="namedview4"
     showgrid="false"
     inkscape:zoom="0.89699732"
     inkscape:cx="513.40019"
     inkscape:cy="467.21615"
     inkscape:window-x="0"
     inkscape:window-y="20"
     inkscape:window-maximized="1"
     inkscape:current-layer="g10" /><g
     id="g10"
     inkscape:groupmode="layer"
     inkscape:label="PKH"
     transform="matrix(1.25,0,0,-1.25,0,1052.4)"><text
       transform="matrix(1,0,0,-1,131.3,594.34)"
       id="text32"><tspan
         style="fill:#000000;fill-opacity:1;fill-rule:nonzero;stroke:none;font-family:Calibri;font-variant:normal;font-weight:normal;font-size:11.04;writing-mode:lr;-inkscape-font-specification:Calibri"
         x="0 7.6728 15.2352 22.7976 30.36 38.0328 45.5952 53.1576 60.72 68.3928"
         y="0"
         sodipodi:role="line"
         id="tspan34">…………………………</tspan></text>
<text
       transform="matrix(1,0,0,-1,207.29,594.34)"
       id="text36"><tspan
         style="fill:#000000;fill-opacity:1;fill-rule:nonzero;stroke:none;font-family:Calibri;font-variant:normal;font-weight:normal;font-size:11.04;writing-mode:lr;-inkscape-font-specification:Calibri"
         x="0 7.68"
         y="0"
         sodipodi:role="line"
         id="tspan38">….</tspan></text>
<text
       transform="matrix(1,0,0,-1,70.824,574.18)"
       id="text40"><tspan
         style="fill:#000000;fill-opacity:1;fill-rule:nonzero;stroke:none;font-family:Calibri;font-variant:normal;font-weight:normal;font-size:11.04;writing-mode:lr;-inkscape-font-specification:Calibri"
         x="0 7.6728 15.2352 22.7976 30.36 38.0328 45.5952 53.1576 60.8304 68.3928 75.9552 83.628"
         y="0"
         sodipodi:role="line"
         id="tspan42">………………………………</tspan></text>
<text
       transform="matrix(1,0,0,-1,162.02,574.18)"
       id="text44"><tspan
         style="fill:#000000;fill-opacity:1;fill-rule:nonzero;stroke:none;font-family:Calibri;font-variant:normal;font-weight:normal;font-size:11.04;writing-mode:lr;-inkscape-font-specification:Calibri"
         x="0 7.5624 15.1248 22.7976 30.36 38.0328 45.5952 53.268"
         y="0"
         sodipodi:role="line"
         id="tspan46">………………….</tspan></text>
<text
       transform="matrix(1,0,0,-1,70.824,553.99)"
       id="text48"><tspan
         style="fill:#000000;fill-opacity:1;fill-rule:nonzero;stroke:none;font-family:Calibri;font-variant:normal;font-weight:normal;font-size:11.04;writing-mode:lr;-inkscape-font-specification:Calibri"
         x="0 7.6728 15.2352 22.7976 30.36 38.0328 45.5952 53.1576 60.8304 68.3928 75.9552 83.628"
         y="0"
         sodipodi:role="line"
         id="tspan50">………………………………</tspan></text>
<text
       transform="matrix(1,0,0,-1,162.02,553.99)"
       id="text52"><tspan
         style="fill:#000000;fill-opacity:1;fill-rule:nonzero;stroke:none;font-family:Calibri;font-variant:normal;font-weight:normal;font-size:11.04;writing-mode:lr;-inkscape-font-specification:Calibri"
         x="0 7.5624 15.1248 22.7976 30.36 38.0328 45.5952 53.268"
         y="0"
         sodipodi:role="line"
         id="tspan54">………………….</tspan></text>
<g
       id="g92"><g
         id="g94"
         clip-path="url(#clipPath96)"><path
           d="m 71.904,455.59 11.16,0 0,11.16 -11.16,0 0,-11.16 z"
           style="fill:none;stroke:#000000;stroke-opacity:1;stroke-width:0.72;stroke-linecap:butt;stroke-linejoin:round;stroke-miterlimit:10;stroke-dasharray:none"
           id="path100" /></g></g><g
       id="g122"><g
         id="g124"
         clip-path="url(#clipPath126)"><path
           d="m 71.904,404.71 11.16,0 0,11.16 -11.16,0 0,-11.16 z"
           style="fill:none;stroke:#000000;stroke-opacity:1;stroke-width:0.72;stroke-linecap:butt;stroke-linejoin:round;stroke-miterlimit:10;stroke-dasharray:none"
           id="path130" /></g></g><g
       id="g152"><g
         id="g154"
         clip-path="url(#clipPath156)"><path
           d="m 142.7,353.93 11.16,0 0,11.16 -11.16,0 0,-11.16 z"
           style="fill:none;stroke:#000000;stroke-opacity:1;stroke-width:0.72;stroke-linecap:butt;stroke-linejoin:round;stroke-miterlimit:10;stroke-dasharray:none"
           id="path160" /></g></g><g
       id="g194"><g
         id="g196"
         clip-path="url(#clipPath198)"><path
           d="m 142.7,287.45 11.16,0 0,11.16 -11.16,0 0,-11.16 z"
           style="fill:none;stroke:#000000;stroke-opacity:1;stroke-width:0.72;stroke-linecap:butt;stroke-linejoin:round;stroke-miterlimit:10;stroke-dasharray:none"
           id="path202" /></g></g><text
       transform="matrix(1,0,0,-1,70.824,172.1)"
       id="text248"><tspan
         style="fill:#000000;fill-opacity:1;fill-rule:nonzero;stroke:none;font-family:Calibri;font-variant:normal;font-weight:normal;font-size:11.04;writing-mode:lr;-inkscape-font-specification:Calibri"
         x="0 2.75998 5.51996 8.27994 11.03992 13.7999 16.55988 19.31986 22.07984 24.83982 27.7102 30.47018 33.23016 35.99014 38.75012 41.5101 44.27008 47.14046 49.90044 52.66042 55.4204 58.18038 60.94036 63.70034 66.57072 69.3307 72.09068 74.85066 77.61064 80.37062 83.1306 86.00098 88.76096 91.52094 94.28092 97.0409 99.80088 102.56086 105.43124 108.19122 110.9512 113.71118 116.47116 119.23114 122.10152 124.8615 127.62148 130.38146 133.14144 135.90142 138.6614 141.42138 144.18136 146.94134 149.81172 152.5717 155.33168 158.09166 160.85164 163.61162 166.3716 169.24198 172.00196"
         y="0"
         sodipodi:role="line"
         id="tspan250">...............................................................</tspan></text>
</g></svg>