<?xml version="1.0" encoding="UTF-8" standalone="no"?>
<!-- Created with Inkscape (http://www.inkscape.org/) -->

<svg
   xmlns:dc="http://purl.org/dc/elements/1.1/"
   xmlns:cc="http://creativecommons.org/ns#"
   xmlns:rdf="http://www.w3.org/1999/02/22-rdf-syntax-ns#"
   xmlns:svg="http://www.w3.org/2000/svg"
   xmlns="http://www.w3.org/2000/svg"
   xmlns:sodipodi="http://sodipodi.sourceforge.net/DTD/sodipodi-0.dtd"
   xmlns:inkscape="http://www.inkscape.org/namespaces/inkscape"
   id="svg4812"
   version="1.1"
   inkscape:version="0.48.5 r10040"
   width="744.025"
   height="1052.5"
   xml:space="preserve"
   sodipodi:docname="BerH.pdf"><metadata
     id="metadata4818"><rdf:RDF><cc:Work
         rdf:about=""><dc:format>image/svg+xml</dc:format><dc:type
           rdf:resource="http://purl.org/dc/dcmitype/StillImage" /><dc:title></dc:title></cc:Work></rdf:RDF></metadata><defs
     id="defs4816"><clipPath
       clipPathUnits="userSpaceOnUse"
       id="clipPath4868"><path
         d="m 75.36,780.98 -19.38,0 0,-162.9 19.38,0 0,162.9 z m -19.38,0 z m 14.94,-0.06 -10.5,0 0,-11.7 10.5,0 0,11.7 z"
         clip-rule="evenodd"
         id="path4870" /></clipPath><clipPath
       clipPathUnits="userSpaceOnUse"
       id="clipPath4876"><path
         d="m 0,841.98 595.2,0 L 595.2,0 0,0 0,841.98 z"
         id="path4878" /></clipPath><clipPath
       clipPathUnits="userSpaceOnUse"
       id="clipPath4982"><path
         d="m 55.98,356.6 0,-17.88 418.74,0 0,17.88 -4.62,0 0,-10.38 -409.68,0 0,10.38"
         clip-rule="evenodd"
         id="path4984" /></clipPath><clipPath
       clipPathUnits="userSpaceOnUse"
       id="clipPath4990"><path
         d="m 0,841.98 595.2,0 L 595.2,0 0,0 0,841.98 z"
         id="path4992" /></clipPath><clipPath
       clipPathUnits="userSpaceOnUse"
       id="clipPath5012"><path
         d="m 55.98,338.3 0,-92.52 418.74,0 0,92.52 -4.62,0 0,-56.76 -409.68,0 0,56.76"
         clip-rule="evenodd"
         id="path5014" /></clipPath><clipPath
       clipPathUnits="userSpaceOnUse"
       id="clipPath5020"><path
         d="m 0,841.98 595.2,0 L 595.2,0 0,0 0,841.98 z"
         id="path5022" /></clipPath><clipPath
       clipPathUnits="userSpaceOnUse"
       id="clipPath5072"><path
         d="m 55.98,245.36 0,-27.3 119.34,0 0,27.3 -4.44,0 0,-10.38 -110.46,0 0,10.38"
         clip-rule="evenodd"
         id="path5074" /></clipPath><clipPath
       clipPathUnits="userSpaceOnUse"
       id="clipPath5080"><path
         d="m 0,841.98 595.2,0 L 595.2,0 0,0 0,841.98 z"
         id="path5082" /></clipPath><clipPath
       clipPathUnits="userSpaceOnUse"
       id="clipPath5096"><path
         d="m 175.68,245.36 0,-27.3 298.86,0 0,27.3 -4.44,0 0,-10.38 -289.98,0 0,10.38"
         clip-rule="evenodd"
         id="path5098" /></clipPath><clipPath
       clipPathUnits="userSpaceOnUse"
       id="clipPath5104"><path
         d="m 0,841.98 595.2,0 L 595.2,0 0,0 0,841.98 z"
         id="path5106" /></clipPath></defs><sodipodi:namedview
     pagecolor="#ffffff"
     bordercolor="#666666"
     borderopacity="1"
     objecttolerance="10"
     gridtolerance="10"
     guidetolerance="10"
     inkscape:pageopacity="0"
     inkscape:pageshadow="2"
     inkscape:window-width="1280"
     inkscape:window-height="780"
     id="namedview4814"
     showgrid="false"
     inkscape:zoom="1.2684253"
     inkscape:cx="393.363"
     inkscape:cy="142.56932"
     inkscape:window-x="0"
     inkscape:window-y="20"
     inkscape:window-maximized="1"
     inkscape:current-layer="g4820" /><g
     id="g4820"
     inkscape:groupmode="layer"
     inkscape:label="BerH"
     transform="matrix(1.25,0,0,-1.25,0,1052.5)"><text
       transform="matrix(1,0,0,-1,441.9,167.3003)"
       id="text4822"><tspan
         style="fill:#000000;fill-opacity:1;fill-rule:nonzero;stroke:none;font-family:Arial;font-variant:normal;font-weight:normal;font-stretch:normal;font-size:9.3602;writing-mode:lr;-inkscape-font-specification:ArialMT"
         x="0 5.2183115"
         y="0"
         sodipodi:role="line"
         id="tspan4824">3 </tspan></text>
<path
       d="m 87.96,757.28 -6.9,0 0,-6.9 6.9,0 0,6.9 z"
       style="fill:none;stroke:#000000;stroke-opacity:1;stroke-width:0.613;stroke-linecap:round;stroke-linejoin:miter;stroke-miterlimit:10;stroke-dasharray:none"
       id="path4832" /><path
       d="m 113.16,757.28 -6.84,0 0,-6.9 6.84,0 0,6.9 z"
       style="fill:none;stroke:#000000;stroke-opacity:1;stroke-width:0.613;stroke-linecap:round;stroke-linejoin:miter;stroke-miterlimit:10;stroke-dasharray:none"
       id="path4838" /><path
       d="m 55.62,780.92 0.36,0 0,0.66 -0.36,0 0,-0.66 z"
       style="fill:#000000;fill-opacity:1;fill-rule:nonzero;stroke:none"
       id="path4844" /><path
       d="m 55.62,781.16 19.74,0 0,0.42 -19.74,0 0,-0.42 z"
       style="fill:#000000;fill-opacity:1;fill-rule:nonzero;stroke:none"
       id="path4846" /><path
       d="m 55.98,780.92 19.38,0 0,0.24 -19.38,0 0,-0.24 z"
       style="fill:#b3b3b3;fill-opacity:1;fill-rule:nonzero;stroke:none"
       id="path4848" /><path
       d="m 75.36,780.92 0.42,0 0,0.66 -0.42,0 0,-0.66 z"
       style="fill:#000000;fill-opacity:1;fill-rule:nonzero;stroke:none"
       id="path4850" /><path
       d="m 75.36,781.16 0.42,0 0,0.42 -0.42,0 0,-0.42 z"
       style="fill:#000000;fill-opacity:1;fill-rule:nonzero;stroke:none"
       id="path4852" /><path
       d="m 75.78,780.98 400.26,0 0,0.6 -400.26,0 0,-0.6 z"
       style="fill:#000000;fill-opacity:1;fill-rule:nonzero;stroke:none"
       id="path4854" /><path
       d="m 476.04,780.92 0.42,0 0,0.66 -0.42,0 0,-0.66 z"
       style="fill:#000000;fill-opacity:1;fill-rule:nonzero;stroke:none"
       id="path4856" /><path
       d="m 55.62,744.32 0.36,0 0,36.6 -0.36,0 0,-36.6 z"
       style="fill:#000000;fill-opacity:1;fill-rule:nonzero;stroke:none"
       id="path4858" /><path
       d="m 75.36,744.32 0.42,0 0,36.6 -0.42,0 0,-36.6 z"
       style="fill:#000000;fill-opacity:1;fill-rule:nonzero;stroke:none"
       id="path4860" /><path
       d="m 476.04,744.32 0.42,0 0,36.6 -0.42,0 0,-36.6 z"
       style="fill:#000000;fill-opacity:1;fill-rule:nonzero;stroke:none"
       id="path4862" /><g
       id="g4864"><g
         id="g4866"
         clip-path="url(#clipPath4868)"><g
           id="g4872"><g
             id="g4874"
             clip-path="url(#clipPath4876)"><path
               d="m 55.98,618.08 19.38,0 0,162.9 -19.38,0 0,-162.9 z"
               style="fill:#b3b3b3;fill-opacity:1;fill-rule:nonzero;stroke:none"
               id="path4880" /></g></g></g></g><path
       d="m 60.42,769.22 10.5,0 0,11.7 -10.5,0 0,-11.7 z"
       style="fill:#b3b3b3;fill-opacity:1;fill-rule:nonzero;stroke:none"
       id="path4882" /><path
       d="m 55.62,743.66 0.36,0 0,0.66 -0.36,0 0,-0.66 z"
       style="fill:#000000;fill-opacity:1;fill-rule:nonzero;stroke:none"
       id="path4900" /><path
       d="m 75.24,743.66 0.6,0 0,0.66 -0.6,0 0,-0.66 z"
       style="fill:#000000;fill-opacity:1;fill-rule:nonzero;stroke:none"
       id="path4902" /><path
       d="m 75.24,743.66 401.4,0 0,0.66 -401.4,0 0,-0.66 z"
       style="fill:#000000;fill-opacity:1;fill-rule:nonzero;stroke:none"
       id="path4904" /><path
       d="m 476.46,743.66 1.08,0 0,0.66 -1.08,0 0,-0.66 z"
       style="fill:#000000;fill-opacity:1;fill-rule:nonzero;stroke:none"
       id="path4906" /><path
       d="m 55.62,617.66 0.36,0 0,126 -0.36,0 0,-126 z"
       style="fill:#000000;fill-opacity:1;fill-rule:nonzero;stroke:none"
       id="path4908" /><path
       d="m 55.62,617.66 19.62,0 0,0.42 -19.62,0 0,-0.42 z"
       style="fill:#000000;fill-opacity:1;fill-rule:nonzero;stroke:none"
       id="path4910" /><path
       d="m 75.24,617.48 0.6,0 0,126.18 -0.6,0 0,-126.18 z"
       style="fill:#000000;fill-opacity:1;fill-rule:nonzero;stroke:none"
       id="path4912" /><path
       d="m 75.24,617.48 287.1,0 0,0.6 -287.1,0 0,-0.6 z"
       style="fill:#000000;fill-opacity:1;fill-rule:nonzero;stroke:none"
       id="path4914" /><path
       d="m 362.34,618.08 0.42,0 0,125.58 -0.42,0 0,-125.58 z"
       style="fill:#000000;fill-opacity:1;fill-rule:nonzero;stroke:none"
       id="path4916" /><path
       d="m 362.34,617.48 48.36,0 0,0.6 -48.36,0 0,-0.6 z"
       style="fill:#000000;fill-opacity:1;fill-rule:nonzero;stroke:none"
       id="path4918" /><path
       d="m 410.7,618.08 0.42,0 0,125.58 -0.42,0 0,-125.58 z"
       style="fill:#000000;fill-opacity:1;fill-rule:nonzero;stroke:none"
       id="path4920" /><path
       d="m 410.7,617.48 66.42,0 0,0.6 -66.42,0 0,-0.6 z"
       style="fill:#000000;fill-opacity:1;fill-rule:nonzero;stroke:none"
       id="path4922" /><path
       d="m 477.12,617.48 0.42,0 0,126.18 -0.42,0 0,-126.18 z"
       style="fill:#000000;fill-opacity:1;fill-rule:nonzero;stroke:none"
       id="path4924" /><path
       d="m 55.62,407.66 0.36,0 0,0.42 -0.36,0 0,-0.42 z"
       style="fill:#000000;fill-opacity:1;fill-rule:nonzero;stroke:none"
       id="path4960" /><path
       d="m 55.62,407.66 419.28,0 0,0.42 -419.28,0 0,-0.42 z"
       style="fill:#000000;fill-opacity:1;fill-rule:nonzero;stroke:none"
       id="path4962" /><path
       d="m 474.54,407.66 0.36,0 0,0.42 -0.36,0 0,-0.42 z"
       style="fill:#000000;fill-opacity:1;fill-rule:nonzero;stroke:none"
       id="path4964" /><path
       d="m 55.62,372.62 0.36,0 0,35.04 -0.36,0 0,-35.04 z"
       style="fill:#000000;fill-opacity:1;fill-rule:nonzero;stroke:none"
       id="path4966" /><path
       d="m 55.62,372.62 119.7,0 0,0.42 -119.7,0 0,-0.42 z"
       style="fill:#000000;fill-opacity:1;fill-rule:nonzero;stroke:none"
       id="path4968" /><path
       d="m 175.32,372.62 0.36,0 0,35.04 -0.36,0 0,-35.04 z"
       style="fill:#000000;fill-opacity:1;fill-rule:nonzero;stroke:none"
       id="path4970" /><path
       d="m 175.68,372.62 298.86,0 0,0.42 -298.86,0 0,-0.42 z"
       style="fill:#000000;fill-opacity:1;fill-rule:nonzero;stroke:none"
       id="path4972" /><path
       d="m 474.54,372.62 0.36,0 0,35.04 -0.36,0 0,-35.04 z"
       style="fill:#000000;fill-opacity:1;fill-rule:nonzero;stroke:none"
       id="path4974" /><path
       d="m 474.54,372.62 0.36,0 0,0.42 -0.36,0 0,-0.42 z"
       style="fill:#000000;fill-opacity:1;fill-rule:nonzero;stroke:none"
       id="path4976" /><g
       id="g4978"><g
         id="g4980"
         clip-path="url(#clipPath4982)"><g
           id="g4986"><g
             id="g4988"
             clip-path="url(#clipPath4990)"><path
               d="m 55.98,338.72 418.74,0 0,17.88 -418.74,0 0,-17.88 z"
               style="fill:#c0c0c0;fill-opacity:1;fill-rule:nonzero;stroke:none"
               id="path4994" /></g></g></g></g><path
       d="m 60.42,346.22 409.68,0 0,10.38 -409.68,0 0,-10.38 z"
       style="fill:#c0c0c0;fill-opacity:1;fill-rule:nonzero;stroke:none"
       id="path4996" /><path
       d="m 55.62,356.6 0.36,0 0,0.42 -0.36,0 0,-0.42 z"
       style="fill:#000000;fill-opacity:1;fill-rule:nonzero;stroke:none"
       id="path5002" /><path
       d="m 55.62,356.6 418.8,0 0,0.42 -418.8,0 0,-0.42 z"
       style="fill:#000000;fill-opacity:1;fill-rule:nonzero;stroke:none"
       id="path5004" /><path
       d="m 55.62,338.72 0.36,0 0,17.88 -0.36,0 0,-17.88 z"
       style="fill:#000000;fill-opacity:1;fill-rule:nonzero;stroke:none"
       id="path5006" /><g
       id="g5008"><g
         id="g5010"
         clip-path="url(#clipPath5012)"><g
           id="g5016"><g
             id="g5018"
             clip-path="url(#clipPath5020)"><path
               d="m 55.98,245.78 418.74,0 0,92.52 -418.74,0 0,-92.52 z"
               style="fill:#c0c0c0;fill-opacity:1;fill-rule:nonzero;stroke:none"
               id="path5024" /></g></g></g></g><path
       d="m 60.42,326.96 409.68,0 0,11.34 -409.68,0 0,-11.34 z"
       style="fill:#c0c0c0;fill-opacity:1;fill-rule:nonzero;stroke:none"
       id="path5026" /><path
       d="m 60.42,315.62 409.68,0 0,11.34 -409.68,0 0,-11.34 z"
       style="fill:#c0c0c0;fill-opacity:1;fill-rule:nonzero;stroke:none"
       id="path5032" /><path
       d="m 68.22,323.48 -6.9,0 0,-6.9 6.9,0 0,6.9 z"
       style="fill:none;stroke:#000000;stroke-opacity:1;stroke-width:0.613;stroke-linecap:round;stroke-linejoin:miter;stroke-miterlimit:10;stroke-dasharray:none"
       id="path5034" /><path
       d="m 60.42,304.28 409.68,0 0,11.34 -409.68,0 0,-11.34 z"
       style="fill:#c0c0c0;fill-opacity:1;fill-rule:nonzero;stroke:none"
       id="path5040" /><path
       d="m 68.22,312.14 -6.9,0 0,-6.9 6.9,0 0,6.9 z"
       style="fill:none;stroke:#000000;stroke-opacity:1;stroke-width:0.613;stroke-linecap:round;stroke-linejoin:miter;stroke-miterlimit:10;stroke-dasharray:none"
       id="path5042" /><path
       d="m 60.42,292.88 409.68,0 0,11.4 -409.68,0 0,-11.4 z"
       style="fill:#c0c0c0;fill-opacity:1;fill-rule:nonzero;stroke:none"
       id="path5048" /><path
       d="m 68.22,300.8 -6.9,0 0,-6.9 6.9,0 0,6.9 z"
       style="fill:none;stroke:#000000;stroke-opacity:1;stroke-width:0.613;stroke-linecap:round;stroke-linejoin:miter;stroke-miterlimit:10;stroke-dasharray:none"
       id="path5050" /><path
       d="m 60.42,281.54 409.68,0 0,11.34 -409.68,0 0,-11.34 z"
       style="fill:#c0c0c0;fill-opacity:1;fill-rule:nonzero;stroke:none"
       id="path5056" /><path
       d="m 68.22,289.4 -6.9,0 0,-6.9 6.9,0 0,6.9 z"
       style="fill:none;stroke:#000000;stroke-opacity:1;stroke-width:0.613;stroke-linecap:round;stroke-linejoin:miter;stroke-miterlimit:10;stroke-dasharray:none"
       id="path5058" /><path
       d="m 55.62,338.3 418.8,0 0,0.42 -418.8,0 0,-0.42 z"
       style="fill:#000000;fill-opacity:1;fill-rule:nonzero;stroke:none"
       id="path5064" /><path
       d="m 55.62,245.78 0.36,0 0,92.52 -0.36,0 0,-92.52 z"
       style="fill:#000000;fill-opacity:1;fill-rule:nonzero;stroke:none"
       id="path5066" /><g
       id="g5068"><g
         id="g5070"
         clip-path="url(#clipPath5072)"><g
           id="g5076"><g
             id="g5078"
             clip-path="url(#clipPath5080)"><path
               d="m 55.98,218.06 119.34,0 0,27.3 -119.34,0 0,-27.3 z"
               style="fill:#c0c0c0;fill-opacity:1;fill-rule:nonzero;stroke:none"
               id="path5084" /></g></g></g></g><path
       d="m 60.42,234.98 110.46,0 0,10.38 -110.46,0 0,-10.38 z"
       style="fill:#c0c0c0;fill-opacity:1;fill-rule:nonzero;stroke:none"
       id="path5086" /><g
       id="g5092"><g
         id="g5094"
         clip-path="url(#clipPath5096)"><g
           id="g5100"><g
             id="g5102"
             clip-path="url(#clipPath5104)"><path
               d="m 175.68,218.06 298.86,0 0,27.3 -298.86,0 0,-27.3 z"
               style="fill:#c0c0c0;fill-opacity:1;fill-rule:nonzero;stroke:none"
               id="path5108" /></g></g></g></g><path
       d="m 180.12,234.98 289.98,0 0,10.38 -289.98,0 0,-10.38 z"
       style="fill:#c0c0c0;fill-opacity:1;fill-rule:nonzero;stroke:none"
       id="path5110" /><path
       d="m 55.62,245.36 419.22,0 0,0.42 -419.22,0 0,-0.42 z"
       style="fill:#000000;fill-opacity:1;fill-rule:nonzero;stroke:none"
       id="path5116" /><path
       d="m 474.54,245.36 0.36,0 0,0.42 -0.36,0 0,-0.42 z"
       style="fill:#000000;fill-opacity:1;fill-rule:nonzero;stroke:none"
       id="path5118" /><path
       d="m 474.54,245.36 0.36,0 0,0.42 -0.36,0 0,-0.42 z"
       style="fill:#000000;fill-opacity:1;fill-rule:nonzero;stroke:none"
       id="path5120" /><path
       d="m 55.62,217.64 0.36,0 0,27.72 -0.36,0 0,-27.72 z"
       style="fill:#000000;fill-opacity:1;fill-rule:nonzero;stroke:none"
       id="path5122" /><path
       d="m 55.62,217.64 119.7,0 0,0.42 -119.7,0 0,-0.42 z"
       style="fill:#000000;fill-opacity:1;fill-rule:nonzero;stroke:none"
       id="path5124" /><path
       d="m 175.32,217.64 0.36,0 0,27.72 -0.36,0 0,-27.72 z"
       style="fill:#000000;fill-opacity:1;fill-rule:nonzero;stroke:none"
       id="path5126" /><path
       d="m 175.68,217.64 298.86,0 0,0.42 -298.86,0 0,-0.42 z"
       style="fill:#000000;fill-opacity:1;fill-rule:nonzero;stroke:none"
       id="path5128" /><path
       d="m 474.54,217.64 0.36,0 0,27.72 -0.36,0 0,-27.72 z"
       style="fill:#000000;fill-opacity:1;fill-rule:nonzero;stroke:none"
       id="path5130" /><path
       d="m 474.54,217.64 0.36,0 0,0.42 -0.36,0 0,-0.42 z"
       style="fill:#000000;fill-opacity:1;fill-rule:nonzero;stroke:none"
       id="path5132" /></g></svg>