<?xml version="1.0" encoding="UTF-8" standalone="no"?>
<!-- Created with Inkscape (http://www.inkscape.org/) -->

<svg
   xmlns:dc="http://purl.org/dc/elements/1.1/"
   xmlns:cc="http://creativecommons.org/ns#"
   xmlns:rdf="http://www.w3.org/1999/02/22-rdf-syntax-ns#"
   xmlns:svg="http://www.w3.org/2000/svg"
   xmlns="http://www.w3.org/2000/svg"
   version="1.1"
   width="744.09497"
   height="1052.3625"
   id="svg3914"
   xml:space="preserve"><metadata
     id="metadata3920"><rdf:RDF><cc:Work
         rdf:about=""><dc:format>image/svg+xml</dc:format><dc:type
           rdf:resource="http://purl.org/dc/dcmitype/StillImage" /><dc:title></dc:title></cc:Work></rdf:RDF></metadata><defs
     id="defs3918" /><g
     transform="matrix(1.25,0,0,-1.25,0,1052.3625)"
     id="g3922"><path
       d="m 438.738,48.487 99.213,0 0,767.891 -99.213,0 0,-767.891 z"
       id="path3936"
       style="fill:none;stroke:#000000;stroke-width:1;stroke-linecap:butt;stroke-linejoin:miter;stroke-miterlimit:10;stroke-opacity:1;stroke-dasharray:none" /><path
       d="m 441.335,764.277 11.055,0 0,11.055 -11.055,0 0,-11.055 z"
       id="path3946"
       style="fill:none;stroke:#000000;stroke-width:0.5;stroke-linecap:butt;stroke-linejoin:miter;stroke-miterlimit:10;stroke-opacity:1;stroke-dasharray:none" /><g
       transform="translate(456.063,764.617)"
       id="g3948"><path
         d="M 0,0 79.968,0"
         id="path3950"
         style="fill:none;stroke:#000000;stroke-width:0.5;stroke-linecap:square;stroke-linejoin:miter;stroke-miterlimit:10;stroke-opacity:1;stroke-dasharray:none" /></g><path
       d="m 441.335,720.53 11.055,0 0,11.055 -11.055,0 0,-11.055 z"
       id="path3952"
       style="fill:none;stroke:#000000;stroke-width:0.5;stroke-linecap:butt;stroke-linejoin:miter;stroke-miterlimit:10;stroke-opacity:1;stroke-dasharray:none" /><path
       d="m 441.335,672.012 11.055,0 0,11.055 -11.055,0 0,-11.055 z"
       id="path3958"
       style="fill:none;stroke:#000000;stroke-width:0.5;stroke-linecap:butt;stroke-linejoin:miter;stroke-miterlimit:10;stroke-opacity:1;stroke-dasharray:none" /><g
       transform="translate(456.063,672.352)"
       id="g3960"><path
         d="M 0,0 79.968,0"
         id="path3962"
         style="fill:none;stroke:#000000;stroke-width:0.5;stroke-linecap:square;stroke-linejoin:miter;stroke-miterlimit:10;stroke-opacity:1;stroke-dasharray:none" /></g><path
       d="m 441.335,565.486 11.055,0 0,11.055 -11.055,0 0,-11.055 z"
       id="path3964"
       style="fill:none;stroke:#000000;stroke-width:0.5;stroke-linecap:butt;stroke-linejoin:miter;stroke-miterlimit:10;stroke-opacity:1;stroke-dasharray:none" /><g
       transform="translate(456.063,565.827)"
       id="g3966"><path
         d="M 0,0 79.968,0"
         id="path3968"
         style="fill:none;stroke:#000000;stroke-width:0.5;stroke-linecap:square;stroke-linejoin:miter;stroke-miterlimit:10;stroke-opacity:1;stroke-dasharray:none" /></g><path
       d="m 441.335,512.62 11.055,0 0,11.055 -11.055,0 0,-11.055 z"
       id="path3970"
       style="fill:none;stroke:#000000;stroke-width:0.5;stroke-linecap:butt;stroke-linejoin:miter;stroke-miterlimit:10;stroke-opacity:1;stroke-dasharray:none" /><path
       d="m 441.335,462.47 11.055,0 0,11.055 -11.055,0 0,-11.055 z"
       id="path3976"
       style="fill:none;stroke:#000000;stroke-width:0.5;stroke-linecap:butt;stroke-linejoin:miter;stroke-miterlimit:10;stroke-opacity:1;stroke-dasharray:none" /><g
       transform="translate(456.063,462.64)"
       id="g3978"><path
         d="M 0,0 79.685,0"
         id="path3980"
         style="fill:none;stroke:#000000;stroke-width:0.5;stroke-linecap:square;stroke-linejoin:miter;stroke-miterlimit:10;stroke-opacity:1;stroke-dasharray:none" /></g><path
       d="m 441.335,409.283 11.055,0 0,11.055 -11.055,0 0,-11.055 z"
       id="path3982"
       style="fill:none;stroke:#000000;stroke-width:0.5;stroke-linecap:butt;stroke-linejoin:miter;stroke-miterlimit:10;stroke-opacity:1;stroke-dasharray:none" /><path
       d="m 441.335,355.263 11.055,0 0,11.055 -11.055,0 0,-11.055 z"
       id="path3988"
       style="fill:none;stroke:#000000;stroke-width:0.5;stroke-linecap:butt;stroke-linejoin:miter;stroke-miterlimit:10;stroke-opacity:1;stroke-dasharray:none" /><g
       transform="translate(456.063,355.433)"
       id="g3990"><path
         d="M 0,0 79.685,0"
         id="path3992"
         style="fill:none;stroke:#000000;stroke-width:0.5;stroke-linecap:square;stroke-linejoin:miter;stroke-miterlimit:10;stroke-opacity:1;stroke-dasharray:none" /></g><path
       d="m 441.335,289.273 11.055,0 0,11.055 -11.055,0 0,-11.055 z"
       id="path3994"
       style="fill:none;stroke:#000000;stroke-width:0.5;stroke-linecap:butt;stroke-linejoin:miter;stroke-miterlimit:10;stroke-opacity:1;stroke-dasharray:none" /><g
       transform="translate(456.063,289.443)"
       id="g3996"><path
         d="M 0,0 79.685,0"
         id="path3998"
         style="fill:none;stroke:#000000;stroke-width:0.5;stroke-linecap:square;stroke-linejoin:miter;stroke-miterlimit:10;stroke-opacity:1;stroke-dasharray:none" /></g><text
       transform="matrix(1,0,0,-1,24.098,807.045)"
       id="text4000"><tspan
         x="0 5.0040002 7.506"
         y="0"
         id="tspan4002"
         style="font-size:9px;font-variant:normal;font-weight:bold;font-stretch:normal;writing-mode:lr-tb;fill:#000000;fill-opacity:1;fill-rule:nonzero;stroke:none;font-family:Arial;-inkscape-font-specification:Arial-BoldMT">1.4</tspan><tspan
         x="0 5.0040002 7.506"
         y="0"
         id="tspan4828"
         style="font-size:9px;font-variant:normal;font-weight:bold;font-stretch:normal;writing-mode:lr-tb;fill:#000000;fill-opacity:1;fill-rule:nonzero;stroke:none;font-family:Arial;-inkscape-font-specification:Arial-BoldMT" /></text>
<g
       transform="translate(24.803,759.178)"
       id="g4004"><path
         d="M 0,0 383.503,0"
         id="path4006"
         style="fill:none;stroke:#000000;stroke-width:0.5;stroke-linecap:butt;stroke-linejoin:miter;stroke-miterlimit:10;stroke-opacity:1;stroke-dasharray:none" /></g><g
       transform="translate(25.512,799.113)"
       id="g4008"><path
         d="M 0,0 0,-40.185"
         id="path4010"
         style="fill:none;stroke:#000000;stroke-width:1.41700006;stroke-linecap:butt;stroke-linejoin:miter;stroke-miterlimit:10;stroke-opacity:1;stroke-dasharray:none" /></g><path
       d="m 341.263,784.859 11,0 0,11 -11,0 0,-11 z"
       id="path4018"
       style="fill:#ffffff;fill-opacity:1;fill-rule:nonzero;stroke:none" /><path
       d="m 341.263,784.859 11,0 0,11 -11,0 0,-11 z"
       id="path4020"
       style="fill:none;stroke:#000000;stroke-width:0.5;stroke-linecap:butt;stroke-linejoin:miter;stroke-miterlimit:10;stroke-opacity:1;stroke-dasharray:none" /><path
       d="m 372.249,784.859 11,0 0,11 -11,0 0,-11 z"
       id="path4026"
       style="fill:#ffffff;fill-opacity:1;fill-rule:nonzero;stroke:none" /><path
       d="m 372.249,784.859 11,0 0,11 -11,0 0,-11 z"
       id="path4028"
       style="fill:none;stroke:#000000;stroke-width:0.5;stroke-linecap:butt;stroke-linejoin:miter;stroke-miterlimit:10;stroke-opacity:1;stroke-dasharray:none" /><text
       transform="matrix(1,0,0,-1,29.229,764.178)"
       id="text4034"><tspan
         x="0"
         y="0"
         id="tspan4036"
         style="font-size:9px;font-variant:normal;font-weight:bold;font-stretch:normal;writing-mode:lr-tb;fill:#00965a;fill-opacity:1;fill-rule:nonzero;stroke:none;font-family:Arial;-inkscape-font-specification:Arial-BoldMT">►</tspan></text>
<g
       transform="translate(24.803,719.028)"
       id="g4042"><path
         d="M 0,0 383.503,0"
         id="path4044"
         style="fill:none;stroke:#000000;stroke-width:0.5;stroke-linecap:butt;stroke-linejoin:miter;stroke-miterlimit:10;stroke-opacity:1;stroke-dasharray:none" /></g><g
       transform="translate(25.512,758.963)"
       id="g4046"><path
         d="M 0,0 0,-40.185"
         id="path4048"
         style="fill:none;stroke:#000000;stroke-width:1.41700006;stroke-linecap:butt;stroke-linejoin:miter;stroke-miterlimit:10;stroke-opacity:1;stroke-dasharray:none" /></g><path
       d="m 341.263,744.709 11,0 0,11 -11,0 0,-11 z"
       id="path4084"
       style="fill:#ffffff;fill-opacity:1;fill-rule:nonzero;stroke:none" /><path
       d="m 341.263,744.709 11,0 0,11 -11,0 0,-11 z"
       id="path4086"
       style="fill:none;stroke:#000000;stroke-width:0.5;stroke-linecap:butt;stroke-linejoin:miter;stroke-miterlimit:10;stroke-opacity:1;stroke-dasharray:none" /><path
       d="m 372.249,744.709 11,0 0,11 -11,0 0,-11 z"
       id="path4092"
       style="fill:#ffffff;fill-opacity:1;fill-rule:nonzero;stroke:none" /><path
       d="m 372.249,744.709 11,0 0,11 -11,0 0,-11 z"
       id="path4094"
       style="fill:none;stroke:#000000;stroke-width:0.5;stroke-linecap:butt;stroke-linejoin:miter;stroke-miterlimit:10;stroke-opacity:1;stroke-dasharray:none" /><text
       transform="matrix(1,0,0,-1,29.229,724.028)"
       id="text4100"><tspan
         x="0"
         y="0"
         id="tspan4102"
         style="font-size:9px;font-variant:normal;font-weight:bold;font-stretch:normal;writing-mode:lr-tb;fill:#00965a;fill-opacity:1;fill-rule:nonzero;stroke:none;font-family:Arial;-inkscape-font-specification:Arial-BoldMT">►</tspan></text>
<g
       transform="translate(24.803,669.114)"
       id="g4108"><path
         d="M 0,0 383.503,0"
         id="path4110"
         style="fill:none;stroke:#000000;stroke-width:0.5;stroke-linecap:butt;stroke-linejoin:miter;stroke-miterlimit:10;stroke-opacity:1;stroke-dasharray:none" /></g><g
       transform="translate(25.512,719.165)"
       id="g4112"><path
         d="M 0,0 0,-50.301"
         id="path4114"
         style="fill:none;stroke:#000000;stroke-width:1.41700006;stroke-linecap:butt;stroke-linejoin:miter;stroke-miterlimit:10;stroke-opacity:1;stroke-dasharray:none" /></g><path
       d="m 341.263,704.911 11,0 0,11 -11,0 0,-11 z"
       id="path4146"
       style="fill:#ffffff;fill-opacity:1;fill-rule:nonzero;stroke:none" /><path
       d="m 341.263,704.911 11,0 0,11 -11,0 0,-11 z"
       id="path4148"
       style="fill:none;stroke:#000000;stroke-width:0.5;stroke-linecap:butt;stroke-linejoin:miter;stroke-miterlimit:10;stroke-opacity:1;stroke-dasharray:none" /><path
       d="m 372.249,704.911 11,0 0,11 -11,0 0,-11 z"
       id="path4154"
       style="fill:#ffffff;fill-opacity:1;fill-rule:nonzero;stroke:none" /><path
       d="m 372.249,704.911 11,0 0,11 -11,0 0,-11 z"
       id="path4156"
       style="fill:none;stroke:#000000;stroke-width:0.5;stroke-linecap:butt;stroke-linejoin:miter;stroke-miterlimit:10;stroke-opacity:1;stroke-dasharray:none" /><text
       transform="matrix(1,0,0,-1,29.229,683.222)"
       id="text4162"><tspan
         x="0"
         y="0"
         id="tspan4164"
         style="font-size:9px;font-variant:normal;font-weight:bold;font-stretch:normal;writing-mode:lr-tb;fill:#00965a;fill-opacity:1;fill-rule:nonzero;stroke:none;font-family:Arial;-inkscape-font-specification:Arial-BoldMT">►</tspan></text>
<g
       transform="translate(24.803,617.726)"
       id="g4172"><path
         d="M 0,0 383.503,0"
         id="path4174"
         style="fill:none;stroke:#000000;stroke-width:0.5;stroke-linecap:butt;stroke-linejoin:miter;stroke-miterlimit:10;stroke-opacity:1;stroke-dasharray:none" /></g><g
       transform="translate(25.512,669.538)"
       id="g4176"><path
         d="M 0,0 0,-52.062"
         id="path4178"
         style="fill:none;stroke:#000000;stroke-width:1.41700006;stroke-linecap:butt;stroke-linejoin:miter;stroke-miterlimit:10;stroke-opacity:1;stroke-dasharray:none" /></g><path
       d="m 341.263,654.377 11,0 0,11 -11,0 0,-11 z"
       id="path4208"
       style="fill:#ffffff;fill-opacity:1;fill-rule:nonzero;stroke:none" /><path
       d="m 341.263,654.377 11,0 0,11 -11,0 0,-11 z"
       id="path4210"
       style="fill:none;stroke:#000000;stroke-width:0.5;stroke-linecap:butt;stroke-linejoin:miter;stroke-miterlimit:10;stroke-opacity:1;stroke-dasharray:none" /><path
       d="m 372.249,654.377 11,0 0,11 -11,0 0,-11 z"
       id="path4216"
       style="fill:#ffffff;fill-opacity:1;fill-rule:nonzero;stroke:none" /><path
       d="m 372.249,654.377 11,0 0,11 -11,0 0,-11 z"
       id="path4218"
       style="fill:none;stroke:#000000;stroke-width:0.5;stroke-linecap:butt;stroke-linejoin:miter;stroke-miterlimit:10;stroke-opacity:1;stroke-dasharray:none" /><text
       transform="matrix(1,0,0,-1,29.229,633.453)"
       id="text4224"><tspan
         x="0"
         y="0"
         id="tspan4226"
         style="font-size:9px;font-variant:normal;font-weight:bold;font-stretch:normal;writing-mode:lr-tb;fill:#00965a;fill-opacity:1;fill-rule:nonzero;stroke:none;font-family:Arial;-inkscape-font-specification:Arial-BoldMT">►</tspan></text>
<g
       transform="translate(24.803,562.598)"
       id="g4234"><path
         d="M 0,0 383.503,0"
         id="path4236"
         style="fill:none;stroke:#000000;stroke-width:0.5;stroke-linecap:butt;stroke-linejoin:miter;stroke-miterlimit:10;stroke-opacity:1;stroke-dasharray:none" /></g><g
       transform="translate(25.512,617.778)"
       id="g4238"><path
         d="M 0,0 0,-55.43"
         id="path4240"
         style="fill:none;stroke:#000000;stroke-width:1.41700006;stroke-linecap:butt;stroke-linejoin:miter;stroke-miterlimit:10;stroke-opacity:1;stroke-dasharray:none" /></g><path
       d="m 341.263,600.91 11,0 0,11 -11,0 0,-11 z"
       id="path4268"
       style="fill:#ffffff;fill-opacity:1;fill-rule:nonzero;stroke:none" /><path
       d="m 341.263,600.91 11,0 0,11 -11,0 0,-11 z"
       id="path4270"
       style="fill:none;stroke:#000000;stroke-width:0.5;stroke-linecap:butt;stroke-linejoin:miter;stroke-miterlimit:10;stroke-opacity:1;stroke-dasharray:none" /><path
       d="m 372.249,600.91 11,0 0,11 -11,0 0,-11 z"
       id="path4276"
       style="fill:#ffffff;fill-opacity:1;fill-rule:nonzero;stroke:none" /><path
       d="m 372.249,600.91 11,0 0,11 -11,0 0,-11 z"
       id="path4278"
       style="fill:none;stroke:#000000;stroke-width:0.5;stroke-linecap:butt;stroke-linejoin:miter;stroke-miterlimit:10;stroke-opacity:1;stroke-dasharray:none" /><g
       transform="translate(269.017,591.586)"
       id="g4284"><path
         d="M 0,0 0,-28.846"
         id="path4286"
         style="fill:none;stroke:#000000;stroke-width:0.5;stroke-linecap:butt;stroke-linejoin:miter;stroke-miterlimit:10;stroke-opacity:1;stroke-dasharray:none" /></g><g
       transform="translate(42.245,591.586)"
       id="g4288"><path
         d="M 0,0 0,-28.846"
         id="path4290"
         style="fill:none;stroke:#000000;stroke-width:0.5;stroke-linecap:butt;stroke-linejoin:miter;stroke-miterlimit:10;stroke-opacity:1;stroke-dasharray:none" /></g><text
       transform="matrix(1,0,0,-1,273.247,587.358)"
       id="text4296"><tspan
         x="0"
         y="0"
         id="tspan4298"
         style="font-size:9px;font-variant:normal;font-weight:bold;font-stretch:normal;writing-mode:lr-tb;fill:#00965a;fill-opacity:1;fill-rule:nonzero;stroke:none;font-family:Arial;-inkscape-font-specification:Arial-BoldMT">►</tspan></text>
<g
       transform="translate(24.803,509.786)"
       id="g4308"><path
         d="M 0,0 383.503,0"
         id="path4310"
         style="fill:none;stroke:#000000;stroke-width:0.5;stroke-linecap:butt;stroke-linejoin:miter;stroke-miterlimit:10;stroke-opacity:1;stroke-dasharray:none" /></g><g
       transform="translate(25.512,562.477)"
       id="g4312"><path
         d="M 0,0 0,-52.941"
         id="path4314"
         style="fill:none;stroke:#000000;stroke-width:1.41700006;stroke-linecap:butt;stroke-linejoin:miter;stroke-miterlimit:10;stroke-opacity:1;stroke-dasharray:none" /></g><path
       d="m 341.263,546.012 11,0 0,11 -11,0 0,-11 z"
       id="path4342"
       style="fill:#ffffff;fill-opacity:1;fill-rule:nonzero;stroke:none" /><path
       d="m 341.263,546.012 11,0 0,11 -11,0 0,-11 z"
       id="path4344"
       style="fill:none;stroke:#000000;stroke-width:0.5;stroke-linecap:butt;stroke-linejoin:miter;stroke-miterlimit:10;stroke-opacity:1;stroke-dasharray:none" /><path
       d="m 372.249,546.012 11,0 0,11 -11,0 0,-11 z"
       id="path4350"
       style="fill:#ffffff;fill-opacity:1;fill-rule:nonzero;stroke:none" /><path
       d="m 372.249,546.012 11,0 0,11 -11,0 0,-11 z"
       id="path4352"
       style="fill:none;stroke:#000000;stroke-width:0.5;stroke-linecap:butt;stroke-linejoin:miter;stroke-miterlimit:10;stroke-opacity:1;stroke-dasharray:none" /><g
       transform="translate(269.017,538.898)"
       id="g4358"><path
         d="M 0,0 0,-28.846"
         id="path4360"
         style="fill:none;stroke:#000000;stroke-width:0.5;stroke-linecap:butt;stroke-linejoin:miter;stroke-miterlimit:10;stroke-opacity:1;stroke-dasharray:none" /></g><g
       transform="translate(42.245,538.898)"
       id="g4362"><path
         d="M 0,0 0,-28.846"
         id="path4364"
         style="fill:none;stroke:#000000;stroke-width:0.5;stroke-linecap:butt;stroke-linejoin:miter;stroke-miterlimit:10;stroke-opacity:1;stroke-dasharray:none" /></g><text
       transform="matrix(1,0,0,-1,273.247,525.823)"
       id="text4370"><tspan
         x="0"
         y="0"
         id="tspan4372"
         style="font-size:9px;font-variant:normal;font-weight:bold;font-stretch:normal;writing-mode:lr-tb;fill:#00965a;fill-opacity:1;fill-rule:nonzero;stroke:none;font-family:Arial;-inkscape-font-specification:Arial-BoldMT">►</tspan></text>
<g
       transform="translate(24.803,457.98)"
       id="g4380"><path
         d="M 0,0 383.503,0"
         id="path4382"
         style="fill:none;stroke:#000000;stroke-width:0.5;stroke-linecap:butt;stroke-linejoin:miter;stroke-miterlimit:10;stroke-opacity:1;stroke-dasharray:none" /></g><g
       transform="translate(25.512,509.792)"
       id="g4384"><path
         d="M 0,0 0,-52.062"
         id="path4386"
         style="fill:none;stroke:#000000;stroke-width:1.41700006;stroke-linecap:butt;stroke-linejoin:miter;stroke-miterlimit:10;stroke-opacity:1;stroke-dasharray:none" /></g><path
       d="m 341.263,494.631 11,0 0,11 -11,0 0,-11 z"
       id="path4404"
       style="fill:#ffffff;fill-opacity:1;fill-rule:nonzero;stroke:none" /><path
       d="m 341.263,494.631 11,0 0,11 -11,0 0,-11 z"
       id="path4406"
       style="fill:none;stroke:#000000;stroke-width:0.5;stroke-linecap:butt;stroke-linejoin:miter;stroke-miterlimit:10;stroke-opacity:1;stroke-dasharray:none" /><path
       d="m 372.249,494.631 11,0 0,11 -11,0 0,-11 z"
       id="path4412"
       style="fill:#ffffff;fill-opacity:1;fill-rule:nonzero;stroke:none" /><path
       d="m 372.249,494.631 11,0 0,11 -11,0 0,-11 z"
       id="path4414"
       style="fill:none;stroke:#000000;stroke-width:0.5;stroke-linecap:butt;stroke-linejoin:miter;stroke-miterlimit:10;stroke-opacity:1;stroke-dasharray:none" /><text
       transform="matrix(1,0,0,-1,29.229,473.707)"
       id="text4420"><tspan
         x="0"
         y="0"
         id="tspan4422"
         style="font-size:9px;font-variant:normal;font-weight:bold;font-stretch:normal;writing-mode:lr-tb;fill:#00965a;fill-opacity:1;fill-rule:nonzero;stroke:none;font-family:Arial;-inkscape-font-specification:Arial-BoldMT">►</tspan></text>
<g
       transform="translate(24.803,405.434)"
       id="g4430"><path
         d="M 0,0 383.503,0"
         id="path4432"
         style="fill:none;stroke:#000000;stroke-width:0.5;stroke-linecap:butt;stroke-linejoin:miter;stroke-miterlimit:10;stroke-opacity:1;stroke-dasharray:none" /></g><g
       transform="translate(25.512,458.125)"
       id="g4434"><path
         d="M 0,0 0,-52.941"
         id="path4436"
         style="fill:none;stroke:#000000;stroke-width:1.41700006;stroke-linecap:butt;stroke-linejoin:miter;stroke-miterlimit:10;stroke-opacity:1;stroke-dasharray:none" /></g><path
       d="m 341.263,441.66 11,0 0,11 -11,0 0,-11 z"
       id="path4464"
       style="fill:#ffffff;fill-opacity:1;fill-rule:nonzero;stroke:none" /><path
       d="m 341.263,441.66 11,0 0,11 -11,0 0,-11 z"
       id="path4466"
       style="fill:none;stroke:#000000;stroke-width:0.5;stroke-linecap:butt;stroke-linejoin:miter;stroke-miterlimit:10;stroke-opacity:1;stroke-dasharray:none" /><path
       d="m 372.249,441.66 11,0 0,11 -11,0 0,-11 z"
       id="path4472"
       style="fill:#ffffff;fill-opacity:1;fill-rule:nonzero;stroke:none" /><path
       d="m 372.249,441.66 11,0 0,11 -11,0 0,-11 z"
       id="path4474"
       style="fill:none;stroke:#000000;stroke-width:0.5;stroke-linecap:butt;stroke-linejoin:miter;stroke-miterlimit:10;stroke-opacity:1;stroke-dasharray:none" /><g
       transform="translate(269.017,434.546)"
       id="g4480"><path
         d="M 0,0 0,-28.846"
         id="path4482"
         style="fill:none;stroke:#000000;stroke-width:0.5;stroke-linecap:butt;stroke-linejoin:miter;stroke-miterlimit:10;stroke-opacity:1;stroke-dasharray:none" /></g><g
       transform="translate(42.245,434.546)"
       id="g4484"><path
         d="M 0,0 0,-28.846"
         id="path4486"
         style="fill:none;stroke:#000000;stroke-width:0.5;stroke-linecap:butt;stroke-linejoin:miter;stroke-miterlimit:10;stroke-opacity:1;stroke-dasharray:none" /></g><text
       transform="matrix(1,0,0,-1,273.247,422.209)"
       id="text4492"><tspan
         x="0"
         y="0"
         id="tspan4494"
         style="font-size:9px;font-variant:normal;font-weight:bold;font-stretch:normal;writing-mode:lr-tb;fill:#00965a;fill-opacity:1;fill-rule:nonzero;stroke:none;font-family:Arial;-inkscape-font-specification:Arial-BoldMT">►</tspan></text>
<g
       transform="translate(24.803,349.543)"
       id="g4502"><path
         d="M 0,0 383.503,0"
         id="path4504"
         style="fill:none;stroke:#000000;stroke-width:0.5;stroke-linecap:butt;stroke-linejoin:miter;stroke-miterlimit:10;stroke-opacity:1;stroke-dasharray:none" /></g><g
       transform="translate(25.512,405.069)"
       id="g4506"><path
         d="M 0,0 0,-55.776"
         id="path4508"
         style="fill:none;stroke:#000000;stroke-width:1.41700006;stroke-linecap:butt;stroke-linejoin:miter;stroke-miterlimit:10;stroke-opacity:1;stroke-dasharray:none" /></g><path
       d="m 30.965,389.68 11,0 0,11 -11,0 0,-11 z"
       id="path4510"
       style="fill:#ffffff;fill-opacity:1;fill-rule:nonzero;stroke:none" /><path
       d="m 30.965,389.68 11,0 0,11 -11,0 0,-11 z"
       id="path4512"
       style="fill:none;stroke:#000000;stroke-width:0.5;stroke-linecap:butt;stroke-linejoin:miter;stroke-miterlimit:10;stroke-opacity:1;stroke-dasharray:none" /><text
       transform="matrix(1,0,0,-1,29.247,357.412)"
       id="text4548"><tspan
         x="0"
         y="0"
         id="tspan4550"
         style="font-size:9px;font-variant:normal;font-weight:bold;font-stretch:normal;writing-mode:lr-tb;fill:#00965a;fill-opacity:1;fill-rule:nonzero;stroke:none;font-family:Arial;-inkscape-font-specification:Arial-BoldMT">►</tspan></text>
<g
       transform="translate(24.803,286.889)"
       id="g4562"><path
         d="M 0,0 383.503,0"
         id="path4564"
         style="fill:none;stroke:#000000;stroke-width:1.41700006;stroke-linecap:butt;stroke-linejoin:miter;stroke-miterlimit:10;stroke-opacity:1;stroke-dasharray:none" /></g><g
       transform="translate(25.512,349.218)"
       id="g4566"><path
         d="M 0,0 0,-63.038"
         id="path4568"
         style="fill:none;stroke:#000000;stroke-width:1.41700006;stroke-linecap:butt;stroke-linejoin:miter;stroke-miterlimit:10;stroke-opacity:1;stroke-dasharray:none" /></g><path
       d="m 341.263,333.036 11,0 0,11 -11,0 0,-11 z"
       id="path4590"
       style="fill:#ffffff;fill-opacity:1;fill-rule:nonzero;stroke:none" /><path
       d="m 341.263,333.036 11,0 0,11 -11,0 0,-11 z"
       id="path4592"
       style="fill:none;stroke:#000000;stroke-width:0.5;stroke-linecap:butt;stroke-linejoin:miter;stroke-miterlimit:10;stroke-opacity:1;stroke-dasharray:none" /><path
       d="m 372.249,333.036 11,0 0,11 -11,0 0,-11 z"
       id="path4598"
       style="fill:#ffffff;fill-opacity:1;fill-rule:nonzero;stroke:none" /><path
       d="m 372.249,333.036 11,0 0,11 -11,0 0,-11 z"
       id="path4600"
       style="fill:none;stroke:#000000;stroke-width:0.5;stroke-linecap:butt;stroke-linejoin:miter;stroke-miterlimit:10;stroke-opacity:1;stroke-dasharray:none" /><g
       transform="translate(269.017,316.747)"
       id="g4606"><path
         d="M 0,0 0,-28.846"
         id="path4608"
         style="fill:none;stroke:#000000;stroke-width:0.5;stroke-linecap:butt;stroke-linejoin:miter;stroke-miterlimit:10;stroke-opacity:1;stroke-dasharray:none" /></g><g
       transform="translate(42.245,316.747)"
       id="g4610"><path
         d="M 0,0 0,-28.846"
         id="path4612"
         style="fill:none;stroke:#000000;stroke-width:0.5;stroke-linecap:butt;stroke-linejoin:miter;stroke-miterlimit:10;stroke-opacity:1;stroke-dasharray:none" /></g><text
       transform="matrix(1,0,0,-1,273.247,311.781)"
       id="text4618"><tspan
         x="0"
         y="0"
         id="tspan4620"
         style="font-size:9px;font-variant:normal;font-weight:bold;font-stretch:normal;writing-mode:lr-tb;fill:#00965a;fill-opacity:1;fill-rule:nonzero;stroke:none;font-family:Arial;-inkscape-font-specification:Arial-BoldMT">►</tspan></text>
<text
       transform="matrix(1,0,0,-1,24.108,270.009)"
       id="text4630"><tspan
         x="0 5.0040002"
         y="0"
         id="tspan4632"
         style="font-size:9px;font-variant:normal;font-weight:bold;font-stretch:normal;writing-mode:lr-tb;fill:#000000;fill-opacity:1;fill-rule:nonzero;stroke:none;font-family:Arial;-inkscape-font-specification:Arial-BoldMT">2.</tspan></text>
<text
       transform="matrix(1,0,0,-1,23.519,255.221)"
       id="text4640"><tspan
         x="0"
         y="0"
         id="tspan4642"
         style="font-size:9px;font-variant:normal;font-weight:bold;font-stretch:normal;writing-mode:lr-tb;fill:#00965a;fill-opacity:1;fill-rule:nonzero;stroke:none;font-family:Arial;-inkscape-font-specification:Arial-BoldMT">►</tspan></text>
<g
       transform="translate(24.803,227.738)"
       id="g4648"><path
         d="M 0,0 383.503,0"
         id="path4650"
         style="fill:none;stroke:#000000;stroke-width:0.5;stroke-linecap:butt;stroke-linejoin:miter;stroke-miterlimit:10;stroke-opacity:1;stroke-dasharray:none" /></g><g
       transform="translate(25.512,247.689)"
       id="g4652"><path
         d="M 0,0 0,-20.201"
         id="path4654"
         style="fill:none;stroke:#000000;stroke-width:1.41700006;stroke-linecap:butt;stroke-linejoin:miter;stroke-miterlimit:10;stroke-opacity:1;stroke-dasharray:none" /></g><g
       transform="translate(24.803,48.776)"
       id="g4668"><path
         d="M 0,0 383.503,0"
         id="path4670"
         style="fill:none;stroke:#000000;stroke-width:1.41700006;stroke-linecap:butt;stroke-linejoin:miter;stroke-miterlimit:10;stroke-opacity:1;stroke-dasharray:none" /></g><g
       transform="translate(25.512,227.609)"
       id="g4672"><path
         d="M 0,0 0,-179.542"
         id="path4674"
         style="fill:none;stroke:#000000;stroke-width:1.41700006;stroke-linecap:butt;stroke-linejoin:miter;stroke-miterlimit:10;stroke-opacity:1;stroke-dasharray:none" /></g><text
       transform="matrix(1,0,0,-1,29.516,198.062)"
       id="text4680"><tspan
         x="0"
         y="0"
         id="tspan4682"
         style="font-size:9px;font-variant:normal;font-weight:bold;font-stretch:normal;writing-mode:lr-tb;fill:#00965a;fill-opacity:1;fill-rule:nonzero;stroke:none;font-family:Arial;-inkscape-font-specification:Arial-BoldMT">►</tspan></text>
<path
       d="m 30.955,172.049 11,0 0,11 -11,0 0,-11 z"
       id="path4688"
       style="fill:#ffffff;fill-opacity:1;fill-rule:nonzero;stroke:none" /><path
       d="m 30.955,172.049 11,0 0,11 -11,0 0,-11 z"
       id="path4690"
       style="fill:none;stroke:#000000;stroke-width:0.5;stroke-linecap:butt;stroke-linejoin:miter;stroke-miterlimit:10;stroke-opacity:1;stroke-dasharray:none" /><path
       d="m 31.01,146.819 11,0 0,11 -11,0 0,-11 z"
       id="path4722"
       style="fill:#ffffff;fill-opacity:1;fill-rule:nonzero;stroke:none" /><path
       d="m 31.01,146.819 11,0 0,11 -11,0 0,-11 z"
       id="path4724"
       style="fill:none;stroke:#000000;stroke-width:0.5;stroke-linecap:butt;stroke-linejoin:miter;stroke-miterlimit:10;stroke-opacity:1;stroke-dasharray:none" /><path
       d="m 30.955,102.025 11,0 0,11 -11,0 0,-11 z"
       id="path4772"
       style="fill:#ffffff;fill-opacity:1;fill-rule:nonzero;stroke:none" /><path
       d="m 30.955,102.025 11,0 0,11 -11,0 0,-11 z"
       id="path4774"
       style="fill:none;stroke:#000000;stroke-width:0.5;stroke-linecap:butt;stroke-linejoin:miter;stroke-miterlimit:10;stroke-opacity:1;stroke-dasharray:none" /><path
       d="m 30.955,76.708 11,0 0,11 -11,0 0,-11 z"
       id="path4800"
       style="fill:#ffffff;fill-opacity:1;fill-rule:nonzero;stroke:none" /><path
       d="m 30.955,76.708 11,0 0,11 -11,0 0,-11 z"
       id="path4802"
       style="fill:none;stroke:#000000;stroke-width:0.5;stroke-linecap:butt;stroke-linejoin:miter;stroke-miterlimit:10;stroke-opacity:1;stroke-dasharray:none" /><path
       d="m 30.955,55.392 11,0 0,11 -11,0 0,-11 z"
       id="path4816"
       style="fill:#ffffff;fill-opacity:1;fill-rule:nonzero;stroke:none" /><path
       d="m 30.955,55.392 11,0 0,11 -11,0 0,-11 z"
       id="path4818"
       style="fill:none;stroke:#000000;stroke-width:0.5;stroke-linecap:butt;stroke-linejoin:miter;stroke-miterlimit:10;stroke-opacity:1;stroke-dasharray:none" /></g></svg>