<?xml version="1.0" encoding="UTF-8" standalone="no"?>
<!-- Created with Inkscape (http://www.inkscape.org/) -->

<svg
   xmlns:dc="http://purl.org/dc/elements/1.1/"
   xmlns:cc="http://creativecommons.org/ns#"
   xmlns:rdf="http://www.w3.org/1999/02/22-rdf-syntax-ns#"
   xmlns:svg="http://www.w3.org/2000/svg"
   xmlns="http://www.w3.org/2000/svg"
   xmlns:sodipodi="http://sodipodi.sourceforge.net/DTD/sodipodi-0.dtd"
   xmlns:inkscape="http://www.inkscape.org/namespaces/inkscape"
   id="svg6177"
   version="1.1"
   inkscape:version="0.48.5 r10040"
   width="744.095"
   height="1052.3625"
   xml:space="preserve"
   sodipodi:docname="l6019022dstbai378191.pdf"><metadata
     id="metadata6183"><rdf:RDF><cc:Work
         rdf:about=""><dc:format>image/svg+xml</dc:format><dc:type
           rdf:resource="http://purl.org/dc/dcmitype/StillImage" /><dc:title></dc:title></cc:Work></rdf:RDF></metadata><defs
     id="defs6181" /><sodipodi:namedview
     pagecolor="#ffffff"
     bordercolor="#666666"
     borderopacity="1"
     objecttolerance="10"
     gridtolerance="10"
     guidetolerance="10"
     inkscape:pageopacity="0"
     inkscape:pageshadow="2"
     inkscape:window-width="1280"
     inkscape:window-height="780"
     id="namedview6179"
     showgrid="false"
     inkscape:zoom="1.2685909"
     inkscape:cx="466.62103"
     inkscape:cy="955.54631"
     inkscape:window-x="0"
     inkscape:window-y="20"
     inkscape:window-maximized="1"
     inkscape:current-layer="g6185" /><g
     id="g6185"
     inkscape:groupmode="layer"
     inkscape:label="l6019022dstbai378191"
     transform="matrix(1.25,0,0,-1.25,0,1052.3625)"><path
       d="m 438.738,41.811 99.213,0 0,774.567 -99.213,0 0,-774.567 z"
       style="fill:none;stroke:#000000;stroke-opacity:1;stroke-width:1;stroke-linecap:butt;stroke-linejoin:miter;stroke-miterlimit:10;stroke-dasharray:none"
       id="path6199" /><path
       d="m 441.335,751.748 11.055,0 0,11.055 -11.055,0 0,-11.055 z"
       style="fill:none;stroke:#000000;stroke-opacity:1;stroke-width:0.5;stroke-linecap:butt;stroke-linejoin:miter;stroke-miterlimit:10;stroke-dasharray:none"
       id="path6209" /><g
       id="g6211"
       transform="translate(456.063,752.088)"><path
         d="M 0,0 79.968,0"
         style="fill:none;stroke:#000000;stroke-opacity:1;stroke-width:0.5;stroke-linecap:square;stroke-linejoin:miter;stroke-miterlimit:10;stroke-dasharray:none"
         id="path6213" /></g><path
       d="m 441.335,711.686 11.055,0 0,11.055 -11.055,0 0,-11.055 z"
       style="fill:none;stroke:#000000;stroke-opacity:1;stroke-width:0.5;stroke-linecap:butt;stroke-linejoin:miter;stroke-miterlimit:10;stroke-dasharray:none"
       id="path6215" /><path
       d="m 441.335,662.431 11.055,0 0,11.055 -11.055,0 0,-11.055 z"
       style="fill:none;stroke:#000000;stroke-opacity:1;stroke-width:0.5;stroke-linecap:butt;stroke-linejoin:miter;stroke-miterlimit:10;stroke-dasharray:none"
       id="path6221" /><g
       id="g6223"
       transform="translate(456.063,662.771)"><path
         d="M 0,0 79.968,0"
         style="fill:none;stroke:#000000;stroke-opacity:1;stroke-width:0.5;stroke-linecap:square;stroke-linejoin:miter;stroke-miterlimit:10;stroke-dasharray:none"
         id="path6225" /></g><path
       d="m 441.335,557.578 11.055,0 0,11.055 -11.055,0 0,-11.055 z"
       style="fill:none;stroke:#000000;stroke-opacity:1;stroke-width:0.5;stroke-linecap:butt;stroke-linejoin:miter;stroke-miterlimit:10;stroke-dasharray:none"
       id="path6227" /><path
       d="m 441.335,504.598 11.055,0 0,11.055 -11.055,0 0,-11.055 z"
       style="fill:none;stroke:#000000;stroke-opacity:1;stroke-width:0.5;stroke-linecap:butt;stroke-linejoin:miter;stroke-miterlimit:10;stroke-dasharray:none"
       id="path6233" /><path
       d="m 441.335,452.03 11.055,0 0,11.055 -11.055,0 0,-11.055 z"
       style="fill:none;stroke:#000000;stroke-opacity:1;stroke-width:0.5;stroke-linecap:butt;stroke-linejoin:miter;stroke-miterlimit:10;stroke-dasharray:none"
       id="path6239" /><path
       d="m 441.335,389.166 11.055,0 0,11.055 -11.055,0 0,-11.055 z"
       style="fill:none;stroke:#000000;stroke-opacity:1;stroke-width:0.5;stroke-linecap:butt;stroke-linejoin:miter;stroke-miterlimit:10;stroke-dasharray:none"
       id="path6245" /><g
       id="g6247"
       transform="translate(456.063,389.336)"><path
         d="M 0,0 79.685,0"
         style="fill:none;stroke:#000000;stroke-opacity:1;stroke-width:0.5;stroke-linecap:square;stroke-linejoin:miter;stroke-miterlimit:10;stroke-dasharray:none"
         id="path6249" /></g><path
       d="m 441.335,58.68 11.055,0 0,11.055 -11.055,0 0,-11.055 z"
       style="fill:none;stroke:#000000;stroke-opacity:1;stroke-width:0.5;stroke-linecap:butt;stroke-linejoin:miter;stroke-miterlimit:10;stroke-dasharray:none"
       id="path6251" /><path
       d="m 441.335,44.793 11.055,0 0,11.055 -11.055,0 0,-11.055 z"
       style="fill:none;stroke:#000000;stroke-opacity:1;stroke-width:0.5;stroke-linecap:butt;stroke-linejoin:miter;stroke-miterlimit:10;stroke-dasharray:none"
       id="path6257" /><text
       transform="matrix(1,0,0,-1,24.095,798.933)"
       id="text6263"><tspan
         style="font-size:9px;font-variant:normal;font-weight:bold;font-stretch:normal;writing-mode:lr-tb;fill:#000000;fill-opacity:1;fill-rule:nonzero;stroke:none;font-family:Arial;-inkscape-font-specification:Arial-BoldMT"
         x="0 5.0040002 7.506"
         y="0"
         sodipodi:role="line"
         id="tspan6265">1.4</tspan></text>
<g
       id="g6267"
       transform="translate(24.803,751.808)"><path
         d="M 0,0 383.503,0"
         style="fill:none;stroke:#000000;stroke-opacity:1;stroke-width:0.5;stroke-linecap:butt;stroke-linejoin:miter;stroke-miterlimit:10;stroke-dasharray:none"
         id="path6269" /></g><g
       id="g6271"
       transform="translate(25.512,791.743)"><path
         d="M 0,0 0,-40.185"
         style="fill:none;stroke:#000000;stroke-opacity:1;stroke-width:1.417;stroke-linecap:butt;stroke-linejoin:miter;stroke-miterlimit:10;stroke-dasharray:none"
         id="path6273" /></g><path
       d="m 341.263,777.489 11,0 0,11 -11,0 0,-11 z"
       style="fill:#ffffff;fill-opacity:1;fill-rule:nonzero;stroke:none"
       id="path6281" /><path
       d="m 341.263,777.489 11,0 0,11 -11,0 0,-11 z"
       style="fill:none;stroke:#000000;stroke-opacity:1;stroke-width:0.5;stroke-linecap:butt;stroke-linejoin:miter;stroke-miterlimit:10;stroke-dasharray:none"
       id="path6283" /><path
       d="m 372.249,777.489 11,0 0,11 -11,0 0,-11 z"
       style="fill:#ffffff;fill-opacity:1;fill-rule:nonzero;stroke:none"
       id="path6289" /><path
       d="m 372.249,777.489 11,0 0,11 -11,0 0,-11 z"
       style="fill:none;stroke:#000000;stroke-opacity:1;stroke-width:0.5;stroke-linecap:butt;stroke-linejoin:miter;stroke-miterlimit:10;stroke-dasharray:none"
       id="path6291" /><text
       transform="matrix(1,0,0,-1,29.229,756.808)"
       id="text6297"><tspan
         style="fill:#00965a;fill-opacity:1;fill-rule:nonzero;stroke:none;font-family:Arial;font-variant:normal;font-weight:bold;font-stretch:normal;font-size:9;writing-mode:lr;-inkscape-font-specification:Arial-BoldMT"
         x="0"
         y="0"
         id="tspan6299">►</tspan></text>
<g
       id="g6305"
       transform="translate(24.803,711.658)"><path
         d="M 0,0 383.503,0"
         style="fill:none;stroke:#000000;stroke-opacity:1;stroke-width:0.5;stroke-linecap:butt;stroke-linejoin:miter;stroke-miterlimit:10;stroke-dasharray:none"
         id="path6307" /></g><g
       id="g6309"
       transform="translate(25.512,751.593)"><path
         d="M 0,0 0,-40.185"
         style="fill:none;stroke:#000000;stroke-opacity:1;stroke-width:1.417;stroke-linecap:butt;stroke-linejoin:miter;stroke-miterlimit:10;stroke-dasharray:none"
         id="path6311" /></g><g
       id="g6341"
       transform="translate(166.564,731.812)"><g
         id="g6343"
         transform="translate(6.378,0)"><path
           d="m 0,0 c 0,3.522 -2.856,6.378 -6.378,6.378 -3.522,0 -6.378,-2.856 -6.378,-6.378 0,-3.522 2.856,-6.378 6.378,-6.378 C -2.856,-6.378 0,-3.522 0,0"
           style="fill:none;stroke:#00965a;stroke-opacity:1;stroke-width:0.85;stroke-linecap:square;stroke-linejoin:miter;stroke-miterlimit:10;stroke-dasharray:none"
           id="path6345" /></g></g><path
       d="m 341.263,737.339 11,0 0,11 -11,0 0,-11 z"
       style="fill:#ffffff;fill-opacity:1;fill-rule:nonzero;stroke:none"
       id="path6347" /><path
       d="m 341.263,737.339 11,0 0,11 -11,0 0,-11 z"
       style="fill:none;stroke:#000000;stroke-opacity:1;stroke-width:0.5;stroke-linecap:butt;stroke-linejoin:miter;stroke-miterlimit:10;stroke-dasharray:none"
       id="path6349" /><path
       d="m 372.249,737.339 11,0 0,11 -11,0 0,-11 z"
       style="fill:#ffffff;fill-opacity:1;fill-rule:nonzero;stroke:none"
       id="path6355" /><path
       d="m 372.249,737.339 11,0 0,11 -11,0 0,-11 z"
       style="fill:none;stroke:#000000;stroke-opacity:1;stroke-width:0.5;stroke-linecap:butt;stroke-linejoin:miter;stroke-miterlimit:10;stroke-dasharray:none"
       id="path6357" /><text
       transform="matrix(1,0,0,-1,29.229,716.658)"
       id="text6363"><tspan
         style="fill:#00965a;fill-opacity:1;fill-rule:nonzero;stroke:none;font-family:Arial;font-variant:normal;font-weight:bold;font-stretch:normal;font-size:9;writing-mode:lr;-inkscape-font-specification:Arial-BoldMT"
         x="0"
         y="0"
         id="tspan6365">►</tspan></text>
<g
       id="g6371"
       transform="translate(24.803,661.744)"><path
         d="M 0,0 383.503,0"
         style="fill:none;stroke:#000000;stroke-opacity:1;stroke-width:0.5;stroke-linecap:butt;stroke-linejoin:miter;stroke-miterlimit:10;stroke-dasharray:none"
         id="path6373" /></g><g
       id="g6375"
       transform="translate(25.512,711.795)"><path
         d="M 0,0 0,-50.301"
         style="fill:none;stroke:#000000;stroke-opacity:1;stroke-width:1.417;stroke-linecap:butt;stroke-linejoin:miter;stroke-miterlimit:10;stroke-dasharray:none"
         id="path6377" /></g><text
       transform="matrix(1,0,0,-1,58.055,689.577)"
       id="text6399"><tspan
         style="fill:#000000;fill-opacity:1;fill-rule:nonzero;stroke:none;font-family:Arial;font-variant:normal;font-weight:normal;font-stretch:normal;font-size:9;writing-mode:lr;-inkscape-font-specification:ArialMT"
         x="0"
         y="0"
         id="tspan6401">.</tspan></text>
<g
       id="g6403"
       transform="translate(72.509995,692.179)"><g
         id="g6405"
         transform="translate(6.378,0)"><path
           d="m 0,0 c 0,3.522 -2.856,6.378 -6.378,6.378 -3.522,0 -6.378,-2.856 -6.378,-6.378 0,-3.522 2.856,-6.378 6.378,-6.378 C -2.856,-6.378 0,-3.522 0,0"
           style="fill:none;stroke:#00965a;stroke-opacity:1;stroke-width:0.85;stroke-linecap:square;stroke-linejoin:miter;stroke-miterlimit:10;stroke-dasharray:none"
           id="path6407" /></g></g><path
       d="m 341.263,697.541 11,0 0,11 -11,0 0,-11 z"
       style="fill:#ffffff;fill-opacity:1;fill-rule:nonzero;stroke:none"
       id="path6409" /><path
       d="m 341.263,697.541 11,0 0,11 -11,0 0,-11 z"
       style="fill:none;stroke:#000000;stroke-opacity:1;stroke-width:0.5;stroke-linecap:butt;stroke-linejoin:miter;stroke-miterlimit:10;stroke-dasharray:none"
       id="path6411" /><path
       d="m 372.249,697.541 11,0 0,11 -11,0 0,-11 z"
       style="fill:#ffffff;fill-opacity:1;fill-rule:nonzero;stroke:none"
       id="path6417" /><path
       d="m 372.249,697.541 11,0 0,11 -11,0 0,-11 z"
       style="fill:none;stroke:#000000;stroke-opacity:1;stroke-width:0.5;stroke-linecap:butt;stroke-linejoin:miter;stroke-miterlimit:10;stroke-dasharray:none"
       id="path6419" /><text
       transform="matrix(1,0,0,-1,29.229,675.852)"
       id="text6425"><tspan
         style="fill:#00965a;fill-opacity:1;fill-rule:nonzero;stroke:none;font-family:Arial;font-variant:normal;font-weight:bold;font-stretch:normal;font-size:9;writing-mode:lr;-inkscape-font-specification:Arial-BoldMT"
         x="0"
         y="0"
         id="tspan6427">►</tspan></text>
<g
       id="g6435"
       transform="translate(24.803,610.356)"><path
         d="M 0,0 383.503,0"
         style="fill:none;stroke:#000000;stroke-opacity:1;stroke-width:0.5;stroke-linecap:butt;stroke-linejoin:miter;stroke-miterlimit:10;stroke-dasharray:none"
         id="path6437" /></g><g
       id="g6439"
       transform="translate(25.512,662.168)"><path
         d="M 0,0 0,-52.062"
         style="fill:none;stroke:#000000;stroke-opacity:1;stroke-width:1.417;stroke-linecap:butt;stroke-linejoin:miter;stroke-miterlimit:10;stroke-dasharray:none"
         id="path6441" /></g><g
       id="g6465"
       transform="translate(298.715,641.679)"><g
         id="g6467"
         transform="translate(6.378,0)"><path
           d="m 0,0 c 0,3.522 -2.856,6.378 -6.378,6.378 -3.522,0 -6.378,-2.856 -6.378,-6.378 0,-3.522 2.856,-6.378 6.378,-6.378 C -2.856,-6.378 0,-3.522 0,0"
           style="fill:none;stroke:#00965a;stroke-opacity:1;stroke-width:0.85;stroke-linecap:square;stroke-linejoin:miter;stroke-miterlimit:10;stroke-dasharray:none"
           id="path6469" /></g></g><path
       d="m 341.263,647.007 11,0 0,11 -11,0 0,-11 z"
       style="fill:#ffffff;fill-opacity:1;fill-rule:nonzero;stroke:none"
       id="path6471" /><path
       d="m 341.263,647.007 11,0 0,11 -11,0 0,-11 z"
       style="fill:none;stroke:#000000;stroke-opacity:1;stroke-width:0.5;stroke-linecap:butt;stroke-linejoin:miter;stroke-miterlimit:10;stroke-dasharray:none"
       id="path6473" /><path
       d="m 372.249,647.007 11,0 0,11 -11,0 0,-11 z"
       style="fill:#ffffff;fill-opacity:1;fill-rule:nonzero;stroke:none"
       id="path6479" /><path
       d="m 372.249,647.007 11,0 0,11 -11,0 0,-11 z"
       style="fill:none;stroke:#000000;stroke-opacity:1;stroke-width:0.5;stroke-linecap:butt;stroke-linejoin:miter;stroke-miterlimit:10;stroke-dasharray:none"
       id="path6481" /><text
       transform="matrix(1,0,0,-1,29.229,626.083)"
       id="text6487"><tspan
         style="fill:#00965a;fill-opacity:1;fill-rule:nonzero;stroke:none;font-family:Arial;font-variant:normal;font-weight:bold;font-stretch:normal;font-size:9;writing-mode:lr;-inkscape-font-specification:Arial-BoldMT"
         x="0"
         y="0"
         id="tspan6489">►</tspan></text>
<g
       id="g6497"
       transform="translate(24.803,557.315)"><path
         d="M 0,0 383.503,0"
         style="fill:none;stroke:#000000;stroke-opacity:1;stroke-width:0.5;stroke-linecap:butt;stroke-linejoin:miter;stroke-miterlimit:10;stroke-dasharray:none"
         id="path6499" /></g><g
       id="g6501"
       transform="translate(25.512,611.882)"><path
         d="M 0,0 0,-54.817"
         style="fill:none;stroke:#000000;stroke-opacity:1;stroke-width:1.417;stroke-linecap:butt;stroke-linejoin:miter;stroke-miterlimit:10;stroke-dasharray:none"
         id="path6503" /></g><g
       id="g6525"
       transform="translate(150.80299,599.5)"><g
         id="g6527"
         transform="translate(6.378,0)"><path
           d="m 0,0 c 0,3.522 -2.856,6.378 -6.378,6.378 -3.522,0 -6.378,-2.856 -6.378,-6.378 0,-3.522 2.856,-6.378 6.378,-6.378 C -2.856,-6.378 0,-3.522 0,0"
           style="fill:none;stroke:#00965a;stroke-opacity:1;stroke-width:0.85;stroke-linecap:square;stroke-linejoin:miter;stroke-miterlimit:10;stroke-dasharray:none"
           id="path6529" /></g></g><path
       d="m 341.263,593.54 11,0 0,11 -11,0 0,-11 z"
       style="fill:#ffffff;fill-opacity:1;fill-rule:nonzero;stroke:none"
       id="path6531" /><path
       d="m 341.263,593.54 11,0 0,11 -11,0 0,-11 z"
       style="fill:none;stroke:#000000;stroke-opacity:1;stroke-width:0.5;stroke-linecap:butt;stroke-linejoin:miter;stroke-miterlimit:10;stroke-dasharray:none"
       id="path6533" /><path
       d="m 372.249,593.54 11,0 0,11 -11,0 0,-11 z"
       style="fill:#ffffff;fill-opacity:1;fill-rule:nonzero;stroke:none"
       id="path6539" /><path
       d="m 372.249,593.54 11,0 0,11 -11,0 0,-11 z"
       style="fill:none;stroke:#000000;stroke-opacity:1;stroke-width:0.5;stroke-linecap:butt;stroke-linejoin:miter;stroke-miterlimit:10;stroke-dasharray:none"
       id="path6541" /><g
       id="g6547"
       transform="translate(269.017,586.427)"><path
         d="M 0,0 0,-28.846"
         style="fill:none;stroke:#000000;stroke-opacity:1;stroke-width:0.5;stroke-linecap:butt;stroke-linejoin:miter;stroke-miterlimit:10;stroke-dasharray:none"
         id="path6549" /></g><g
       id="g6551"
       transform="translate(42.245,586.427)"><path
         d="M 0,0 0,-28.846"
         style="fill:none;stroke:#000000;stroke-opacity:1;stroke-width:0.5;stroke-linecap:butt;stroke-linejoin:miter;stroke-miterlimit:10;stroke-dasharray:none"
         id="path6553" /></g><text
       transform="matrix(1,0,0,-1,273.247,579.247)"
       id="text6559"><tspan
         style="fill:#00965a;fill-opacity:1;fill-rule:nonzero;stroke:none;font-family:Arial;font-variant:normal;font-weight:bold;font-stretch:normal;font-size:9;writing-mode:lr;-inkscape-font-specification:Arial-BoldMT"
         x="0"
         y="0"
         id="tspan6561">►</tspan></text>
<g
       id="g6569"
       transform="translate(24.803,504.627)"><path
         d="M 0,0 383.503,0"
         style="fill:none;stroke:#000000;stroke-opacity:1;stroke-width:0.5;stroke-linecap:butt;stroke-linejoin:miter;stroke-miterlimit:10;stroke-dasharray:none"
         id="path6571" /></g><g
       id="g6573"
       transform="translate(25.512,557.318)"><path
         d="M 0,0 0,-52.941"
         style="fill:none;stroke:#000000;stroke-opacity:1;stroke-width:1.417;stroke-linecap:butt;stroke-linejoin:miter;stroke-miterlimit:10;stroke-dasharray:none"
         id="path6575" /></g><g
       id="g6597"
       transform="translate(151.427,546.577)"><g
         id="g6599"
         transform="translate(6.378,0)"><path
           d="m 0,0 c 0,3.522 -2.856,6.378 -6.378,6.378 -3.522,0 -6.378,-2.856 -6.378,-6.378 0,-3.522 2.856,-6.378 6.378,-6.378 C -2.856,-6.378 0,-3.522 0,0"
           style="fill:none;stroke:#00965a;stroke-opacity:1;stroke-width:0.85;stroke-linecap:square;stroke-linejoin:miter;stroke-miterlimit:10;stroke-dasharray:none"
           id="path6601" /></g></g><path
       d="m 341.263,540.853 11,0 0,11 -11,0 0,-11 z"
       style="fill:#ffffff;fill-opacity:1;fill-rule:nonzero;stroke:none"
       id="path6603" /><path
       d="m 341.263,540.853 11,0 0,11 -11,0 0,-11 z"
       style="fill:none;stroke:#000000;stroke-opacity:1;stroke-width:0.5;stroke-linecap:butt;stroke-linejoin:miter;stroke-miterlimit:10;stroke-dasharray:none"
       id="path6605" /><path
       d="m 372.249,540.853 11,0 0,11 -11,0 0,-11 z"
       style="fill:#ffffff;fill-opacity:1;fill-rule:nonzero;stroke:none"
       id="path6611" /><path
       d="m 372.249,540.853 11,0 0,11 -11,0 0,-11 z"
       style="fill:none;stroke:#000000;stroke-opacity:1;stroke-width:0.5;stroke-linecap:butt;stroke-linejoin:miter;stroke-miterlimit:10;stroke-dasharray:none"
       id="path6613" /><g
       id="g6619"
       transform="translate(269.017,533.739)"><path
         d="M 0,0 0,-28.846"
         style="fill:none;stroke:#000000;stroke-opacity:1;stroke-width:0.5;stroke-linecap:butt;stroke-linejoin:miter;stroke-miterlimit:10;stroke-dasharray:none"
         id="path6621" /></g><g
       id="g6623"
       transform="translate(42.245,533.739)"><path
         d="M 0,0 0,-28.846"
         style="fill:none;stroke:#000000;stroke-opacity:1;stroke-width:0.5;stroke-linecap:butt;stroke-linejoin:miter;stroke-miterlimit:10;stroke-dasharray:none"
         id="path6625" /></g><text
       transform="matrix(1,0,0,-1,273.247,526.559)"
       id="text6631"><tspan
         style="fill:#00965a;fill-opacity:1;fill-rule:nonzero;stroke:none;font-family:Arial;font-variant:normal;font-weight:bold;font-stretch:normal;font-size:9;writing-mode:lr;-inkscape-font-specification:Arial-BoldMT"
         x="0"
         y="0"
         id="tspan6633">►</tspan></text>
<g
       id="g6641"
       transform="translate(24.803,451.865)"><path
         d="M 0,0 383.503,0"
         style="fill:none;stroke:#000000;stroke-opacity:1;stroke-width:0.5;stroke-linecap:butt;stroke-linejoin:miter;stroke-miterlimit:10;stroke-dasharray:none"
         id="path6643" /></g><g
       id="g6645"
       transform="translate(25.512,504.556)"><path
         d="M 0,0 0,-52.941"
         style="fill:none;stroke:#000000;stroke-opacity:1;stroke-width:1.417;stroke-linecap:butt;stroke-linejoin:miter;stroke-miterlimit:10;stroke-dasharray:none"
         id="path6647" /></g><g
       id="g6669"
       transform="translate(208.687,493.98199)"><g
         id="g6671"
         transform="translate(6.378,0)"><path
           d="m 0,0 c 0,3.522 -2.856,6.378 -6.378,6.378 -3.522,0 -6.378,-2.856 -6.378,-6.378 0,-3.522 2.856,-6.378 6.378,-6.378 C -2.856,-6.378 0,-3.522 0,0"
           style="fill:none;stroke:#00965a;stroke-opacity:1;stroke-width:0.85;stroke-linecap:square;stroke-linejoin:miter;stroke-miterlimit:10;stroke-dasharray:none"
           id="path6673" /></g></g><path
       d="m 341.263,488.091 11,0 0,11 -11,0 0,-11 z"
       style="fill:#ffffff;fill-opacity:1;fill-rule:nonzero;stroke:none"
       id="path6675" /><path
       d="m 341.263,488.091 11,0 0,11 -11,0 0,-11 z"
       style="fill:none;stroke:#000000;stroke-opacity:1;stroke-width:0.5;stroke-linecap:butt;stroke-linejoin:miter;stroke-miterlimit:10;stroke-dasharray:none"
       id="path6677" /><path
       d="m 372.249,488.091 11,0 0,11 -11,0 0,-11 z"
       style="fill:#ffffff;fill-opacity:1;fill-rule:nonzero;stroke:none"
       id="path6683" /><path
       d="m 372.249,488.091 11,0 0,11 -11,0 0,-11 z"
       style="fill:none;stroke:#000000;stroke-opacity:1;stroke-width:0.5;stroke-linecap:butt;stroke-linejoin:miter;stroke-miterlimit:10;stroke-dasharray:none"
       id="path6685" /><g
       id="g6691"
       transform="translate(269.017,480.977)"><path
         d="M 0,0 0,-28.846"
         style="fill:none;stroke:#000000;stroke-opacity:1;stroke-width:0.5;stroke-linecap:butt;stroke-linejoin:miter;stroke-miterlimit:10;stroke-dasharray:none"
         id="path6693" /></g><g
       id="g6695"
       transform="translate(42.245,480.977)"><path
         d="M 0,0 0,-28.846"
         style="fill:none;stroke:#000000;stroke-opacity:1;stroke-width:0.5;stroke-linecap:butt;stroke-linejoin:miter;stroke-miterlimit:10;stroke-dasharray:none"
         id="path6697" /></g><text
       transform="matrix(1,0,0,-1,273.247,473.797)"
       id="text6703"><tspan
         style="fill:#00965a;fill-opacity:1;fill-rule:nonzero;stroke:none;font-family:Arial;font-variant:normal;font-weight:bold;font-stretch:normal;font-size:9;writing-mode:lr;-inkscape-font-specification:Arial-BoldMT"
         x="0"
         y="0"
         id="tspan6705">►</tspan></text>
<g
       id="g6713"
       transform="translate(24.803,389.05)"><path
         d="M 0,0 383.503,0"
         style="fill:none;stroke:#000000;stroke-opacity:1;stroke-width:1.417;stroke-linecap:butt;stroke-linejoin:miter;stroke-miterlimit:10;stroke-dasharray:none"
         id="path6715" /></g><g
       id="g6717"
       transform="translate(25.512,451.662)"><path
         d="M 0,0 0,-63.321"
         style="fill:none;stroke:#000000;stroke-opacity:1;stroke-width:1.417;stroke-linecap:butt;stroke-linejoin:miter;stroke-miterlimit:10;stroke-dasharray:none"
         id="path6719" /></g><g
       id="g6735"
       transform="translate(294.44299,429.72099)"><g
         id="g6737"
         transform="translate(6.378,0)"><path
           d="m 0,0 c 0,3.522 -2.856,6.378 -6.378,6.378 -3.522,0 -6.378,-2.856 -6.378,-6.378 0,-3.522 2.856,-6.378 6.378,-6.378 C -2.856,-6.378 0,-3.522 0,0"
           style="fill:none;stroke:#00965a;stroke-opacity:1;stroke-width:0.85;stroke-linecap:square;stroke-linejoin:miter;stroke-miterlimit:10;stroke-dasharray:none"
           id="path6739" /></g></g><path
       d="m 341.263,435.197 11,0 0,11 -11,0 0,-11 z"
       style="fill:#ffffff;fill-opacity:1;fill-rule:nonzero;stroke:none"
       id="path6741" /><path
       d="m 341.263,435.197 11,0 0,11 -11,0 0,-11 z"
       style="fill:none;stroke:#000000;stroke-opacity:1;stroke-width:0.5;stroke-linecap:butt;stroke-linejoin:miter;stroke-miterlimit:10;stroke-dasharray:none"
       id="path6743" /><path
       d="m 372.249,435.197 11,0 0,11 -11,0 0,-11 z"
       style="fill:#ffffff;fill-opacity:1;fill-rule:nonzero;stroke:none"
       id="path6749" /><path
       d="m 372.249,435.197 11,0 0,11 -11,0 0,-11 z"
       style="fill:none;stroke:#000000;stroke-opacity:1;stroke-width:0.5;stroke-linecap:butt;stroke-linejoin:miter;stroke-miterlimit:10;stroke-dasharray:none"
       id="path6751" /><g
       id="g6757"
       transform="translate(269.017,418.454)"><path
         d="M 0,0 0,-28.846"
         style="fill:none;stroke:#000000;stroke-opacity:1;stroke-width:0.5;stroke-linecap:butt;stroke-linejoin:miter;stroke-miterlimit:10;stroke-dasharray:none"
         id="path6759" /></g><g
       id="g6761"
       transform="translate(42.245,418.454)"><path
         d="M 0,0 0,-28.846"
         style="fill:none;stroke:#000000;stroke-opacity:1;stroke-width:0.5;stroke-linecap:butt;stroke-linejoin:miter;stroke-miterlimit:10;stroke-dasharray:none"
         id="path6763" /></g><text
       transform="matrix(1,0,0,-1,273.247,411.274)"
       id="text6769"><tspan
         style="fill:#00965a;fill-opacity:1;fill-rule:nonzero;stroke:none;font-family:Arial;font-variant:normal;font-weight:bold;font-stretch:normal;font-size:9;writing-mode:lr;-inkscape-font-specification:Arial-BoldMT"
         x="0"
         y="0"
         id="tspan6771">►</tspan></text>
<text
       transform="matrix(1,0,0,-1,24.108,375.4)"
       id="text6779"><tspan
         style="font-size:9px;font-variant:normal;font-weight:bold;font-stretch:normal;writing-mode:lr-tb;fill:#000000;fill-opacity:1;fill-rule:nonzero;stroke:none;font-family:Arial;-inkscape-font-specification:Arial-BoldMT"
         x="0 5.0040002"
         y="0"
         sodipodi:role="line"
         id="tspan6781">2.</tspan></text>
<g
       id="g6783"
       transform="translate(226.698,378.26401)"><g
         id="g6785"
         transform="translate(6.378,0)"><path
           d="m 0,0 c 0,3.522 -2.856,6.378 -6.378,6.378 -3.522,0 -6.378,-2.856 -6.378,-6.378 0,-3.522 2.856,-6.378 6.378,-6.378 C -2.856,-6.378 0,-3.522 0,0"
           style="fill:none;stroke:#00965a;stroke-opacity:1;stroke-width:0.85;stroke-linecap:square;stroke-linejoin:miter;stroke-miterlimit:10;stroke-dasharray:none"
           id="path6787" /></g></g><text
       transform="matrix(1,0,0,-1,23.519,363.561)"
       id="text6789"><tspan
         style="fill:#00965a;fill-opacity:1;fill-rule:nonzero;stroke:none;font-family:Arial;font-variant:normal;font-weight:bold;font-stretch:normal;font-size:9;writing-mode:lr;-inkscape-font-specification:Arial-BoldMT"
         x="0"
         y="0"
         id="tspan6791">►</tspan></text>
<g
       id="g6797"
       transform="translate(24.803,338.29)"><path
         d="M 0,0 383.503,0"
         style="fill:none;stroke:#000000;stroke-opacity:1;stroke-width:0.5;stroke-linecap:butt;stroke-linejoin:miter;stroke-miterlimit:10;stroke-dasharray:none"
         id="path6799" /></g><g
       id="g6801"
       transform="translate(25.512,358.241)"><path
         d="M 0,0 0,-20.201"
         style="fill:none;stroke:#000000;stroke-opacity:1;stroke-width:1.417;stroke-linecap:butt;stroke-linejoin:miter;stroke-miterlimit:10;stroke-dasharray:none"
         id="path6803" /></g><g
       id="g6817"
       transform="translate(24.803,167.633)"><path
         d="M 0,0 383.503,0"
         style="fill:none;stroke:#000000;stroke-opacity:1;stroke-width:1.417;stroke-linecap:butt;stroke-linejoin:miter;stroke-miterlimit:10;stroke-dasharray:none"
         id="path6819" /></g><g
       id="g6821"
       transform="translate(25.512,338.16)"><path
         d="M 0,0 0,-171.236"
         style="fill:none;stroke:#000000;stroke-opacity:1;stroke-width:1.417;stroke-linecap:butt;stroke-linejoin:miter;stroke-miterlimit:10;stroke-dasharray:none"
         id="path6823" /></g><text
       transform="matrix(1,0,0,-1,29.516,308.616)"
       id="text6829"><tspan
         style="fill:#00965a;fill-opacity:1;fill-rule:nonzero;stroke:none;font-family:Arial;font-variant:normal;font-weight:bold;font-stretch:normal;font-size:9;writing-mode:lr;-inkscape-font-specification:Arial-BoldMT"
         x="0"
         y="0"
         id="tspan6831">►</tspan></text>
<path
       d="m 30.955,287.022 11,0 0,11 -11,0 0,-11 z"
       style="fill:#ffffff;fill-opacity:1;fill-rule:nonzero;stroke:none"
       id="path6837" /><path
       d="m 30.955,287.022 11,0 0,11 -11,0 0,-11 z"
       style="fill:none;stroke:#000000;stroke-opacity:1;stroke-width:0.5;stroke-linecap:butt;stroke-linejoin:miter;stroke-miterlimit:10;stroke-dasharray:none"
       id="path6839" /><path
       d="m 31.01,262.529 11,0 0,11 -11,0 0,-11 z"
       style="fill:#ffffff;fill-opacity:1;fill-rule:nonzero;stroke:none"
       id="path6871" /><path
       d="m 31.01,262.529 11,0 0,11 -11,0 0,-11 z"
       style="fill:none;stroke:#000000;stroke-opacity:1;stroke-width:0.5;stroke-linecap:butt;stroke-linejoin:miter;stroke-miterlimit:10;stroke-dasharray:none"
       id="path6873" /><path
       d="m 30.955,216.261 11,0 0,11 -11,0 0,-11 z"
       style="fill:#ffffff;fill-opacity:1;fill-rule:nonzero;stroke:none"
       id="path6921" /><path
       d="m 30.955,216.261 11,0 0,11 -11,0 0,-11 z"
       style="fill:none;stroke:#000000;stroke-opacity:1;stroke-width:0.5;stroke-linecap:butt;stroke-linejoin:miter;stroke-miterlimit:10;stroke-dasharray:none"
       id="path6923" /><g
       id="g6943"
       transform="translate(260.711,215.765)"><g
         id="g6945"
         transform="translate(6.378,0)"><path
           d="m 0,0 c 0,3.522 -2.856,6.378 -6.378,6.378 -3.522,0 -6.378,-2.856 -6.378,-6.378 0,-3.522 2.856,-6.378 6.378,-6.378 C -2.856,-6.378 0,-3.522 0,0"
           style="fill:none;stroke:#00965a;stroke-opacity:1;stroke-width:0.85;stroke-linecap:square;stroke-linejoin:miter;stroke-miterlimit:10;stroke-dasharray:none"
           id="path6947" /></g></g><path
       d="m 30.955,191.681 11,0 0,11 -11,0 0,-11 z"
       style="fill:#ffffff;fill-opacity:1;fill-rule:nonzero;stroke:none"
       id="path6949" /><path
       d="m 30.955,191.681 11,0 0,11 -11,0 0,-11 z"
       style="fill:none;stroke:#000000;stroke-opacity:1;stroke-width:0.5;stroke-linecap:butt;stroke-linejoin:miter;stroke-miterlimit:10;stroke-dasharray:none"
       id="path6951" /><path
       d="m 30.955,172.576 11,0 0,11 -11,0 0,-11 z"
       style="fill:#ffffff;fill-opacity:1;fill-rule:nonzero;stroke:none"
       id="path6957" /><path
       d="m 30.955,172.576 11,0 0,11 -11,0 0,-11 z"
       style="fill:none;stroke:#000000;stroke-opacity:1;stroke-width:0.5;stroke-linecap:butt;stroke-linejoin:miter;stroke-miterlimit:10;stroke-dasharray:none"
       id="path6959" /><text
       transform="matrix(1,0,0,-1,24.095,154.289)"
       id="text6965"><tspan
         style="font-size:9px;font-variant:normal;font-weight:bold;font-stretch:normal;writing-mode:lr-tb;fill:#000000;fill-opacity:1;fill-rule:nonzero;stroke:none;font-family:Arial;-inkscape-font-specification:Arial-BoldMT"
         x="0 5.0040002 7.506"
         y="0"
         sodipodi:role="line"
         id="tspan6967">2.1</tspan></text>
<text
       transform="matrix(1,0,0,-1,23.231,142.643)"
       id="text6969"><tspan
         style="fill:#00965a;fill-opacity:1;fill-rule:nonzero;stroke:none;font-family:Arial;font-variant:normal;font-weight:bold;font-stretch:normal;font-size:9;writing-mode:lr;-inkscape-font-specification:Arial-BoldMT"
         x="0"
         y="0"
         id="tspan6971">►</tspan></text>
<g
       id="g7005"
       transform="translate(24.803,41.999)"><path
         d="M 0,0 383.503,0"
         style="fill:none;stroke:#000000;stroke-opacity:1;stroke-width:1.417;stroke-linecap:butt;stroke-linejoin:miter;stroke-miterlimit:10;stroke-dasharray:none"
         id="path7007" /></g><g
       id="g7009"
       transform="translate(25.512,73.43)"><path
         d="M 0,0 0,-32.14"
         style="fill:none;stroke:#000000;stroke-opacity:1;stroke-width:1.417;stroke-linecap:butt;stroke-linejoin:miter;stroke-miterlimit:10;stroke-dasharray:none"
         id="path7011" /></g><path
       d="m 30.955,58.355 11,0 0,11 -11,0 0,-11 z"
       style="fill:#ffffff;fill-opacity:1;fill-rule:nonzero;stroke:none"
       id="path7013" /><path
       d="m 30.955,58.355 11,0 0,11 -11,0 0,-11 z"
       style="fill:none;stroke:#000000;stroke-opacity:1;stroke-width:0.5;stroke-linecap:butt;stroke-linejoin:miter;stroke-miterlimit:10;stroke-dasharray:none"
       id="path7015" /></g></svg>