<?xml version="1.0" encoding="UTF-8" standalone="no"?>
<!-- Created with Inkscape (http://www.inkscape.org/) -->

<svg
   xmlns:dc="http://purl.org/dc/elements/1.1/"
   xmlns:cc="http://creativecommons.org/ns#"
   xmlns:rdf="http://www.w3.org/1999/02/22-rdf-syntax-ns#"
   xmlns:svg="http://www.w3.org/2000/svg"
   xmlns="http://www.w3.org/2000/svg"
   version="1.1"
   width="744.09497"
   height="1052.3625"
   id="svg2"
   xml:space="preserve"><metadata
     id="metadata8"><rdf:RDF><cc:Work
         rdf:about=""><dc:format>image/svg+xml</dc:format><dc:type
           rdf:resource="http://purl.org/dc/dcmitype/StillImage" /><dc:title></dc:title></cc:Work></rdf:RDF></metadata><defs
     id="defs6" /><g
     transform="matrix(1.25,0,0,-1.25,0,1052.3625)"
     id="g10"><path
       d="m 483.874,48.983 98.646,0 0,748.624 -98.646,0 0,-748.624 z"
       id="path24"
       style="fill:none;stroke:#000000;stroke-width:1;stroke-linecap:butt;stroke-linejoin:miter;stroke-miterlimit:10;stroke-opacity:1;stroke-dasharray:none" /><path
       d="m 486.471,694.318 11.055,0 0,11.055 -11.055,0 0,-11.055 z"
       id="path34"
       style="fill:none;stroke:#000000;stroke-width:0.5;stroke-linecap:butt;stroke-linejoin:miter;stroke-miterlimit:10;stroke-opacity:1;stroke-dasharray:none" /><path
       d="m 486.471,680.431 11.055,0 0,11.055 -11.055,0 0,-11.055 z"
       id="path40"
       style="fill:none;stroke:#000000;stroke-width:0.5;stroke-linecap:butt;stroke-linejoin:miter;stroke-miterlimit:10;stroke-opacity:1;stroke-dasharray:none" /><path
       d="m 486.471,597.362 11.055,0 0,11.055 -11.055,0 0,-11.055 z"
       id="path46"
       style="fill:none;stroke:#000000;stroke-width:0.5;stroke-linecap:butt;stroke-linejoin:miter;stroke-miterlimit:10;stroke-opacity:1;stroke-dasharray:none" /><path
       d="m 486.471,571.567 11.055,0 0,11.055 -11.055,0 0,-11.055 z"
       id="path52"
       style="fill:none;stroke:#000000;stroke-width:0.5;stroke-linecap:butt;stroke-linejoin:miter;stroke-miterlimit:10;stroke-opacity:1;stroke-dasharray:none" /><path
       d="m 486.471,492.378 11.055,0 0,11.055 -11.055,0 0,-11.055 z"
       id="path58"
       style="fill:none;stroke:#000000;stroke-width:0.5;stroke-linecap:butt;stroke-linejoin:miter;stroke-miterlimit:10;stroke-opacity:1;stroke-dasharray:none" /><g
       transform="translate(501.199,492.548)"
       id="g60"><path
         d="M 0,0 79.685,0"
         id="path62"
         style="fill:none;stroke:#000000;stroke-width:0.5;stroke-linecap:square;stroke-linejoin:miter;stroke-miterlimit:10;stroke-opacity:1;stroke-dasharray:none" /></g><path
       d="m 486.471,460.069 11.055,0 0,11.055 -11.055,0 0,-11.055 z"
       id="path64"
       style="fill:none;stroke:#000000;stroke-width:0.5;stroke-linecap:butt;stroke-linejoin:miter;stroke-miterlimit:10;stroke-opacity:1;stroke-dasharray:none" /><path
       d="m 486.471,374.003 11.055,0 0,11.055 -11.055,0 0,-11.055 z"
       id="path70"
       style="fill:none;stroke:#000000;stroke-width:0.5;stroke-linecap:butt;stroke-linejoin:miter;stroke-miterlimit:10;stroke-opacity:1;stroke-dasharray:none" /><g
       transform="translate(501.199,374.173)"
       id="g72"><path
         d="M 0,0 79.685,0"
         id="path74"
         style="fill:none;stroke:#000000;stroke-width:0.5;stroke-linecap:square;stroke-linejoin:miter;stroke-miterlimit:10;stroke-opacity:1;stroke-dasharray:none" /></g><path
       d="m 486.471,333.808 11.055,0 0,11.055 -11.055,0 0,-11.055 z"
       id="path76"
       style="fill:none;stroke:#000000;stroke-width:0.5;stroke-linecap:butt;stroke-linejoin:miter;stroke-miterlimit:10;stroke-opacity:1;stroke-dasharray:none" /><g
       transform="translate(501.199,333.978)"
       id="g78"><path
         d="M 0,0 79.685,0"
         id="path80"
         style="fill:none;stroke:#000000;stroke-width:0.5;stroke-linecap:square;stroke-linejoin:miter;stroke-miterlimit:10;stroke-opacity:1;stroke-dasharray:none" /></g><path
       d="m 486.471,276.664 11.055,0 0,11.055 -11.055,0 0,-11.055 z"
       id="path82"
       style="fill:none;stroke:#000000;stroke-width:0.5;stroke-linecap:butt;stroke-linejoin:miter;stroke-miterlimit:10;stroke-opacity:1;stroke-dasharray:none" /><path
       d="m 486.471,218.214 11.055,0 0,11.055 -11.055,0 0,-11.055 z"
       id="path88"
       style="fill:none;stroke:#000000;stroke-width:0.5;stroke-linecap:butt;stroke-linejoin:miter;stroke-miterlimit:10;stroke-opacity:1;stroke-dasharray:none" /><path
       d="m 486.471,205.118 11.055,0 0,11.055 -11.055,0 0,-11.055 z"
       id="path94"
       style="fill:none;stroke:#000000;stroke-width:0.5;stroke-linecap:butt;stroke-linejoin:miter;stroke-miterlimit:10;stroke-opacity:1;stroke-dasharray:none" /><path
       d="m 486.471,145.023 11.055,0 0,11.055 -11.055,0 0,-11.055 z"
       id="path100"
       style="fill:none;stroke:#000000;stroke-width:0.5;stroke-linecap:butt;stroke-linejoin:miter;stroke-miterlimit:10;stroke-opacity:1;stroke-dasharray:none" /><text
       transform="matrix(1,0,0,-1,70.311,797.158)"
       id="text106"><tspan
         x="0 5.0040002 7.506"
         y="0"
         id="tspan108"
         style="font-size:9px;font-variant:normal;font-weight:bold;font-stretch:normal;writing-mode:lr-tb;fill:#000000;fill-opacity:1;fill-rule:nonzero;stroke:none;font-family:Arial;-inkscape-font-specification:Arial-BoldMT">2.1</tspan></text>
<text
       transform="matrix(1,0,0,-1,69.744,785.404)"
       id="text110"><tspan
         x="0"
         y="0"
         id="tspan112"
         style="font-size:9px;font-variant:normal;font-weight:bold;font-stretch:normal;writing-mode:lr-tb;fill:#00965a;fill-opacity:1;fill-rule:nonzero;stroke:none;font-family:Arial;-inkscape-font-specification:Arial-BoldMT">►</tspan></text>
<g
       transform="translate(70.685,680.302)"
       id="g162"><path
         d="M 0,0 383.503,0"
         id="path164"
         style="fill:none;stroke:#000000;stroke-width:1.41700006;stroke-linecap:butt;stroke-linejoin:miter;stroke-miterlimit:10;stroke-opacity:1;stroke-dasharray:none" /></g><g
       transform="translate(71.394,704.646)"
       id="g166"><path
         d="M 0,0 0,-25.053"
         id="path168"
         style="fill:none;stroke:#000000;stroke-width:1.41700006;stroke-linecap:butt;stroke-linejoin:miter;stroke-miterlimit:10;stroke-opacity:1;stroke-dasharray:none" /></g><path
       d="m 76.837,687.36 11,0 0,11 -11,0 0,-11 z"
       id="path170"
       style="fill:#ffffff;fill-opacity:1;fill-rule:nonzero;stroke:none" /><path
       d="m 76.837,687.36 11,0 0,11 -11,0 0,-11 z"
       id="path172"
       style="fill:none;stroke:#000000;stroke-width:0.5;stroke-linecap:butt;stroke-linejoin:miter;stroke-miterlimit:10;stroke-opacity:1;stroke-dasharray:none" /><text
       transform="matrix(1,0,0,-1,70.306,665.484)"
       id="text202"><tspan
         x="0 5.0040002 7.506"
         y="0"
         id="tspan204"
         style="font-size:9px;font-variant:normal;font-weight:bold;font-stretch:normal;writing-mode:lr-tb;fill:#000000;fill-opacity:1;fill-rule:nonzero;stroke:none;font-family:Arial;-inkscape-font-specification:Arial-BoldMT">2.2</tspan></text>
<g
       transform="translate(70.685,567.938)"
       id="g212"><path
         d="M 0,0 383.503,0"
         id="path214"
         style="fill:none;stroke:#000000;stroke-width:1.41700006;stroke-linecap:butt;stroke-linejoin:miter;stroke-miterlimit:10;stroke-opacity:1;stroke-dasharray:none" /></g><g
       transform="translate(71.394,660.031)"
       id="g216"><path
         d="M 0,0 0,-92.802"
         id="path218"
         style="fill:none;stroke:#000000;stroke-width:1.41700006;stroke-linecap:butt;stroke-linejoin:miter;stroke-miterlimit:10;stroke-opacity:1;stroke-dasharray:none" /></g><path
       d="m 76.837,622.327 11,0 0,11 -11,0 0,-11 z"
       id="path238"
       style="fill:#ffffff;fill-opacity:1;fill-rule:nonzero;stroke:none" /><path
       d="m 76.837,622.327 11,0 0,11 -11,0 0,-11 z"
       id="path240"
       style="fill:none;stroke:#000000;stroke-width:0.5;stroke-linecap:butt;stroke-linejoin:miter;stroke-miterlimit:10;stroke-opacity:1;stroke-dasharray:none" /><text
       transform="matrix(1,0,0,-1,90.875,611.791)"
       id="text254"><tspan
         x="0"
         y="0"
         id="tspan256"
         style="font-size:9px;font-variant:normal;font-weight:bold;font-stretch:normal;writing-mode:lr-tb;fill:#00965a;fill-opacity:1;fill-rule:nonzero;stroke:none;font-family:Arial;-inkscape-font-specification:Arial-BoldMT">►</tspan></text>
<path
       d="m 76.837,584.342 11,0 0,11 -11,0 0,-11 z"
       id="path264"
       style="fill:#ffffff;fill-opacity:1;fill-rule:nonzero;stroke:none" /><path
       d="m 76.837,584.342 11,0 0,11 -11,0 0,-11 z"
       id="path266"
       style="fill:none;stroke:#000000;stroke-width:0.5;stroke-linecap:butt;stroke-linejoin:miter;stroke-miterlimit:10;stroke-opacity:1;stroke-dasharray:none" /><text
       transform="matrix(1,0,0,-1,90.875,573.807)"
       id="text288"><tspan
         x="0"
         y="0"
         id="tspan290"
         style="font-size:9px;font-variant:normal;font-weight:bold;font-stretch:normal;writing-mode:lr-tb;fill:#00965a;fill-opacity:1;fill-rule:nonzero;stroke:none;font-family:Arial;-inkscape-font-specification:Arial-BoldMT">►</tspan></text>
<text
       transform="matrix(1,0,0,-1,70.31,553.908)"
       id="text296"><tspan
         x="0 5.0040002"
         y="0"
         id="tspan298"
         style="font-size:9px;font-variant:normal;font-weight:bold;font-stretch:normal;writing-mode:lr-tb;fill:#000000;fill-opacity:1;fill-rule:nonzero;stroke:none;font-family:Arial;-inkscape-font-specification:Arial-BoldMT">3.</tspan></text>
<g
       transform="translate(70.685,518.806)"
       id="g304"><path
         d="M 0,0 383.503,0"
         id="path306"
         style="fill:none;stroke:#000000;stroke-width:0.5;stroke-linecap:butt;stroke-linejoin:miter;stroke-miterlimit:10;stroke-opacity:1;stroke-dasharray:none" /></g><g
       transform="translate(71.394,537.481)"
       id="g308"><path
         d="M 0,0 0,-18.925"
         id="path310"
         style="fill:none;stroke:#000000;stroke-width:1.41700006;stroke-linecap:butt;stroke-linejoin:miter;stroke-miterlimit:10;stroke-opacity:1;stroke-dasharray:none" /></g><path
       d="m 76.775,523.001 11,0 0,11 -11,0 0,-11 z"
       id="path312"
       style="fill:#ffffff;fill-opacity:1;fill-rule:nonzero;stroke:none" /><path
       d="m 76.775,523.001 11,0 0,11 -11,0 0,-11 z"
       id="path314"
       style="fill:none;stroke:#000000;stroke-width:0.5;stroke-linecap:butt;stroke-linejoin:miter;stroke-miterlimit:10;stroke-opacity:1;stroke-dasharray:none" /><g
       transform="translate(70.685,488.56)"
       id="g328"><path
         d="M 0,0 383.503,0"
         id="path330"
         style="fill:none;stroke:#000000;stroke-width:0.5;stroke-linecap:butt;stroke-linejoin:miter;stroke-miterlimit:10;stroke-opacity:1;stroke-dasharray:none" /></g><g
       transform="translate(71.394,518.574)"
       id="g332"><path
         d="M 0,0 0,-30.264"
         id="path334"
         style="fill:none;stroke:#000000;stroke-width:1.41700006;stroke-linecap:butt;stroke-linejoin:miter;stroke-miterlimit:10;stroke-opacity:1;stroke-dasharray:none" /></g><path
       d="m 76.775,502.62 11,0 0,11 -11,0 0,-11 z"
       id="path336"
       style="fill:#ffffff;fill-opacity:1;fill-rule:nonzero;stroke:none" /><path
       d="m 76.775,502.62 11,0 0,11 -11,0 0,-11 z"
       id="path338"
       style="fill:none;stroke:#000000;stroke-width:0.5;stroke-linecap:butt;stroke-linejoin:miter;stroke-miterlimit:10;stroke-opacity:1;stroke-dasharray:none" /><text
       transform="matrix(1,0,0,-1,90.873,493.045)"
       id="text358"><tspan
         x="0"
         y="0"
         id="tspan360"
         style="font-size:9px;font-variant:normal;font-weight:bold;font-stretch:normal;writing-mode:lr-tb;fill:#00965a;fill-opacity:1;fill-rule:nonzero;stroke:none;font-family:Arial;-inkscape-font-specification:Arial-BoldMT">►</tspan></text>
<g
       transform="translate(70.685,458.229)"
       id="g366"><path
         d="M 0,0 383.503,0"
         id="path368"
         style="fill:none;stroke:#000000;stroke-width:0.5;stroke-linecap:butt;stroke-linejoin:miter;stroke-miterlimit:10;stroke-opacity:1;stroke-dasharray:none" /></g><g
       transform="translate(71.394,488.243)"
       id="g370"><path
         d="M 0,0 0,-30.264"
         id="path372"
         style="fill:none;stroke:#000000;stroke-width:1.41700006;stroke-linecap:butt;stroke-linejoin:miter;stroke-miterlimit:10;stroke-opacity:1;stroke-dasharray:none" /></g><path
       d="m 76.775,472.289 11,0 0,11 -11,0 0,-11 z"
       id="path374"
       style="fill:#ffffff;fill-opacity:1;fill-rule:nonzero;stroke:none" /><path
       d="m 76.775,472.289 11,0 0,11 -11,0 0,-11 z"
       id="path376"
       style="fill:none;stroke:#000000;stroke-width:0.5;stroke-linecap:butt;stroke-linejoin:miter;stroke-miterlimit:10;stroke-opacity:1;stroke-dasharray:none" /><text
       transform="matrix(1,0,0,-1,91.426,462.519)"
       id="text396"><tspan
         x="0"
         y="0"
         id="tspan398"
         style="font-size:9px;font-variant:normal;font-weight:bold;font-stretch:normal;writing-mode:lr-tb;fill:#00965a;fill-opacity:1;fill-rule:nonzero;stroke:none;font-family:Arial;-inkscape-font-specification:Arial-BoldMT">►</tspan></text>
<g
       transform="translate(70.685,366.467)"
       id="g404"><path
         d="M 0,0 383.503,0"
         id="path406"
         style="fill:none;stroke:#000000;stroke-width:0.5;stroke-linecap:butt;stroke-linejoin:miter;stroke-miterlimit:10;stroke-opacity:1;stroke-dasharray:none" /></g><g
       transform="translate(71.394,458.222)"
       id="g408"><path
         d="M 0,0 0,-92.005"
         id="path410"
         style="fill:none;stroke:#000000;stroke-width:1.41700006;stroke-linecap:butt;stroke-linejoin:miter;stroke-miterlimit:10;stroke-opacity:1;stroke-dasharray:none" /></g><path
       d="m 76.775,442.072 11,0 0,11 -11,0 0,-11 z"
       id="path412"
       style="fill:#ffffff;fill-opacity:1;fill-rule:nonzero;stroke:none" /><path
       d="m 76.775,442.072 11,0 0,11 -11,0 0,-11 z"
       id="path414"
       style="fill:none;stroke:#000000;stroke-width:0.5;stroke-linecap:butt;stroke-linejoin:miter;stroke-miterlimit:10;stroke-opacity:1;stroke-dasharray:none" /><text
       transform="matrix(1,0,0,-1,90.883,374.479)"
       id="text470"><tspan
         x="0"
         y="0"
         id="tspan472"
         style="font-size:9px;font-variant:normal;font-weight:bold;font-stretch:normal;writing-mode:lr-tb;fill:#00965a;fill-opacity:1;fill-rule:nonzero;stroke:none;font-family:Arial;-inkscape-font-specification:Arial-BoldMT">►</tspan></text>
<g
       transform="translate(70.685,327.847)"
       id="g478"><path
         d="M 0,0 383.503,0"
         id="path480"
         style="fill:none;stroke:#000000;stroke-width:0.5;stroke-linecap:butt;stroke-linejoin:miter;stroke-miterlimit:10;stroke-opacity:1;stroke-dasharray:none" /></g><g
       transform="translate(71.394,366.365)"
       id="g482"><path
         d="M 0,0 0,-38.768"
         id="path484"
         style="fill:none;stroke:#000000;stroke-width:1.41700006;stroke-linecap:butt;stroke-linejoin:miter;stroke-miterlimit:10;stroke-opacity:1;stroke-dasharray:none" /></g><path
       d="m 76.775,348.285 11,0 0,11 -11,0 0,-11 z"
       id="path486"
       style="fill:#ffffff;fill-opacity:1;fill-rule:nonzero;stroke:none" /><path
       d="m 76.775,348.285 11,0 0,11 -11,0 0,-11 z"
       id="path488"
       style="fill:none;stroke:#000000;stroke-width:0.5;stroke-linecap:butt;stroke-linejoin:miter;stroke-miterlimit:10;stroke-opacity:1;stroke-dasharray:none" /><text
       transform="matrix(1,0,0,-1,90.873,333.781)"
       id="text522"><tspan
         x="0"
         y="0"
         id="tspan524"
         style="font-size:9px;font-variant:normal;font-weight:bold;font-stretch:normal;writing-mode:lr-tb;fill:#00965a;fill-opacity:1;fill-rule:nonzero;stroke:none;font-family:Arial;-inkscape-font-specification:Arial-BoldMT">►</tspan></text>
<g
       transform="translate(70.685,273.439)"
       id="g536"><path
         d="M 0,0 383.503,0"
         id="path538"
         style="fill:none;stroke:#000000;stroke-width:1.41700006;stroke-linecap:butt;stroke-linejoin:miter;stroke-miterlimit:10;stroke-opacity:1;stroke-dasharray:none" /></g><g
       transform="translate(71.394,327.547)"
       id="g540"><path
         d="M 0,0 0,-54.817"
         id="path542"
         style="fill:none;stroke:#000000;stroke-width:1.41700006;stroke-linecap:butt;stroke-linejoin:miter;stroke-miterlimit:10;stroke-opacity:1;stroke-dasharray:none" /></g><path
       d="m 76.847,311.421 11,0 0,11 -11,0 0,-11 z"
       id="path544"
       style="fill:#ffffff;fill-opacity:1;fill-rule:nonzero;stroke:none" /><path
       d="m 76.847,311.421 11,0 0,11 -11,0 0,-11 z"
       id="path546"
       style="fill:none;stroke:#000000;stroke-width:0.5;stroke-linecap:butt;stroke-linejoin:miter;stroke-miterlimit:10;stroke-opacity:1;stroke-dasharray:none" /><text
       transform="matrix(1,0,0,-1,90.873,279.891)"
       id="text570"><tspan
         x="0"
         y="0"
         id="tspan572"
         style="font-size:9px;font-variant:normal;font-weight:bold;font-stretch:normal;writing-mode:lr-tb;fill:#00965a;fill-opacity:1;fill-rule:nonzero;stroke:none;font-family:Arial;-inkscape-font-specification:Arial-BoldMT">►</tspan></text>
<text
       transform="matrix(1,0,0,-1,70.308,258.507)"
       id="text578"><tspan
         x="0 5.0040002"
         y="0"
         id="tspan580"
         style="font-size:9px;font-variant:normal;font-weight:bold;font-stretch:normal;writing-mode:lr-tb;fill:#000000;fill-opacity:1;fill-rule:nonzero;stroke:none;font-family:Arial;-inkscape-font-specification:Arial-BoldMT">4.</tspan></text>
<g
       transform="translate(70.685,203.321)"
       id="g588"><path
         d="M 0,0 383.503,0"
         id="path590"
         style="fill:none;stroke:#000000;stroke-width:1.41700006;stroke-linecap:butt;stroke-linejoin:miter;stroke-miterlimit:10;stroke-opacity:1;stroke-dasharray:none" /></g><g
       transform="translate(71.394,254.008)"
       id="g592"><path
         d="M 0,0 0,-51.396"
         id="path594"
         style="fill:none;stroke:#000000;stroke-width:1.41700006;stroke-linecap:butt;stroke-linejoin:miter;stroke-miterlimit:10;stroke-opacity:1;stroke-dasharray:none" /></g><path
       d="m 386.23,239.754 11,0 0,11 -11,0 0,-11 z"
       id="path600"
       style="fill:#ffffff;fill-opacity:1;fill-rule:nonzero;stroke:none" /><path
       d="m 386.23,239.754 11,0 0,11 -11,0 0,-11 z"
       id="path602"
       style="fill:none;stroke:#000000;stroke-width:0.5;stroke-linecap:butt;stroke-linejoin:miter;stroke-miterlimit:10;stroke-opacity:1;stroke-dasharray:none" /><path
       d="m 417.216,239.754 11,0 0,11 -11,0 0,-11 z"
       id="path608"
       style="fill:#ffffff;fill-opacity:1;fill-rule:nonzero;stroke:none" /><path
       d="m 417.216,239.754 11,0 0,11 -11,0 0,-11 z"
       id="path610"
       style="fill:none;stroke:#000000;stroke-width:0.5;stroke-linecap:butt;stroke-linejoin:miter;stroke-miterlimit:10;stroke-opacity:1;stroke-dasharray:none" /><text
       transform="matrix(1,0,0,-1,75.933,230.422)"
       id="text616"><tspan
         x="0"
         y="0"
         id="tspan618"
         style="font-size:9px;font-variant:normal;font-weight:bold;font-stretch:normal;writing-mode:lr-tb;fill:#00965a;fill-opacity:1;fill-rule:nonzero;stroke:none;font-family:Arial;-inkscape-font-specification:Arial-BoldMT">►</tspan></text>
<text
       transform="matrix(1,0,0,-1,70.299,188.104)"
       id="text638"><tspan
         x="0 5.0040002"
         y="0"
         id="tspan640"
         style="font-size:9px;font-variant:normal;font-weight:bold;font-stretch:normal;writing-mode:lr-tb;fill:#000000;fill-opacity:1;fill-rule:nonzero;stroke:none;font-family:Arial;-inkscape-font-specification:Arial-BoldMT">5.</tspan></text>
<g
       transform="translate(70.685,142.206)"
       id="g648"><path
         d="M 0,0 383.503,0"
         id="path650"
         style="fill:none;stroke:#000000;stroke-width:1.41700006;stroke-linecap:butt;stroke-linejoin:miter;stroke-miterlimit:10;stroke-opacity:1;stroke-dasharray:none" /></g><g
       transform="translate(71.394,183.595)"
       id="g652"><path
         d="M 0,0 0,-42.098"
         id="path654"
         style="fill:none;stroke:#000000;stroke-width:1.41700006;stroke-linecap:butt;stroke-linejoin:miter;stroke-miterlimit:10;stroke-opacity:1;stroke-dasharray:none" /></g><path
       d="m 386.23,169.341 11,0 0,11 -11,0 0,-11 z"
       id="path660"
       style="fill:#ffffff;fill-opacity:1;fill-rule:nonzero;stroke:none" /><path
       d="m 386.23,169.341 11,0 0,11 -11,0 0,-11 z"
       id="path662"
       style="fill:none;stroke:#000000;stroke-width:0.5;stroke-linecap:butt;stroke-linejoin:miter;stroke-miterlimit:10;stroke-opacity:1;stroke-dasharray:none" /><path
       d="m 417.216,169.341 11,0 0,11 -11,0 0,-11 z"
       id="path668"
       style="fill:#ffffff;fill-opacity:1;fill-rule:nonzero;stroke:none" /><path
       d="m 417.216,169.341 11,0 0,11 -11,0 0,-11 z"
       id="path670"
       style="fill:none;stroke:#000000;stroke-width:0.5;stroke-linecap:butt;stroke-linejoin:miter;stroke-miterlimit:10;stroke-opacity:1;stroke-dasharray:none" /><text
       transform="matrix(1,0,0,-1,75.933,158.983)"
       id="text676"><tspan
         x="0"
         y="0"
         id="tspan678"
         style="font-size:9px;font-variant:normal;font-weight:bold;font-stretch:normal;writing-mode:lr-tb;fill:#00965a;fill-opacity:1;fill-rule:nonzero;stroke:none;font-family:Arial;-inkscape-font-specification:Arial-BoldMT">►</tspan></text>
<text
       transform="matrix(1,0,0,-1,70.32,127.803)"
       id="text688"><tspan
         x="0 5.0040002"
         y="0"
         id="tspan690"
         style="font-size:9px;font-variant:normal;font-weight:bold;font-stretch:normal;writing-mode:lr-tb;fill:#000000;fill-opacity:1;fill-rule:nonzero;stroke:none;font-family:Arial;-inkscape-font-specification:Arial-BoldMT">6.</tspan></text>
<text
       transform="matrix(1,0,0,-1,70.308,111.655)"
       id="text698"><tspan
         x="0 5.0040002 7.506"
         y="0"
         id="tspan700"
         style="font-size:9px;font-variant:normal;font-weight:bold;font-stretch:normal;writing-mode:lr-tb;fill:#000000;fill-opacity:1;fill-rule:nonzero;stroke:none;font-family:Arial;-inkscape-font-specification:Arial-BoldMT">6.1</tspan></text>
<text
       transform="matrix(1,0,0,-1,69.61,98.074)"
       id="text708"><tspan
         x="0"
         y="0"
         id="tspan710"
         style="font-size:9px;font-variant:normal;font-weight:bold;font-stretch:normal;writing-mode:lr-tb;fill:#00965a;fill-opacity:1;fill-rule:nonzero;stroke:none;font-family:Arial;-inkscape-font-specification:Arial-BoldMT">►</tspan></text>
<text
       transform="matrix(1,0,0,-1,69.584,52.506)"
       id="text748"><tspan
         x="0"
         y="0"
         id="tspan750"
         style="font-size:9px;font-variant:normal;font-weight:bold;font-stretch:normal;writing-mode:lr-tb;fill:#00965a;fill-opacity:1;fill-rule:nonzero;stroke:none;font-family:Arial;-inkscape-font-specification:Arial-BoldMT">►</tspan></text>
</g></svg>