<?xml version="1.0" encoding="UTF-8" standalone="no"?>
<!-- Created with Inkscape (http://www.inkscape.org/) -->

<svg
   xmlns:dc="http://purl.org/dc/elements/1.1/"
   xmlns:cc="http://creativecommons.org/ns#"
   xmlns:rdf="http://www.w3.org/1999/02/22-rdf-syntax-ns#"
   xmlns:svg="http://www.w3.org/2000/svg"
   xmlns="http://www.w3.org/2000/svg"
   xmlns:sodipodi="http://sodipodi.sourceforge.net/DTD/sodipodi-0.dtd"
   xmlns:inkscape="http://www.inkscape.org/namespaces/inkscape"
   id="svg7083"
   version="1.1"
   inkscape:version="0.48.5 r10040"
   width="744.095"
   height="1052.3625"
   xml:space="preserve"
   sodipodi:docname="l6019022dstbai378191.pdf"><metadata
     id="metadata7089"><rdf:RDF><cc:Work
         rdf:about=""><dc:format>image/svg+xml</dc:format><dc:type
           rdf:resource="http://purl.org/dc/dcmitype/StillImage" /><dc:title></dc:title></cc:Work></rdf:RDF></metadata><defs
     id="defs7087" /><sodipodi:namedview
     pagecolor="#ffffff"
     bordercolor="#666666"
     borderopacity="1"
     objecttolerance="10"
     gridtolerance="10"
     guidetolerance="10"
     inkscape:pageopacity="0"
     inkscape:pageshadow="2"
     inkscape:window-width="1280"
     inkscape:window-height="780"
     id="namedview7085"
     showgrid="false"
     inkscape:zoom="1.2685909"
     inkscape:cx="421.87656"
     inkscape:cy="197.55264"
     inkscape:window-x="0"
     inkscape:window-y="20"
     inkscape:window-maximized="1"
     inkscape:current-layer="g7091" /><g
     id="g7091"
     inkscape:groupmode="layer"
     inkscape:label="l6019022dstbai378191"
     transform="matrix(1.25,0,0,-1.25,0,1052.3625)"><path
       d="m 483.874,53.796 98.646,0 0,743.811 -98.646,0 0,-743.811 z"
       style="fill:none;stroke:#000000;stroke-opacity:1;stroke-width:1;stroke-linecap:butt;stroke-linejoin:miter;stroke-miterlimit:10;stroke-dasharray:none"
       id="path7105" /><path
       d="m 486.471,740.342 11.055,0 0,11.055 -11.055,0 0,-11.055 z"
       style="fill:none;stroke:#000000;stroke-opacity:1;stroke-width:0.5;stroke-linecap:butt;stroke-linejoin:miter;stroke-miterlimit:10;stroke-dasharray:none"
       id="path7115" /><path
       d="m 486.471,727.812 11.055,0 0,11.055 -11.055,0 0,-11.055 z"
       style="fill:none;stroke:#000000;stroke-opacity:1;stroke-width:0.5;stroke-linecap:butt;stroke-linejoin:miter;stroke-miterlimit:10;stroke-dasharray:none"
       id="path7121" /><path
       d="m 486.471,640.914 11.055,0 0,11.055 -11.055,0 0,-11.055 z"
       style="fill:none;stroke:#000000;stroke-opacity:1;stroke-width:0.5;stroke-linecap:butt;stroke-linejoin:miter;stroke-miterlimit:10;stroke-dasharray:none"
       id="path7127" /><g
       id="g7129"
       transform="translate(501.199,641.084)"><path
         d="M 0,0 79.685,0"
         style="fill:none;stroke:#000000;stroke-opacity:1;stroke-width:0.5;stroke-linecap:square;stroke-linejoin:miter;stroke-miterlimit:10;stroke-dasharray:none"
         id="path7131" /></g><path
       d="m 486.471,608.207 11.055,0 0,11.055 -11.055,0 0,-11.055 z"
       style="fill:none;stroke:#000000;stroke-opacity:1;stroke-width:0.5;stroke-linecap:butt;stroke-linejoin:miter;stroke-miterlimit:10;stroke-dasharray:none"
       id="path7133" /><path
       d="m 486.471,515.962 11.055,0 0,11.055 -11.055,0 0,-11.055 z"
       style="fill:none;stroke:#000000;stroke-opacity:1;stroke-width:0.5;stroke-linecap:butt;stroke-linejoin:miter;stroke-miterlimit:10;stroke-dasharray:none"
       id="path7139" /><g
       id="g7141"
       transform="translate(501.199,516.132)"><path
         d="M 0,0 79.685,0"
         style="fill:none;stroke:#000000;stroke-opacity:1;stroke-width:0.5;stroke-linecap:square;stroke-linejoin:miter;stroke-miterlimit:10;stroke-dasharray:none"
         id="path7143" /></g><path
       d="m 486.471,473.499 11.055,0 0,11.055 -11.055,0 0,-11.055 z"
       style="fill:none;stroke:#000000;stroke-opacity:1;stroke-width:0.5;stroke-linecap:butt;stroke-linejoin:miter;stroke-miterlimit:10;stroke-dasharray:none"
       id="path7145" /><g
       id="g7147"
       transform="translate(501.199,473.669)"><path
         d="M 0,0 79.685,0"
         style="fill:none;stroke:#000000;stroke-opacity:1;stroke-width:0.5;stroke-linecap:square;stroke-linejoin:miter;stroke-miterlimit:10;stroke-dasharray:none"
         id="path7149" /></g><path
       d="m 486.471,416.75 11.055,0 0,11.055 -11.055,0 0,-11.055 z"
       style="fill:none;stroke:#000000;stroke-opacity:1;stroke-width:0.5;stroke-linecap:butt;stroke-linejoin:miter;stroke-miterlimit:10;stroke-dasharray:none"
       id="path7151" /><path
       d="m 486.471,385.742 11.055,0 0,11.055 -11.055,0 0,-11.055 z"
       style="fill:none;stroke:#000000;stroke-opacity:1;stroke-width:0.5;stroke-linecap:butt;stroke-linejoin:miter;stroke-miterlimit:10;stroke-dasharray:none"
       id="path7157" /><path
       d="m 486.471,372.249 11.055,0 0,11.055 -11.055,0 0,-11.055 z"
       style="fill:none;stroke:#000000;stroke-opacity:1;stroke-width:0.5;stroke-linecap:butt;stroke-linejoin:miter;stroke-miterlimit:10;stroke-dasharray:none"
       id="path7163" /><path
       d="m 486.471,333.357 11.055,0 0,11.055 -11.055,0 0,-11.055 z"
       style="fill:none;stroke:#000000;stroke-opacity:1;stroke-width:0.5;stroke-linecap:butt;stroke-linejoin:miter;stroke-miterlimit:10;stroke-dasharray:none"
       id="path7169" /><path
       d="m 486.471,215.603 11.055,0 0,11.055 -11.055,0 0,-11.055 z"
       style="fill:none;stroke:#000000;stroke-opacity:1;stroke-width:0.5;stroke-linecap:butt;stroke-linejoin:miter;stroke-miterlimit:10;stroke-dasharray:none"
       id="path7175" /><g
       id="g7177"
       transform="translate(501.199,215.773)"><path
         d="M 0,0 79.685,0"
         style="fill:none;stroke:#000000;stroke-opacity:1;stroke-width:0.5;stroke-linecap:square;stroke-linejoin:miter;stroke-miterlimit:10;stroke-dasharray:none"
         id="path7179" /></g><text
       transform="matrix(1,0,0,-1,70.308,780.909)"
       id="text7181"><tspan
         style="font-size:9px;font-variant:normal;font-weight:bold;font-stretch:normal;writing-mode:lr-tb;fill:#000000;fill-opacity:1;fill-rule:nonzero;stroke:none;font-family:Arial;-inkscape-font-specification:Arial-BoldMT"
         x="0 5.0040002 7.506"
         y="0"
         sodipodi:role="line"
         id="tspan7183">2.2</tspan></text>
<g
       id="g7185"
       transform="translate(230.567,783.352)"><g
         id="g7187"
         transform="translate(6.378,0)"><path
           d="m 0,0 c 0,3.522 -2.856,6.378 -6.378,6.378 -3.522,0 -6.378,-2.856 -6.378,-6.378 0,-3.522 2.856,-6.378 6.378,-6.378 C -2.856,-6.378 0,-3.522 0,0"
           style="fill:none;stroke:#00965a;stroke-opacity:1;stroke-width:0.85;stroke-linecap:square;stroke-linejoin:miter;stroke-miterlimit:10;stroke-dasharray:none"
           id="path7189" /></g></g><g
       id="g7191"
       transform="translate(70.685,726.73)"><path
         d="M 0,0 383.503,0"
         style="fill:none;stroke:#000000;stroke-opacity:1;stroke-width:1.417;stroke-linecap:butt;stroke-linejoin:miter;stroke-miterlimit:10;stroke-dasharray:none"
         id="path7193" /></g><g
       id="g7195"
       transform="translate(71.394,775.452)"><path
         d="M 0,0 0,-49.431"
         style="fill:none;stroke:#000000;stroke-opacity:1;stroke-width:1.417;stroke-linecap:butt;stroke-linejoin:miter;stroke-miterlimit:10;stroke-dasharray:none"
         id="path7197" /></g><g
       id="g7211"
       transform="translate(380.265,757.211)"><g
         id="g7213"
         transform="translate(6.378,0)"><path
           d="m 0,0 c 0,3.522 -2.856,6.378 -6.378,6.378 -3.522,0 -6.378,-2.856 -6.378,-6.378 0,-3.522 2.856,-6.378 6.378,-6.378 C -2.856,-6.378 0,-3.522 0,0"
           style="fill:none;stroke:#00965a;stroke-opacity:1;stroke-width:0.85;stroke-linecap:square;stroke-linejoin:miter;stroke-miterlimit:10;stroke-dasharray:none"
           id="path7215" /></g></g><text
       transform="matrix(1,0,0,-1,75.408,743.058)"
       id="text7217"><tspan
         style="fill:#00965a;fill-opacity:1;fill-rule:nonzero;stroke:none;font-family:Arial;font-variant:normal;font-weight:bold;font-stretch:normal;font-size:9;writing-mode:lr;-inkscape-font-specification:Arial-BoldMT"
         x="0"
         y="0"
         id="tspan7219">►</tspan></text>
<text
       transform="matrix(1,0,0,-1,70.314,710.145)"
       id="text7243"><tspan
         style="font-size:9px;font-variant:normal;font-weight:bold;font-stretch:normal;writing-mode:lr-tb;fill:#000000;fill-opacity:1;fill-rule:nonzero;stroke:none;font-family:Arial;-inkscape-font-specification:Arial-BoldMT"
         x="0 5.0040002"
         y="0"
         sodipodi:role="line"
         id="tspan7245">3.</tspan></text>
<g
       id="g7251"
       transform="translate(70.685,672.841)"><path
         d="M 0,0 383.503,0"
         style="fill:none;stroke:#000000;stroke-opacity:1;stroke-width:0.5;stroke-linecap:butt;stroke-linejoin:miter;stroke-miterlimit:10;stroke-dasharray:none"
         id="path7253" /></g><g
       id="g7255"
       transform="translate(71.394,691.516)"><path
         d="M 0,0 0,-18.925"
         style="fill:none;stroke:#000000;stroke-opacity:1;stroke-width:1.417;stroke-linecap:butt;stroke-linejoin:miter;stroke-miterlimit:10;stroke-dasharray:none"
         id="path7257" /></g><path
       d="m 76.775,677.036 11,0 0,11 -11,0 0,-11 z"
       style="fill:#ffffff;fill-opacity:1;fill-rule:nonzero;stroke:none"
       id="path7259" /><path
       d="m 76.775,677.036 11,0 0,11 -11,0 0,-11 z"
       style="fill:none;stroke:#000000;stroke-opacity:1;stroke-width:0.5;stroke-linecap:butt;stroke-linejoin:miter;stroke-miterlimit:10;stroke-dasharray:none"
       id="path7261" /><g
       id="g7275"
       transform="translate(70.685,640.328)"><path
         d="M 0,0 383.503,0"
         style="fill:none;stroke:#000000;stroke-opacity:1;stroke-width:0.5;stroke-linecap:butt;stroke-linejoin:miter;stroke-miterlimit:10;stroke-dasharray:none"
         id="path7277" /></g><g
       id="g7279"
       transform="translate(71.394,672.609)"><path
         d="M 0,0 0,-32.531"
         style="fill:none;stroke:#000000;stroke-opacity:1;stroke-width:1.417;stroke-linecap:butt;stroke-linejoin:miter;stroke-miterlimit:10;stroke-dasharray:none"
         id="path7281" /></g><path
       d="m 76.775,656.655 11,0 0,11 -11,0 0,-11 z"
       style="fill:#ffffff;fill-opacity:1;fill-rule:nonzero;stroke:none"
       id="path7283" /><path
       d="m 76.775,656.655 11,0 0,11 -11,0 0,-11 z"
       style="fill:none;stroke:#000000;stroke-opacity:1;stroke-width:0.5;stroke-linecap:butt;stroke-linejoin:miter;stroke-miterlimit:10;stroke-dasharray:none"
       id="path7285" /><text
       transform="matrix(1,0,0,-1,91.426,645.604)"
       id="text7299"><tspan
         style="fill:#00965a;fill-opacity:1;fill-rule:nonzero;stroke:none;font-family:Arial;font-variant:normal;font-weight:bold;font-stretch:normal;font-size:9;writing-mode:lr;-inkscape-font-specification:Arial-BoldMT"
         x="0"
         y="0"
         id="tspan7301">►</tspan></text>
<g
       id="g7307"
       transform="translate(431.377,648.888)"><g
         id="g7309"
         transform="translate(6.378,0)"><path
           d="m 0,0 c 0,3.522 -2.856,6.378 -6.378,6.378 -3.522,0 -6.378,-2.856 -6.378,-6.378 0,-3.522 2.856,-6.378 6.378,-6.378 C -2.856,-6.378 0,-3.522 0,0"
           style="fill:none;stroke:#00965a;stroke-opacity:1;stroke-width:0.85;stroke-linecap:square;stroke-linejoin:miter;stroke-miterlimit:10;stroke-dasharray:none"
           id="path7311" /></g></g><g
       id="g7313"
       transform="translate(70.685,607.786)"><path
         d="M 0,0 383.503,0"
         style="fill:none;stroke:#000000;stroke-opacity:1;stroke-width:0.5;stroke-linecap:butt;stroke-linejoin:miter;stroke-miterlimit:10;stroke-dasharray:none"
         id="path7315" /></g><g
       id="g7317"
       transform="translate(71.394,640.067)"><path
         d="M 0,0 0,-32.531"
         style="fill:none;stroke:#000000;stroke-opacity:1;stroke-width:1.417;stroke-linecap:butt;stroke-linejoin:miter;stroke-miterlimit:10;stroke-dasharray:none"
         id="path7319" /></g><path
       d="m 76.775,624.113 11,0 0,11 -11,0 0,-11 z"
       style="fill:#ffffff;fill-opacity:1;fill-rule:nonzero;stroke:none"
       id="path7321" /><path
       d="m 76.775,624.113 11,0 0,11 -11,0 0,-11 z"
       style="fill:none;stroke:#000000;stroke-opacity:1;stroke-width:0.5;stroke-linecap:butt;stroke-linejoin:miter;stroke-miterlimit:10;stroke-dasharray:none"
       id="path7323" /><g
       id="g7337"
       transform="translate(417.52699,629.054)"><g
         id="g7339"
         transform="translate(6.378,0)"><path
           d="m 0,0 c 0,3.522 -2.856,6.378 -6.378,6.378 -3.522,0 -6.378,-2.856 -6.378,-6.378 0,-3.522 2.856,-6.378 6.378,-6.378 C -2.856,-6.378 0,-3.522 0,0"
           style="fill:none;stroke:#00965a;stroke-opacity:1;stroke-width:0.85;stroke-linecap:square;stroke-linejoin:miter;stroke-miterlimit:10;stroke-dasharray:none"
           id="path7341" /></g></g><text
       transform="matrix(1,0,0,-1,90.873,613.606)"
       id="text7343"><tspan
         style="fill:#00965a;fill-opacity:1;fill-rule:nonzero;stroke:none;font-family:Arial;font-variant:normal;font-weight:bold;font-stretch:normal;font-size:9;writing-mode:lr;-inkscape-font-specification:Arial-BoldMT"
         x="0"
         y="0"
         id="tspan7345">►</tspan></text>
<g
       id="g7359"
       transform="translate(70.685,515.263)"><path
         d="M 0,0 383.503,0"
         style="fill:none;stroke:#000000;stroke-opacity:1;stroke-width:0.5;stroke-linecap:butt;stroke-linejoin:miter;stroke-miterlimit:10;stroke-dasharray:none"
         id="path7361" /></g><g
       id="g7363"
       transform="translate(71.394,607.639)"><path
         d="M 0,0 0,-92.626"
         style="fill:none;stroke:#000000;stroke-opacity:1;stroke-width:1.417;stroke-linecap:butt;stroke-linejoin:miter;stroke-miterlimit:10;stroke-dasharray:none"
         id="path7365" /></g><path
       d="m 76.775,591.685 11,0 0,11 -11,0 0,-11 z"
       style="fill:#ffffff;fill-opacity:1;fill-rule:nonzero;stroke:none"
       id="path7367" /><path
       d="m 76.775,591.685 11,0 0,11 -11,0 0,-11 z"
       style="fill:none;stroke:#000000;stroke-opacity:1;stroke-width:0.5;stroke-linecap:butt;stroke-linejoin:miter;stroke-miterlimit:10;stroke-dasharray:none"
       id="path7369" /><text
       transform="matrix(1,0,0,-1,90.883,521.147)"
       id="text7419"><tspan
         style="fill:#00965a;fill-opacity:1;fill-rule:nonzero;stroke:none;font-family:Arial;font-variant:normal;font-weight:bold;font-stretch:normal;font-size:9;writing-mode:lr;-inkscape-font-specification:Arial-BoldMT"
         x="0"
         y="0"
         id="tspan7421">►</tspan></text>
<g
       id="g7427"
       transform="translate(283.465,524.172)"><g
         id="g7429"
         transform="translate(6.378,0)"><path
           d="m 0,0 c 0,3.522 -2.856,6.378 -6.378,6.378 -3.522,0 -6.378,-2.856 -6.378,-6.378 0,-3.522 2.856,-6.378 6.378,-6.378 C -2.856,-6.378 0,-3.522 0,0"
           style="fill:none;stroke:#00965a;stroke-opacity:1;stroke-width:0.85;stroke-linecap:square;stroke-linejoin:miter;stroke-miterlimit:10;stroke-dasharray:none"
           id="path7431" /></g></g><g
       id="g7433"
       transform="translate(70.685,472.924)"><path
         d="M 0,0 383.503,0"
         style="fill:none;stroke:#000000;stroke-opacity:1;stroke-width:0.5;stroke-linecap:butt;stroke-linejoin:miter;stroke-miterlimit:10;stroke-dasharray:none"
         id="path7435" /></g><g
       id="g7437"
       transform="translate(71.394,515.127)"><path
         d="M 0,0 0,-42.453"
         style="fill:none;stroke:#000000;stroke-opacity:1;stroke-width:1.417;stroke-linecap:butt;stroke-linejoin:miter;stroke-miterlimit:10;stroke-dasharray:none"
         id="path7439" /></g><path
       d="m 76.775,494.949 11,0 0,11 -11,0 0,-11 z"
       style="fill:#ffffff;fill-opacity:1;fill-rule:nonzero;stroke:none"
       id="path7441" /><path
       d="m 76.775,494.949 11,0 0,11 -11,0 0,-11 z"
       style="fill:none;stroke:#000000;stroke-opacity:1;stroke-width:0.5;stroke-linecap:butt;stroke-linejoin:miter;stroke-miterlimit:10;stroke-dasharray:none"
       id="path7443" /><g
       id="g7471"
       transform="translate(236.12601,494.89)"><g
         id="g7473"
         transform="translate(6.378,0)"><path
           d="m 0,0 c 0,3.522 -2.856,6.378 -6.378,6.378 -3.522,0 -6.378,-2.856 -6.378,-6.378 0,-3.522 2.856,-6.378 6.378,-6.378 C -2.856,-6.378 0,-3.522 0,0"
           style="fill:none;stroke:#00965a;stroke-opacity:1;stroke-width:0.85;stroke-linecap:square;stroke-linejoin:miter;stroke-miterlimit:10;stroke-dasharray:none"
           id="path7475" /></g></g><text
       transform="matrix(1,0,0,-1,90.873,478.971)"
       id="text7477"><tspan
         style="fill:#00965a;fill-opacity:1;fill-rule:nonzero;stroke:none;font-family:Arial;font-variant:normal;font-weight:bold;font-stretch:normal;font-size:9;writing-mode:lr;-inkscape-font-specification:Arial-BoldMT"
         x="0"
         y="0"
         id="tspan7479">►</tspan></text>
<g
       id="g7485"
       transform="translate(284.599,482.092)"><g
         id="g7487"
         transform="translate(6.378,0)"><path
           d="m 0,0 c 0,3.522 -2.856,6.378 -6.378,6.378 -3.522,0 -6.378,-2.856 -6.378,-6.378 0,-3.522 2.856,-6.378 6.378,-6.378 C -2.856,-6.378 0,-3.522 0,0"
           style="fill:none;stroke:#00965a;stroke-opacity:1;stroke-width:0.85;stroke-linecap:square;stroke-linejoin:miter;stroke-miterlimit:10;stroke-dasharray:none"
           id="path7489" /></g></g><g
       id="g7491"
       transform="translate(70.685,416.645)"><path
         d="M 0,0 383.503,0"
         style="fill:none;stroke:#000000;stroke-opacity:1;stroke-width:1.417;stroke-linecap:butt;stroke-linejoin:miter;stroke-miterlimit:10;stroke-dasharray:none"
         id="path7493" /></g><g
       id="g7495"
       transform="translate(71.394,472.738)"><path
         d="M 0,0 0,-56.802"
         style="fill:none;stroke:#000000;stroke-opacity:1;stroke-width:1.417;stroke-linecap:butt;stroke-linejoin:miter;stroke-miterlimit:10;stroke-dasharray:none"
         id="path7497" /></g><path
       d="m 76.847,457.349 11,0 0,11 -11,0 0,-11 z"
       style="fill:#ffffff;fill-opacity:1;fill-rule:nonzero;stroke:none"
       id="path7499" /><path
       d="m 76.847,457.349 11,0 0,11 -11,0 0,-11 z"
       style="fill:none;stroke:#000000;stroke-opacity:1;stroke-width:0.5;stroke-linecap:butt;stroke-linejoin:miter;stroke-miterlimit:10;stroke-dasharray:none"
       id="path7501" /><g
       id="g7519"
       transform="translate(434.495,439.912)"><g
         id="g7521"
         transform="translate(6.378,0)"><path
           d="m 0,0 c 0,3.522 -2.856,6.378 -6.378,6.378 -3.522,0 -6.378,-2.856 -6.378,-6.378 0,-3.522 2.856,-6.378 6.378,-6.378 C -2.856,-6.378 0,-3.522 0,0"
           style="fill:none;stroke:#00965a;stroke-opacity:1;stroke-width:0.85;stroke-linecap:square;stroke-linejoin:miter;stroke-miterlimit:10;stroke-dasharray:none"
           id="path7523" /></g></g><text
       transform="matrix(1,0,0,-1,90.873,422.871)"
       id="text7525"><tspan
         style="fill:#00965a;fill-opacity:1;fill-rule:nonzero;stroke:none;font-family:Arial;font-variant:normal;font-weight:bold;font-stretch:normal;font-size:9;writing-mode:lr;-inkscape-font-specification:Arial-BoldMT"
         x="0"
         y="0"
         id="tspan7527">►</tspan></text>
<text
       transform="matrix(1,0,0,-1,70.308,400.011)"
       id="text7541"><tspan
         style="font-size:9px;font-variant:normal;font-weight:bold;font-stretch:normal;writing-mode:lr-tb;fill:#000000;fill-opacity:1;fill-rule:nonzero;stroke:none;font-family:Arial;-inkscape-font-specification:Arial-BoldMT"
         x="0 5.0040002"
         y="0"
         sodipodi:role="line"
         id="tspan7543">4.</tspan></text>
<g
       id="g7545"
       transform="translate(145.814,403.30299)"><g
         id="g7547"
         transform="translate(6.378,0)"><path
           d="m 0,0 c 0,3.522 -2.856,6.378 -6.378,6.378 -3.522,0 -6.378,-2.856 -6.378,-6.378 0,-3.522 2.856,-6.378 6.378,-6.378 C -2.856,-6.378 0,-3.522 0,0"
           style="fill:none;stroke:#00965a;stroke-opacity:1;stroke-width:0.85;stroke-linecap:square;stroke-linejoin:miter;stroke-miterlimit:10;stroke-dasharray:none"
           id="path7549" /></g></g><text
       transform="matrix(1,0,0,-1,70.294,360.635)"
       id="text7581"><tspan
         style="font-size:9px;font-variant:normal;font-weight:bold;font-stretch:normal;writing-mode:lr-tb;fill:#000000;fill-opacity:1;fill-rule:nonzero;stroke:none;font-family:Arial;-inkscape-font-specification:Arial-BoldMT"
         x="0 5.0040002"
         y="0"
         sodipodi:role="line"
         id="tspan7583">5.</tspan></text>
<g
       id="g7585"
       transform="translate(139.054,363.14999)"><g
         id="g7587"
         transform="translate(6.378,0)"><path
           d="m 0,0 c 0,3.522 -2.856,6.378 -6.378,6.378 -3.522,0 -6.378,-2.856 -6.378,-6.378 0,-3.522 2.856,-6.378 6.378,-6.378 C -2.856,-6.378 0,-3.522 0,0"
           style="fill:none;stroke:#00965a;stroke-opacity:1;stroke-width:0.85;stroke-linecap:square;stroke-linejoin:miter;stroke-miterlimit:10;stroke-dasharray:none"
           id="path7589" /></g></g><text
       transform="matrix(1,0,0,-1,70.348,320.888)"
       id="text7603"><tspan
         style="font-size:9px;font-variant:normal;font-weight:bold;font-stretch:normal;writing-mode:lr-tb;fill:#000000;fill-opacity:1;fill-rule:nonzero;stroke:none;font-family:Arial;-inkscape-font-specification:Arial-BoldMT"
         x="0 5.0040002"
         y="0"
         sodipodi:role="line"
         id="tspan7605">6.</tspan></text>
<g
       id="g7607"
       transform="translate(192.69901,323.55)"><g
         id="g7609"
         transform="translate(6.378,0)"><path
           d="m 0,0 c 0,3.522 -2.856,6.378 -6.378,6.378 -3.522,0 -6.378,-2.856 -6.378,-6.378 0,-3.522 2.856,-6.378 6.378,-6.378 C -2.856,-6.378 0,-3.522 0,0"
           style="fill:none;stroke:#00965a;stroke-opacity:1;stroke-width:0.85;stroke-linecap:square;stroke-linejoin:miter;stroke-miterlimit:10;stroke-dasharray:none"
           id="path7611" /></g></g><text
       transform="matrix(1,0,0,-1,70.308,304.751)"
       id="text7613"><tspan
         style="font-size:9px;font-variant:normal;font-weight:bold;font-stretch:normal;writing-mode:lr-tb;fill:#000000;fill-opacity:1;fill-rule:nonzero;stroke:none;font-family:Arial;-inkscape-font-specification:Arial-BoldMT"
         x="0 5.0040002 7.506"
         y="0"
         sodipodi:role="line"
         id="tspan7615">6.1</tspan></text>
<g
       id="g7617"
       transform="translate(287.297,307.605)"><g
         id="g7619"
         transform="translate(6.378,0)"><path
           d="m 0,0 c 0,3.522 -2.856,6.378 -6.378,6.378 -3.522,0 -6.378,-2.856 -6.378,-6.378 0,-3.522 2.856,-6.378 6.378,-6.378 C -2.856,-6.378 0,-3.522 0,0"
           style="fill:none;stroke:#00965a;stroke-opacity:1;stroke-width:0.85;stroke-linecap:square;stroke-linejoin:miter;stroke-miterlimit:10;stroke-dasharray:none"
           id="path7621" /></g></g><text
       transform="matrix(1,0,0,-1,69.61,291.17)"
       id="text7623"><tspan
         style="fill:#00965a;fill-opacity:1;fill-rule:nonzero;stroke:none;font-family:Arial;font-variant:normal;font-weight:bold;font-stretch:normal;font-size:9;writing-mode:lr;-inkscape-font-specification:Arial-BoldMT"
         x="0"
         y="0"
         id="tspan7625">►</tspan></text>
<text
       transform="matrix(1,0,0,-1,69.655,246.386)"
       id="text7659"><tspan
         style="fill:#00965a;fill-opacity:1;fill-rule:nonzero;stroke:none;font-family:Arial;font-variant:normal;font-weight:bold;font-stretch:normal;font-size:9;writing-mode:lr;-inkscape-font-specification:Arial-BoldMT"
         x="0"
         y="0"
         id="tspan7661">►</tspan></text>
<g
       id="g7667"
       transform="translate(71.394,240.711)"><path
         d="M 0,0 0,-30.661"
         style="fill:none;stroke:#000000;stroke-opacity:1;stroke-width:1.417;stroke-linecap:butt;stroke-linejoin:miter;stroke-miterlimit:10;stroke-dasharray:none"
         id="path7669" /></g><text
       transform="matrix(1,0,0,-1,75.119,216.287)"
       id="text7679"><tspan
         style="fill:#00965a;fill-opacity:1;fill-rule:nonzero;stroke:none;font-family:Arial;font-variant:normal;font-weight:bold;font-stretch:normal;font-size:9;writing-mode:lr;-inkscape-font-specification:Arial-BoldMT"
         x="0"
         y="0"
         id="tspan7681">►</tspan></text>
<g
       id="g7687"
       transform="translate(70.685,157.766)"><path
         d="M 0,0 383.503,0"
         style="fill:none;stroke:#000000;stroke-opacity:1;stroke-width:0.5;stroke-linecap:butt;stroke-linejoin:miter;stroke-miterlimit:10;stroke-dasharray:none"
         id="path7689" /></g><g
       id="g7691"
       transform="translate(71.394,210.428)"><path
         d="M 0,0 0,-52.912"
         style="fill:none;stroke:#000000;stroke-opacity:1;stroke-width:1.417;stroke-linecap:butt;stroke-linejoin:miter;stroke-miterlimit:10;stroke-dasharray:none"
         id="path7693" /></g><path
       d="m 76.775,197.147 11,0 0,11 -11,0 0,-11 z"
       style="fill:#ffffff;fill-opacity:1;fill-rule:nonzero;stroke:none"
       id="path7695" /><path
       d="m 76.775,197.147 11,0 0,11 -11,0 0,-11 z"
       style="fill:none;stroke:#000000;stroke-opacity:1;stroke-width:0.5;stroke-linecap:butt;stroke-linejoin:miter;stroke-miterlimit:10;stroke-dasharray:none"
       id="path7697" /><g
       id="g7711"
       transform="translate(88.127,188.063)"><path
         d="M 0,0 0,-30.547"
         style="fill:none;stroke:#000000;stroke-opacity:1;stroke-width:0.5;stroke-linecap:butt;stroke-linejoin:miter;stroke-miterlimit:10;stroke-dasharray:none"
         id="path7713" /></g><g
       id="g7719"
       transform="translate(210.048,188.063)"><path
         d="M 0,0 0,-30.547"
         style="fill:none;stroke:#000000;stroke-opacity:1;stroke-width:0.5;stroke-linecap:butt;stroke-linejoin:miter;stroke-miterlimit:10;stroke-dasharray:none"
         id="path7721" /></g><g
       id="g7727"
       transform="translate(332.221,188.063)"><path
         d="M 0,0 0,-30.547"
         style="fill:none;stroke:#000000;stroke-opacity:1;stroke-width:0.5;stroke-linecap:butt;stroke-linejoin:miter;stroke-miterlimit:10;stroke-dasharray:none"
         id="path7729" /></g><g
       id="g7735"
       transform="translate(70.685,123.333)"><path
         d="M 0,0 383.503,0"
         style="fill:none;stroke:#000000;stroke-opacity:1;stroke-width:0.5;stroke-linecap:butt;stroke-linejoin:miter;stroke-miterlimit:10;stroke-dasharray:none"
         id="path7737" /></g><g
       id="g7739"
       transform="translate(71.394,157.542)"><path
         d="M 0,0 0,-34.459"
         style="fill:none;stroke:#000000;stroke-opacity:1;stroke-width:1.417;stroke-linecap:butt;stroke-linejoin:miter;stroke-miterlimit:10;stroke-dasharray:none"
         id="path7741" /></g><g
       id="g7743"
       transform="translate(88.127,153.63)"><path
         d="M 0,0 0,-30.547"
         style="fill:none;stroke:#000000;stroke-opacity:1;stroke-width:0.5;stroke-linecap:butt;stroke-linejoin:miter;stroke-miterlimit:10;stroke-dasharray:none"
         id="path7745" /></g><g
       id="g7751"
       transform="translate(210.048,153.63)"><path
         d="M 0,0 0,-30.547"
         style="fill:none;stroke:#000000;stroke-opacity:1;stroke-width:0.5;stroke-linecap:butt;stroke-linejoin:miter;stroke-miterlimit:10;stroke-dasharray:none"
         id="path7753" /></g><g
       id="g7759"
       transform="translate(332.221,153.63)"><path
         d="M 0,0 0,-30.547"
         style="fill:none;stroke:#000000;stroke-opacity:1;stroke-width:0.5;stroke-linecap:butt;stroke-linejoin:miter;stroke-miterlimit:10;stroke-dasharray:none"
         id="path7761" /></g><g
       id="g7767"
       transform="translate(70.685,88.762)"><path
         d="M 0,0 383.503,0"
         style="fill:none;stroke:#000000;stroke-opacity:1;stroke-width:0.5;stroke-linecap:butt;stroke-linejoin:miter;stroke-miterlimit:10;stroke-dasharray:none"
         id="path7769" /></g><g
       id="g7771"
       transform="translate(71.394,122.979)"><path
         d="M 0,0 0,-34.467"
         style="fill:none;stroke:#000000;stroke-opacity:1;stroke-width:1.417;stroke-linecap:butt;stroke-linejoin:miter;stroke-miterlimit:10;stroke-dasharray:none"
         id="path7773" /></g><g
       id="g7775"
       transform="translate(88.127,119.059)"><path
         d="M 0,0 0,-30.547"
         style="fill:none;stroke:#000000;stroke-opacity:1;stroke-width:0.5;stroke-linecap:butt;stroke-linejoin:miter;stroke-miterlimit:10;stroke-dasharray:none"
         id="path7777" /></g><g
       id="g7783"
       transform="translate(210.048,119.059)"><path
         d="M 0,0 0,-30.547"
         style="fill:none;stroke:#000000;stroke-opacity:1;stroke-width:0.5;stroke-linecap:butt;stroke-linejoin:miter;stroke-miterlimit:10;stroke-dasharray:none"
         id="path7785" /></g><g
       id="g7791"
       transform="translate(332.221,119.059)"><path
         d="M 0,0 0,-30.547"
         style="fill:none;stroke:#000000;stroke-opacity:1;stroke-width:0.5;stroke-linecap:butt;stroke-linejoin:miter;stroke-miterlimit:10;stroke-dasharray:none"
         id="path7793" /></g><g
       id="g7799"
       transform="translate(70.685,54.35)"><path
         d="M 0,0 383.503,0"
         style="fill:none;stroke:#000000;stroke-opacity:1;stroke-width:0.5;stroke-linecap:butt;stroke-linejoin:miter;stroke-miterlimit:10;stroke-dasharray:none"
         id="path7801" /></g><g
       id="g7803"
       transform="translate(71.394,88.567)"><path
         d="M 0,0 0,-34.467"
         style="fill:none;stroke:#000000;stroke-opacity:1;stroke-width:1.417;stroke-linecap:butt;stroke-linejoin:miter;stroke-miterlimit:10;stroke-dasharray:none"
         id="path7805" /></g><g
       id="g7807"
       transform="translate(88.127,84.647)"><path
         d="M 0,0 0,-30.547"
         style="fill:none;stroke:#000000;stroke-opacity:1;stroke-width:0.5;stroke-linecap:butt;stroke-linejoin:miter;stroke-miterlimit:10;stroke-dasharray:none"
         id="path7809" /></g><g
       id="g7815"
       transform="translate(210.048,84.647)"><path
         d="M 0,0 0,-30.547"
         style="fill:none;stroke:#000000;stroke-opacity:1;stroke-width:0.5;stroke-linecap:butt;stroke-linejoin:miter;stroke-miterlimit:10;stroke-dasharray:none"
         id="path7817" /></g><g
       id="g7823"
       transform="translate(332.221,84.647)"><path
         d="M 0,0 0,-30.547"
         style="fill:none;stroke:#000000;stroke-opacity:1;stroke-width:0.5;stroke-linecap:butt;stroke-linejoin:miter;stroke-miterlimit:10;stroke-dasharray:none"
         id="path7825" /></g></g></svg>