<?xml version="1.0" encoding="UTF-8" standalone="no"?>
<!-- Created with Inkscape (http://www.inkscape.org/) -->

<svg
   xmlns:dc="http://purl.org/dc/elements/1.1/"
   xmlns:cc="http://creativecommons.org/ns#"
   xmlns:rdf="http://www.w3.org/1999/02/22-rdf-syntax-ns#"
   xmlns:svg="http://www.w3.org/2000/svg"
   xmlns="http://www.w3.org/2000/svg"
   xmlns:sodipodi="http://sodipodi.sourceforge.net/DTD/sodipodi-0.dtd"
   xmlns:inkscape="http://www.inkscape.org/namespaces/inkscape"
   id="svg7869"
   version="1.1"
   inkscape:version="0.48.5 r10040"
   width="744.095"
   height="1052.3625"
   xml:space="preserve"
   sodipodi:docname="l6019022dstbai378191.pdf"><metadata
     id="metadata7875"><rdf:RDF><cc:Work
         rdf:about=""><dc:format>image/svg+xml</dc:format><dc:type
           rdf:resource="http://purl.org/dc/dcmitype/StillImage" /><dc:title></dc:title></cc:Work></rdf:RDF></metadata><defs
     id="defs7873" /><sodipodi:namedview
     pagecolor="#ffffff"
     bordercolor="#666666"
     borderopacity="1"
     objecttolerance="10"
     gridtolerance="10"
     guidetolerance="10"
     inkscape:pageopacity="0"
     inkscape:pageshadow="2"
     inkscape:window-width="1280"
     inkscape:window-height="780"
     id="namedview7871"
     showgrid="false"
     inkscape:zoom="1.2685909"
     inkscape:cx="324.2637"
     inkscape:cy="996.49817"
     inkscape:window-x="0"
     inkscape:window-y="20"
     inkscape:window-maximized="1"
     inkscape:current-layer="g7877" /><g
     id="g7877"
     inkscape:groupmode="layer"
     inkscape:label="l6019022dstbai378191"
     transform="matrix(1.25,0,0,-1.25,0,1052.3625)"><path
       d="m 438.738,42.095 99.213,0 0,755.433 -99.213,0 0,-755.433 z"
       style="fill:none;stroke:#000000;stroke-opacity:1;stroke-width:1;stroke-linecap:butt;stroke-linejoin:miter;stroke-miterlimit:10;stroke-dasharray:none"
       id="path7891" /><path
       d="m 441.335,432.567 11.055,0 0,11.055 -11.055,0 0,-11.055 z"
       style="fill:none;stroke:#000000;stroke-opacity:1;stroke-width:0.5;stroke-linecap:butt;stroke-linejoin:miter;stroke-miterlimit:10;stroke-dasharray:none"
       id="path7901" /><g
       id="g7903"
       transform="translate(456.063,432.908)"><path
         d="M 0,0 79.968,0"
         style="fill:none;stroke:#000000;stroke-opacity:1;stroke-width:0.5;stroke-linecap:square;stroke-linejoin:miter;stroke-miterlimit:10;stroke-dasharray:none"
         id="path7905" /></g><path
       d="m 441.335,359.317 11.055,0 0,11.055 -11.055,0 0,-11.055 z"
       style="fill:none;stroke:#000000;stroke-opacity:1;stroke-width:0.5;stroke-linecap:butt;stroke-linejoin:miter;stroke-miterlimit:10;stroke-dasharray:none"
       id="path7907" /><path
       d="m 441.335,305.913 11.055,0 0,11.055 -11.055,0 0,-11.055 z"
       style="fill:none;stroke:#000000;stroke-opacity:1;stroke-width:0.5;stroke-linecap:butt;stroke-linejoin:miter;stroke-miterlimit:10;stroke-dasharray:none"
       id="path7913" /><path
       d="m 441.335,253.132 11.055,0 0,11.055 -11.055,0 0,-11.055 z"
       style="fill:none;stroke:#000000;stroke-opacity:1;stroke-width:0.5;stroke-linecap:butt;stroke-linejoin:miter;stroke-miterlimit:10;stroke-dasharray:none"
       id="path7919" /><path
       d="m 441.335,173.926 11.055,0 0,11.055 -11.055,0 0,-11.055 z"
       style="fill:none;stroke:#000000;stroke-opacity:1;stroke-width:0.5;stroke-linecap:butt;stroke-linejoin:miter;stroke-miterlimit:10;stroke-dasharray:none"
       id="path7925" /><path
       d="m 441.335,95.327 11.055,0 0,11.055 -11.055,0 0,-11.055 z"
       style="fill:none;stroke:#000000;stroke-opacity:1;stroke-width:0.5;stroke-linecap:butt;stroke-linejoin:miter;stroke-miterlimit:10;stroke-dasharray:none"
       id="path7931" /><path
       d="m 441.335,44.933 11.055,0 0,11.055 -11.055,0 0,-11.055 z"
       style="fill:none;stroke:#000000;stroke-opacity:1;stroke-width:0.5;stroke-linecap:butt;stroke-linejoin:miter;stroke-miterlimit:10;stroke-dasharray:none"
       id="path7937" /><g
       id="g7943"
       transform="translate(24.517,747.236)"><path
         d="M 0,0 383.469,0"
         style="fill:none;stroke:#000000;stroke-opacity:1;stroke-width:0.5;stroke-linecap:butt;stroke-linejoin:miter;stroke-miterlimit:10;stroke-dasharray:none"
         id="path7945" /></g><g
       id="g7947"
       transform="translate(25.226,798.498)"><path
         d="M 0,0 0,-51.512"
         style="fill:none;stroke:#000000;stroke-opacity:1;stroke-width:1.417;stroke-linecap:butt;stroke-linejoin:miter;stroke-miterlimit:10;stroke-dasharray:none"
         id="path7949" /></g><path
       d="m 30.607,784.018 11,0 0,11 -11,0 0,-11 z"
       style="fill:#ffffff;fill-opacity:1;fill-rule:nonzero;stroke:none"
       id="path7951" /><path
       d="m 30.607,784.018 11,0 0,11 -11,0 0,-11 z"
       style="fill:none;stroke:#000000;stroke-opacity:1;stroke-width:0.5;stroke-linecap:butt;stroke-linejoin:miter;stroke-miterlimit:10;stroke-dasharray:none"
       id="path7953" /><g
       id="g7967"
       transform="translate(41.959,777.533)"><path
         d="M 0,0 0,-30.547"
         style="fill:none;stroke:#000000;stroke-opacity:1;stroke-width:0.5;stroke-linecap:butt;stroke-linejoin:miter;stroke-miterlimit:10;stroke-dasharray:none"
         id="path7969" /></g><g
       id="g7975"
       transform="translate(163.88,777.533)"><path
         d="M 0,0 0,-30.547"
         style="fill:none;stroke:#000000;stroke-opacity:1;stroke-width:0.5;stroke-linecap:butt;stroke-linejoin:miter;stroke-miterlimit:10;stroke-dasharray:none"
         id="path7977" /></g><g
       id="g7983"
       transform="translate(24.517,726.977)"><path
         d="M 0,0 383.503,0"
         style="fill:none;stroke:#000000;stroke-opacity:1;stroke-width:0.5;stroke-linecap:butt;stroke-linejoin:miter;stroke-miterlimit:10;stroke-dasharray:none"
         id="path7985" /></g><g
       id="g7987"
       transform="translate(25.226,746.786)"><path
         d="M 0,0 0,-20.059"
         style="fill:none;stroke:#000000;stroke-opacity:1;stroke-width:1.417;stroke-linecap:butt;stroke-linejoin:miter;stroke-miterlimit:10;stroke-dasharray:none"
         id="path7989" /></g><path
       d="m 30.607,731.541 11,0 0,11 -11,0 0,-11 z"
       style="fill:#ffffff;fill-opacity:1;fill-rule:nonzero;stroke:none"
       id="path7991" /><path
       d="m 30.607,731.541 11,0 0,11 -11,0 0,-11 z"
       style="fill:none;stroke:#000000;stroke-opacity:1;stroke-width:0.5;stroke-linecap:butt;stroke-linejoin:miter;stroke-miterlimit:10;stroke-dasharray:none"
       id="path7993" /><g
       id="g8007"
       transform="translate(24.517,707.049)"><path
         d="M 0,0 383.503,0"
         style="fill:none;stroke:#000000;stroke-opacity:1;stroke-width:0.5;stroke-linecap:butt;stroke-linejoin:miter;stroke-miterlimit:10;stroke-dasharray:none"
         id="path8009" /></g><g
       id="g8011"
       transform="translate(25.226,726.858)"><path
         d="M 0,0 0,-20.059"
         style="fill:none;stroke:#000000;stroke-opacity:1;stroke-width:1.417;stroke-linecap:butt;stroke-linejoin:miter;stroke-miterlimit:10;stroke-dasharray:none"
         id="path8013" /></g><path
       d="m 30.607,711.613 11,0 0,11 -11,0 0,-11 z"
       style="fill:#ffffff;fill-opacity:1;fill-rule:nonzero;stroke:none"
       id="path8015" /><path
       d="m 30.607,711.613 11,0 0,11 -11,0 0,-11 z"
       style="fill:none;stroke:#000000;stroke-opacity:1;stroke-width:0.5;stroke-linecap:butt;stroke-linejoin:miter;stroke-miterlimit:10;stroke-dasharray:none"
       id="path8017" /><g
       id="g8031"
       transform="translate(24.517,648.004)"><path
         d="M 0,0 383.503,0"
         style="fill:none;stroke:#000000;stroke-opacity:1;stroke-width:0.5;stroke-linecap:butt;stroke-linejoin:miter;stroke-miterlimit:10;stroke-dasharray:none"
         id="path8033" /></g><g
       id="g8035"
       transform="translate(25.226,710.868)"><path
         d="M 0,0 0,-63.114"
         style="fill:none;stroke:#000000;stroke-opacity:1;stroke-width:1.417;stroke-linecap:butt;stroke-linejoin:miter;stroke-miterlimit:10;stroke-dasharray:none"
         id="path8037" /></g><path
       d="m 30.624,688.536 11,0 0,11 -11,0 0,-11 z"
       style="fill:#ffffff;fill-opacity:1;fill-rule:nonzero;stroke:none"
       id="path8039" /><path
       d="m 30.624,688.536 11,0 0,11 -11,0 0,-11 z"
       style="fill:none;stroke:#000000;stroke-opacity:1;stroke-width:0.5;stroke-linecap:butt;stroke-linejoin:miter;stroke-miterlimit:10;stroke-dasharray:none"
       id="path8041" /><g
       id="g8057"
       transform="translate(41.959,678.301)"><path
         d="M 0,0 0,-30.547"
         style="fill:none;stroke:#000000;stroke-opacity:1;stroke-width:0.5;stroke-linecap:butt;stroke-linejoin:miter;stroke-miterlimit:10;stroke-dasharray:none"
         id="path8059" /></g><g
       id="g8065"
       transform="translate(163.88,678.301)"><path
         d="M 0,0 0,-30.547"
         style="fill:none;stroke:#000000;stroke-opacity:1;stroke-width:0.5;stroke-linecap:butt;stroke-linejoin:miter;stroke-miterlimit:10;stroke-dasharray:none"
         id="path8067" /></g><g
       id="g8073"
       transform="translate(286.053,678.301)"><path
         d="M 0,0 0,-30.547"
         style="fill:none;stroke:#000000;stroke-opacity:1;stroke-width:0.5;stroke-linecap:butt;stroke-linejoin:miter;stroke-miterlimit:10;stroke-dasharray:none"
         id="path8075" /></g><g
       id="g8081"
       transform="translate(24.517,612.877)"><path
         d="M 0,0 383.503,0"
         style="fill:none;stroke:#000000;stroke-opacity:1;stroke-width:1.417;stroke-linecap:butt;stroke-linejoin:miter;stroke-miterlimit:10;stroke-dasharray:none"
         id="path8083" /></g><g
       id="g8085"
       transform="translate(25.226,647.718)"><path
         d="M 0,0 0,-35.55"
         style="fill:none;stroke:#000000;stroke-opacity:1;stroke-width:1.417;stroke-linecap:butt;stroke-linejoin:miter;stroke-miterlimit:10;stroke-dasharray:none"
         id="path8087" /></g><g
       id="g8089"
       transform="translate(41.959,644.214)"><path
         d="M 0,0 0,-30.547"
         style="fill:none;stroke:#000000;stroke-opacity:1;stroke-width:0.5;stroke-linecap:butt;stroke-linejoin:miter;stroke-miterlimit:10;stroke-dasharray:none"
         id="path8091" /></g><g
       id="g8097"
       transform="translate(163.88,644.214)"><path
         d="M 0,0 0,-30.547"
         style="fill:none;stroke:#000000;stroke-opacity:1;stroke-width:0.5;stroke-linecap:butt;stroke-linejoin:miter;stroke-miterlimit:10;stroke-dasharray:none"
         id="path8099" /></g><g
       id="g8105"
       transform="translate(286.053,644.214)"><path
         d="M 0,0 0,-30.547"
         style="fill:none;stroke:#000000;stroke-opacity:1;stroke-width:0.5;stroke-linecap:butt;stroke-linejoin:miter;stroke-miterlimit:10;stroke-dasharray:none"
         id="path8107" /></g><text
       transform="matrix(1,0,0,-1,23.81,597.78)"
       id="text8113"><tspan
         style="font-size:9px;font-variant:normal;font-weight:bold;font-stretch:normal;writing-mode:lr-tb;fill:#000000;fill-opacity:1;fill-rule:nonzero;stroke:none;font-family:Arial;-inkscape-font-specification:Arial-BoldMT"
         x="0 5.0040002 7.506"
         y="0"
         sodipodi:role="line"
         id="tspan8115">6.2</tspan></text>
<g
       id="g8117"
       transform="translate(25.226,592.241)"><path
         d="M 0,0 0,-39.902"
         style="fill:none;stroke:#000000;stroke-opacity:1;stroke-width:1.417;stroke-linecap:butt;stroke-linejoin:miter;stroke-miterlimit:10;stroke-dasharray:none"
         id="path8119" /></g><path
       d="m 30.642,578.187 11,0 0,11 -11,0 0,-11 z"
       style="fill:#ffffff;fill-opacity:1;fill-rule:nonzero;stroke:none"
       id="path8121" /><path
       d="m 30.642,578.187 11,0 0,11 -11,0 0,-11 z"
       style="fill:none;stroke:#000000;stroke-opacity:1;stroke-width:0.5;stroke-linecap:butt;stroke-linejoin:miter;stroke-miterlimit:10;stroke-dasharray:none"
       id="path8123" /><g
       id="g8133"
       transform="translate(24.517,517.958)"><path
         d="M 0,0 383.503,0"
         style="fill:none;stroke:#000000;stroke-opacity:1;stroke-width:0.5;stroke-linecap:butt;stroke-linejoin:miter;stroke-miterlimit:10;stroke-dasharray:none"
         id="path8135" /></g><g
       id="g8137"
       transform="translate(25.226,552.374)"><path
         d="M 0,0 0,-34.666"
         style="fill:none;stroke:#000000;stroke-opacity:1;stroke-width:1.417;stroke-linecap:butt;stroke-linejoin:miter;stroke-miterlimit:10;stroke-dasharray:none"
         id="path8139" /></g><g
       id="g8141"
       transform="translate(41.959,548.859)"><path
         d="M 0,0 0,-30.547"
         style="fill:none;stroke:#000000;stroke-opacity:1;stroke-width:0.5;stroke-linecap:butt;stroke-linejoin:miter;stroke-miterlimit:10;stroke-dasharray:none"
         id="path8143" /></g><g
       id="g8149"
       transform="translate(225.043,548.859)"><path
         d="M 0,0 0,-30.547"
         style="fill:none;stroke:#000000;stroke-opacity:1;stroke-width:0.5;stroke-linecap:butt;stroke-linejoin:miter;stroke-miterlimit:10;stroke-dasharray:none"
         id="path8151" /></g><g
       id="g8157"
       transform="translate(24.517,482.625)"><path
         d="M 0,0 383.503,0"
         style="fill:none;stroke:#000000;stroke-opacity:1;stroke-width:0.5;stroke-linecap:butt;stroke-linejoin:miter;stroke-miterlimit:10;stroke-dasharray:none"
         id="path8159" /></g><g
       id="g8161"
       transform="translate(25.226,517.656)"><path
         d="M 0,0 0,-35.281"
         style="fill:none;stroke:#000000;stroke-opacity:1;stroke-width:1.417;stroke-linecap:butt;stroke-linejoin:miter;stroke-miterlimit:10;stroke-dasharray:none"
         id="path8163" /></g><g
       id="g8165"
       transform="translate(41.959,513.489)"><path
         d="M 0,0 0,-30.547"
         style="fill:none;stroke:#000000;stroke-opacity:1;stroke-width:0.5;stroke-linecap:butt;stroke-linejoin:miter;stroke-miterlimit:10;stroke-dasharray:none"
         id="path8167" /></g><g
       id="g8173"
       transform="translate(24.517,447.568)"><path
         d="M 0,0 383.503,0"
         style="fill:none;stroke:#000000;stroke-opacity:1;stroke-width:0.5;stroke-linecap:butt;stroke-linejoin:miter;stroke-miterlimit:10;stroke-dasharray:none"
         id="path8175" /></g><g
       id="g8177"
       transform="translate(25.226,482.599)"><path
         d="M 0,0 0,-35.281"
         style="fill:none;stroke:#000000;stroke-opacity:1;stroke-width:1.417;stroke-linecap:butt;stroke-linejoin:miter;stroke-miterlimit:10;stroke-dasharray:none"
         id="path8179" /></g><g
       id="g8181"
       transform="translate(41.959,478.319)"><path
         d="M 0,0 0,-30.547"
         style="fill:none;stroke:#000000;stroke-opacity:1;stroke-width:0.5;stroke-linecap:butt;stroke-linejoin:miter;stroke-miterlimit:10;stroke-dasharray:none"
         id="path8183" /></g><g
       id="g8189"
       transform="translate(225.043,478.319)"><path
         d="M 0,0 0,-30.547"
         style="fill:none;stroke:#000000;stroke-opacity:1;stroke-width:0.5;stroke-linecap:butt;stroke-linejoin:miter;stroke-miterlimit:10;stroke-dasharray:none"
         id="path8191" /></g><g
       id="g8197"
       transform="translate(24.517,433.211)"><path
         d="M 0,0 383.503,0"
         style="fill:none;stroke:#000000;stroke-opacity:1;stroke-width:1.417;stroke-linecap:butt;stroke-linejoin:miter;stroke-miterlimit:10;stroke-dasharray:none"
         id="path8199" /></g><g
       id="g8201"
       transform="translate(25.226,447.498)"><path
         d="M 0,0 0,-14.996"
         style="fill:none;stroke:#000000;stroke-opacity:1;stroke-width:1.417;stroke-linecap:butt;stroke-linejoin:miter;stroke-miterlimit:10;stroke-dasharray:none"
         id="path8203" /></g><text
       transform="matrix(1,0,0,-1,40.283,438.008)"
       id="text8205"><tspan
         style="fill:#00965a;fill-opacity:1;fill-rule:nonzero;stroke:none;font-family:Arial;font-variant:normal;font-weight:bold;font-stretch:normal;font-size:9;writing-mode:lr;-inkscape-font-specification:Arial-BoldMT"
         x="0"
         y="0"
         id="tspan8207">►</tspan></text>
<text
       transform="matrix(1,0,0,-1,23.813,417.362)"
       id="text8213"><tspan
         style="font-size:9px;font-variant:normal;font-weight:bold;font-stretch:normal;writing-mode:lr-tb;fill:#000000;fill-opacity:1;fill-rule:nonzero;stroke:none;font-family:Arial;-inkscape-font-specification:Arial-BoldMT"
         x="0 5.0040002 7.506"
         y="0"
         sodipodi:role="line"
         id="tspan8215">6.3</tspan></text>
<g
       id="g8217"
       transform="translate(24.517,359.196)"><path
         d="M 0,0 383.503,0"
         style="fill:none;stroke:#000000;stroke-opacity:1;stroke-width:0.5;stroke-linecap:butt;stroke-linejoin:miter;stroke-miterlimit:10;stroke-dasharray:none"
         id="path8219" /></g><g
       id="g8221"
       transform="translate(25.226,411.745)"><path
         d="M 0,0 0,-52.799"
         style="fill:none;stroke:#000000;stroke-opacity:1;stroke-width:1.417;stroke-linecap:butt;stroke-linejoin:miter;stroke-miterlimit:10;stroke-dasharray:none"
         id="path8223" /></g><path
       d="m 30.642,397.377 11,0 0,11 -11,0 0,-11 z"
       style="fill:#ffffff;fill-opacity:1;fill-rule:nonzero;stroke:none"
       id="path8225" /><path
       d="m 30.642,397.377 11,0 0,11 -11,0 0,-11 z"
       style="fill:none;stroke:#000000;stroke-opacity:1;stroke-width:0.5;stroke-linecap:butt;stroke-linejoin:miter;stroke-miterlimit:10;stroke-dasharray:none"
       id="path8227" /><text
       transform="matrix(1,0,0,-1,44.681,364.706)"
       id="text8237"><tspan
         style="fill:#00965a;fill-opacity:1;fill-rule:nonzero;stroke:none;font-family:Arial;font-variant:normal;font-weight:bold;font-stretch:normal;font-size:9;writing-mode:lr;-inkscape-font-specification:Arial-BoldMT"
         x="0"
         y="0"
         id="tspan8239">►</tspan></text>
<g
       id="g8253"
       transform="translate(24.517,306.023)"><path
         d="M 0,0 383.503,0"
         style="fill:none;stroke:#000000;stroke-opacity:1;stroke-width:0.5;stroke-linecap:butt;stroke-linejoin:miter;stroke-miterlimit:10;stroke-dasharray:none"
         id="path8255" /></g><g
       id="g8257"
       transform="translate(25.226,358.856)"><path
         d="M 0,0 0,-53.083"
         style="fill:none;stroke:#000000;stroke-opacity:1;stroke-width:1.417;stroke-linecap:butt;stroke-linejoin:miter;stroke-miterlimit:10;stroke-dasharray:none"
         id="path8259" /></g><path
       d="m 30.642,344.391 11,0 0,11 -11,0 0,-11 z"
       style="fill:#ffffff;fill-opacity:1;fill-rule:nonzero;stroke:none"
       id="path8261" /><path
       d="m 30.642,344.391 11,0 0,11 -11,0 0,-11 z"
       style="fill:none;stroke:#000000;stroke-opacity:1;stroke-width:0.5;stroke-linecap:butt;stroke-linejoin:miter;stroke-miterlimit:10;stroke-dasharray:none"
       id="path8263" /><text
       transform="matrix(1,0,0,-1,44.708,311.362)"
       id="text8273"><tspan
         style="fill:#00965a;fill-opacity:1;fill-rule:nonzero;stroke:none;font-family:Arial;font-variant:normal;font-weight:bold;font-stretch:normal;font-size:9;writing-mode:lr;-inkscape-font-specification:Arial-BoldMT"
         x="0"
         y="0"
         id="tspan8275">►</tspan></text>
<g
       id="g8289"
       transform="translate(24.517,252.899)"><path
         d="M 0,0 383.503,0"
         style="fill:none;stroke:#000000;stroke-opacity:1;stroke-width:0.5;stroke-linecap:butt;stroke-linejoin:miter;stroke-miterlimit:10;stroke-dasharray:none"
         id="path8291" /></g><g
       id="g8293"
       transform="translate(25.226,305.732)"><path
         d="M 0,0 0,-53.083"
         style="fill:none;stroke:#000000;stroke-opacity:1;stroke-width:1.417;stroke-linecap:butt;stroke-linejoin:miter;stroke-miterlimit:10;stroke-dasharray:none"
         id="path8295" /></g><path
       d="m 30.642,291.361 11,0 0,11 -11,0 0,-11 z"
       style="fill:#ffffff;fill-opacity:1;fill-rule:nonzero;stroke:none"
       id="path8297" /><path
       d="m 30.642,291.361 11,0 0,11 -11,0 0,-11 z"
       style="fill:none;stroke:#000000;stroke-opacity:1;stroke-width:0.5;stroke-linecap:butt;stroke-linejoin:miter;stroke-miterlimit:10;stroke-dasharray:none"
       id="path8299" /><text
       transform="matrix(1,0,0,-1,44.708,258.577)"
       id="text8309"><tspan
         style="fill:#00965a;fill-opacity:1;fill-rule:nonzero;stroke:none;font-family:Arial;font-variant:normal;font-weight:bold;font-stretch:normal;font-size:9;writing-mode:lr;-inkscape-font-specification:Arial-BoldMT"
         x="0"
         y="0"
         id="tspan8311">►</tspan></text>
<g
       id="g8325"
       transform="translate(24.517,173.952)"><path
         d="M 0,0 383.503,0"
         style="fill:none;stroke:#000000;stroke-opacity:1;stroke-width:0.5;stroke-linecap:butt;stroke-linejoin:miter;stroke-miterlimit:10;stroke-dasharray:none"
         id="path8327" /></g><g
       id="g8329"
       transform="translate(25.226,252.438)"><path
         d="M 0,0 0,-78.736"
         style="fill:none;stroke:#000000;stroke-opacity:1;stroke-width:1.417;stroke-linecap:butt;stroke-linejoin:miter;stroke-miterlimit:10;stroke-dasharray:none"
         id="path8331" /></g><path
       d="m 30.607,237.626 11,0 0,11 -11,0 0,-11 z"
       style="fill:#ffffff;fill-opacity:1;fill-rule:nonzero;stroke:none"
       id="path8333" /><path
       d="m 30.607,237.626 11,0 0,11 -11,0 0,-11 z"
       style="fill:none;stroke:#000000;stroke-opacity:1;stroke-width:0.5;stroke-linecap:butt;stroke-linejoin:miter;stroke-miterlimit:10;stroke-dasharray:none"
       id="path8335" /><text
       transform="matrix(1,0,0,-1,44.724,179.403)"
       id="text8361"><tspan
         style="fill:#00965a;fill-opacity:1;fill-rule:nonzero;stroke:none;font-family:Arial;font-variant:normal;font-weight:bold;font-stretch:normal;font-size:9;writing-mode:lr;-inkscape-font-specification:Arial-BoldMT"
         x="0"
         y="0"
         id="tspan8363">►</tspan></text>
<g
       id="g8377"
       transform="translate(24.517,95.29)"><path
         d="M 0,0 383.503,0"
         style="fill:none;stroke:#000000;stroke-opacity:1;stroke-width:0.5;stroke-linecap:butt;stroke-linejoin:miter;stroke-miterlimit:10;stroke-dasharray:none"
         id="path8379" /></g><g
       id="g8381"
       transform="translate(25.226,173.805)"><path
         d="M 0,0 0,-78.765"
         style="fill:none;stroke:#000000;stroke-opacity:1;stroke-width:1.417;stroke-linecap:butt;stroke-linejoin:miter;stroke-miterlimit:10;stroke-dasharray:none"
         id="path8383" /></g><path
       d="m 30.607,158.588 11,0 0,11 -11,0 0,-11 z"
       style="fill:#ffffff;fill-opacity:1;fill-rule:nonzero;stroke:none"
       id="path8385" /><path
       d="m 30.607,158.588 11,0 0,11 -11,0 0,-11 z"
       style="fill:none;stroke:#000000;stroke-opacity:1;stroke-width:0.5;stroke-linecap:butt;stroke-linejoin:miter;stroke-miterlimit:10;stroke-dasharray:none"
       id="path8387" /><text
       transform="matrix(1,0,0,-1,44.679,100.794)"
       id="text8413"><tspan
         style="fill:#00965a;fill-opacity:1;fill-rule:nonzero;stroke:none;font-family:Arial;font-variant:normal;font-weight:bold;font-stretch:normal;font-size:9;writing-mode:lr;-inkscape-font-specification:Arial-BoldMT"
         x="0"
         y="0"
         id="tspan8415">►</tspan></text>
<g
       id="g8429"
       transform="translate(24.517,42.089)"><path
         d="M 0,0 383.503,0"
         style="fill:none;stroke:#000000;stroke-opacity:1;stroke-width:0.5;stroke-linecap:butt;stroke-linejoin:miter;stroke-miterlimit:10;stroke-dasharray:none"
         id="path8431" /></g><g
       id="g8433"
       transform="translate(25.226,94.922)"><path
         d="M 0,0 0,-53.083"
         style="fill:none;stroke:#000000;stroke-opacity:1;stroke-width:1.417;stroke-linecap:butt;stroke-linejoin:miter;stroke-miterlimit:10;stroke-dasharray:none"
         id="path8435" /></g><path
       d="m 30.642,80.018 11,0 0,11 -11,0 0,-11 z"
       style="fill:#ffffff;fill-opacity:1;fill-rule:nonzero;stroke:none"
       id="path8437" /><path
       d="m 30.642,80.018 11,0 0,11 -11,0 0,-11 z"
       style="fill:none;stroke:#000000;stroke-opacity:1;stroke-width:0.5;stroke-linecap:butt;stroke-linejoin:miter;stroke-miterlimit:10;stroke-dasharray:none"
       id="path8439" /><text
       transform="matrix(1,0,0,-1,44.978,47.791)"
       id="text8449"><tspan
         style="fill:#00965a;fill-opacity:1;fill-rule:nonzero;stroke:none;font-family:Arial;font-variant:normal;font-weight:bold;font-stretch:normal;font-size:9;writing-mode:lr;-inkscape-font-specification:Arial-BoldMT"
         x="0"
         y="0"
         id="tspan8451">►</tspan></text>
</g></svg>