<?xml version="1.0" encoding="UTF-8" standalone="no"?>
<!-- Created with Inkscape (http://www.inkscape.org/) -->

<svg
   xmlns:dc="http://purl.org/dc/elements/1.1/"
   xmlns:cc="http://creativecommons.org/ns#"
   xmlns:rdf="http://www.w3.org/1999/02/22-rdf-syntax-ns#"
   xmlns:svg="http://www.w3.org/2000/svg"
   xmlns="http://www.w3.org/2000/svg"
   version="1.1"
   width="744.09497"
   height="1052.3625"
   id="svg2"
   xml:space="preserve"><metadata
     id="metadata8"><rdf:RDF><cc:Work
         rdf:about=""><dc:format>image/svg+xml</dc:format><dc:type
           rdf:resource="http://purl.org/dc/dcmitype/StillImage" /><dc:title></dc:title></cc:Work></rdf:RDF></metadata><defs
     id="defs6" /><g
     transform="matrix(1.25,0,0,-1.25,0,1052.3625)"
     id="g10"><path
       d="m 438.738,42.095 99.213,0 0,755.433 -99.213,0 0,-755.433 z"
       id="path24"
       style="fill:none;stroke:#000000;stroke-width:1;stroke-linecap:butt;stroke-linejoin:miter;stroke-miterlimit:10;stroke-opacity:1;stroke-dasharray:none" /><path
       d="m 441.335,762.01 11.055,0 0,11.055 -11.055,0 0,-11.055 z"
       id="path34"
       style="fill:none;stroke:#000000;stroke-width:0.5;stroke-linecap:butt;stroke-linejoin:miter;stroke-miterlimit:10;stroke-opacity:1;stroke-dasharray:none" /><g
       transform="translate(456.063,762.35)"
       id="g36"><path
         d="M 0,0 79.968,0"
         id="path38"
         style="fill:none;stroke:#000000;stroke-width:0.5;stroke-linecap:square;stroke-linejoin:miter;stroke-miterlimit:10;stroke-opacity:1;stroke-dasharray:none" /></g><path
       d="m 441.335,289.645 11.055,0 0,11.055 -11.055,0 0,-11.055 z"
       id="path40"
       style="fill:none;stroke:#000000;stroke-width:0.5;stroke-linecap:butt;stroke-linejoin:miter;stroke-miterlimit:10;stroke-opacity:1;stroke-dasharray:none" /><g
       transform="translate(456.063,289.985)"
       id="g42"><path
         d="M 0,0 79.968,0"
         id="path44"
         style="fill:none;stroke:#000000;stroke-width:0.5;stroke-linecap:square;stroke-linejoin:miter;stroke-miterlimit:10;stroke-opacity:1;stroke-dasharray:none" /></g><path
       d="m 441.335,222.234 11.055,0 0,11.055 -11.055,0 0,-11.055 z"
       id="path46"
       style="fill:none;stroke:#000000;stroke-width:0.5;stroke-linecap:butt;stroke-linejoin:miter;stroke-miterlimit:10;stroke-opacity:1;stroke-dasharray:none" /><path
       d="m 441.335,171.777 11.055,0 0,11.055 -11.055,0 0,-11.055 z"
       id="path52"
       style="fill:none;stroke:#000000;stroke-width:0.5;stroke-linecap:butt;stroke-linejoin:miter;stroke-miterlimit:10;stroke-opacity:1;stroke-dasharray:none" /><path
       d="m 441.335,121.207 11.055,0 0,11.055 -11.055,0 0,-11.055 z"
       id="path58"
       style="fill:none;stroke:#000000;stroke-width:0.5;stroke-linecap:butt;stroke-linejoin:miter;stroke-miterlimit:10;stroke-opacity:1;stroke-dasharray:none" /><path
       d="m 441.335,44.95 11.055,0 0,11.055 -11.055,0 0,-11.055 z"
       id="path64"
       style="fill:none;stroke:#000000;stroke-width:0.5;stroke-linecap:butt;stroke-linejoin:miter;stroke-miterlimit:10;stroke-opacity:1;stroke-dasharray:none" /><g
       transform="translate(25.226,797.274)"
       id="g70"><path
         d="M 0,0 0,-24.875"
         id="path72"
         style="fill:none;stroke:#000000;stroke-width:1.41700006;stroke-linecap:butt;stroke-linejoin:miter;stroke-miterlimit:10;stroke-opacity:1;stroke-dasharray:none" /></g><text
       transform="matrix(1,0,0,-1,29.882,776.198)"
       id="text82"><tspan
         x="0"
         y="0"
         id="tspan84"
         style="font-size:9px;font-variant:normal;font-weight:bold;font-stretch:normal;writing-mode:lr-tb;fill:#00965a;fill-opacity:1;fill-rule:nonzero;stroke:none;font-family:Arial;-inkscape-font-specification:Arial-BoldMT">►</tspan></text>
<g
       transform="translate(24.517,717.141)"
       id="g90"><path
         d="M 0,0 383.503,0"
         id="path92"
         style="fill:none;stroke:#000000;stroke-width:0.5;stroke-linecap:butt;stroke-linejoin:miter;stroke-miterlimit:10;stroke-opacity:1;stroke-dasharray:none" /></g><g
       transform="translate(25.226,774.109)"
       id="g94"><path
         d="M 0,0 0,-57.218"
         id="path96"
         style="fill:none;stroke:#000000;stroke-width:1.41700006;stroke-linecap:butt;stroke-linejoin:miter;stroke-miterlimit:10;stroke-opacity:1;stroke-dasharray:none" /></g><path
       d="m 30.624,755.66 11,0 0,11 -11,0 0,-11 z"
       id="path98"
       style="fill:#ffffff;fill-opacity:1;fill-rule:nonzero;stroke:none" /><path
       d="m 30.624,755.66 11,0 0,11 -11,0 0,-11 z"
       id="path100"
       style="fill:none;stroke:#000000;stroke-width:0.5;stroke-linecap:butt;stroke-linejoin:miter;stroke-miterlimit:10;stroke-opacity:1;stroke-dasharray:none" /><g
       transform="translate(41.959,747.438)"
       id="g114"><path
         d="M 0,0 0,-30.547"
         id="path116"
         style="fill:none;stroke:#000000;stroke-width:0.5;stroke-linecap:butt;stroke-linejoin:miter;stroke-miterlimit:10;stroke-opacity:1;stroke-dasharray:none" /></g><g
       transform="translate(163.88,747.438)"
       id="g122"><path
         d="M 0,0 0,-30.547"
         id="path124"
         style="fill:none;stroke:#000000;stroke-width:0.5;stroke-linecap:butt;stroke-linejoin:miter;stroke-miterlimit:10;stroke-opacity:1;stroke-dasharray:none" /></g><g
       transform="translate(286.053,747.438)"
       id="g130"><path
         d="M 0,0 0,-30.547"
         id="path132"
         style="fill:none;stroke:#000000;stroke-width:0.5;stroke-linecap:butt;stroke-linejoin:miter;stroke-miterlimit:10;stroke-opacity:1;stroke-dasharray:none" /></g><g
       transform="translate(24.517,681.824)"
       id="g138"><path
         d="M 0,0 383.503,0"
         id="path140"
         style="fill:none;stroke:#000000;stroke-width:0.5;stroke-linecap:butt;stroke-linejoin:miter;stroke-miterlimit:10;stroke-opacity:1;stroke-dasharray:none" /></g><g
       transform="translate(25.226,716.855)"
       id="g142"><path
         d="M 0,0 0,-35.281"
         id="path144"
         style="fill:none;stroke:#000000;stroke-width:1.41700006;stroke-linecap:butt;stroke-linejoin:miter;stroke-miterlimit:10;stroke-opacity:1;stroke-dasharray:none" /></g><g
       transform="translate(41.959,712.994)"
       id="g146"><path
         d="M 0,0 0,-30.547"
         id="path148"
         style="fill:none;stroke:#000000;stroke-width:0.5;stroke-linecap:butt;stroke-linejoin:miter;stroke-miterlimit:10;stroke-opacity:1;stroke-dasharray:none" /></g><g
       transform="translate(163.88,712.994)"
       id="g154"><path
         d="M 0,0 0,-30.547"
         id="path156"
         style="fill:none;stroke:#000000;stroke-width:0.5;stroke-linecap:butt;stroke-linejoin:miter;stroke-miterlimit:10;stroke-opacity:1;stroke-dasharray:none" /></g><g
       transform="translate(286.053,712.994)"
       id="g162"><path
         d="M 0,0 0,-30.547"
         id="path164"
         style="fill:none;stroke:#000000;stroke-width:0.5;stroke-linecap:butt;stroke-linejoin:miter;stroke-miterlimit:10;stroke-opacity:1;stroke-dasharray:none" /></g><g
       transform="translate(24.517,646.787)"
       id="g170"><path
         d="M 0,0 383.503,0"
         id="path172"
         style="fill:none;stroke:#000000;stroke-width:0.5;stroke-linecap:butt;stroke-linejoin:miter;stroke-miterlimit:10;stroke-opacity:1;stroke-dasharray:none" /></g><g
       transform="translate(25.226,681.818)"
       id="g174"><path
         d="M 0,0 0,-35.281"
         id="path176"
         style="fill:none;stroke:#000000;stroke-width:1.41700006;stroke-linecap:butt;stroke-linejoin:miter;stroke-miterlimit:10;stroke-opacity:1;stroke-dasharray:none" /></g><g
       transform="translate(41.959,677.957)"
       id="g178"><path
         d="M 0,0 0,-30.547"
         id="path180"
         style="fill:none;stroke:#000000;stroke-width:0.5;stroke-linecap:butt;stroke-linejoin:miter;stroke-miterlimit:10;stroke-opacity:1;stroke-dasharray:none" /></g><g
       transform="translate(163.88,677.957)"
       id="g186"><path
         d="M 0,0 0,-30.547"
         id="path188"
         style="fill:none;stroke:#000000;stroke-width:0.5;stroke-linecap:butt;stroke-linejoin:miter;stroke-miterlimit:10;stroke-opacity:1;stroke-dasharray:none" /></g><g
       transform="translate(286.053,677.957)"
       id="g194"><path
         d="M 0,0 0,-30.547"
         id="path196"
         style="fill:none;stroke:#000000;stroke-width:0.5;stroke-linecap:butt;stroke-linejoin:miter;stroke-miterlimit:10;stroke-opacity:1;stroke-dasharray:none" /></g><g
       transform="translate(24.517,595.412)"
       id="g202"><path
         d="M 0,0 383.469,0"
         id="path204"
         style="fill:none;stroke:#000000;stroke-width:0.5;stroke-linecap:butt;stroke-linejoin:miter;stroke-miterlimit:10;stroke-opacity:1;stroke-dasharray:none" /></g><g
       transform="translate(25.226,646.674)"
       id="g206"><path
         d="M 0,0 0,-51.512"
         id="path208"
         style="fill:none;stroke:#000000;stroke-width:1.41700006;stroke-linecap:butt;stroke-linejoin:miter;stroke-miterlimit:10;stroke-opacity:1;stroke-dasharray:none" /></g><path
       d="m 30.607,632.194 11,0 0,11 -11,0 0,-11 z"
       id="path210"
       style="fill:#ffffff;fill-opacity:1;fill-rule:nonzero;stroke:none" /><path
       d="m 30.607,632.194 11,0 0,11 -11,0 0,-11 z"
       id="path212"
       style="fill:none;stroke:#000000;stroke-width:0.5;stroke-linecap:butt;stroke-linejoin:miter;stroke-miterlimit:10;stroke-opacity:1;stroke-dasharray:none" /><g
       transform="translate(41.959,625.709)"
       id="g226"><path
         d="M 0,0 0,-30.547"
         id="path228"
         style="fill:none;stroke:#000000;stroke-width:0.5;stroke-linecap:butt;stroke-linejoin:miter;stroke-miterlimit:10;stroke-opacity:1;stroke-dasharray:none" /></g><g
       transform="translate(163.88,625.709)"
       id="g234"><path
         d="M 0,0 0,-30.547"
         id="path236"
         style="fill:none;stroke:#000000;stroke-width:0.5;stroke-linecap:butt;stroke-linejoin:miter;stroke-miterlimit:10;stroke-opacity:1;stroke-dasharray:none" /></g><g
       transform="translate(24.517,575.153)"
       id="g242"><path
         d="M 0,0 383.503,0"
         id="path244"
         style="fill:none;stroke:#000000;stroke-width:0.5;stroke-linecap:butt;stroke-linejoin:miter;stroke-miterlimit:10;stroke-opacity:1;stroke-dasharray:none" /></g><g
       transform="translate(25.226,594.962)"
       id="g246"><path
         d="M 0,0 0,-20.059"
         id="path248"
         style="fill:none;stroke:#000000;stroke-width:1.41700006;stroke-linecap:butt;stroke-linejoin:miter;stroke-miterlimit:10;stroke-opacity:1;stroke-dasharray:none" /></g><path
       d="m 30.607,579.717 11,0 0,11 -11,0 0,-11 z"
       id="path250"
       style="fill:#ffffff;fill-opacity:1;fill-rule:nonzero;stroke:none" /><path
       d="m 30.607,579.717 11,0 0,11 -11,0 0,-11 z"
       id="path252"
       style="fill:none;stroke:#000000;stroke-width:0.5;stroke-linecap:butt;stroke-linejoin:miter;stroke-miterlimit:10;stroke-opacity:1;stroke-dasharray:none" /><g
       transform="translate(24.517,555.225)"
       id="g266"><path
         d="M 0,0 383.503,0"
         id="path268"
         style="fill:none;stroke:#000000;stroke-width:0.5;stroke-linecap:butt;stroke-linejoin:miter;stroke-miterlimit:10;stroke-opacity:1;stroke-dasharray:none" /></g><g
       transform="translate(25.226,575.034)"
       id="g270"><path
         d="M 0,0 0,-20.059"
         id="path272"
         style="fill:none;stroke:#000000;stroke-width:1.41700006;stroke-linecap:butt;stroke-linejoin:miter;stroke-miterlimit:10;stroke-opacity:1;stroke-dasharray:none" /></g><path
       d="m 30.607,559.789 11,0 0,11 -11,0 0,-11 z"
       id="path274"
       style="fill:#ffffff;fill-opacity:1;fill-rule:nonzero;stroke:none" /><path
       d="m 30.607,559.789 11,0 0,11 -11,0 0,-11 z"
       id="path276"
       style="fill:none;stroke:#000000;stroke-width:0.5;stroke-linecap:butt;stroke-linejoin:miter;stroke-miterlimit:10;stroke-opacity:1;stroke-dasharray:none" /><g
       transform="translate(24.517,497.654)"
       id="g290"><path
         d="M 0,0 383.503,0"
         id="path292"
         style="fill:none;stroke:#000000;stroke-width:0.5;stroke-linecap:butt;stroke-linejoin:miter;stroke-miterlimit:10;stroke-opacity:1;stroke-dasharray:none" /></g><g
       transform="translate(25.226,554.622)"
       id="g294"><path
         d="M 0,0 0,-57.218"
         id="path296"
         style="fill:none;stroke:#000000;stroke-width:1.41700006;stroke-linecap:butt;stroke-linejoin:miter;stroke-miterlimit:10;stroke-opacity:1;stroke-dasharray:none" /></g><path
       d="m 30.624,536.173 11,0 0,11 -11,0 0,-11 z"
       id="path298"
       style="fill:#ffffff;fill-opacity:1;fill-rule:nonzero;stroke:none" /><path
       d="m 30.624,536.173 11,0 0,11 -11,0 0,-11 z"
       id="path300"
       style="fill:none;stroke:#000000;stroke-width:0.5;stroke-linecap:butt;stroke-linejoin:miter;stroke-miterlimit:10;stroke-opacity:1;stroke-dasharray:none" /><g
       transform="translate(41.959,527.951)"
       id="g316"><path
         d="M 0,0 0,-30.547"
         id="path318"
         style="fill:none;stroke:#000000;stroke-width:0.5;stroke-linecap:butt;stroke-linejoin:miter;stroke-miterlimit:10;stroke-opacity:1;stroke-dasharray:none" /></g><g
       transform="translate(163.88,527.951)"
       id="g324"><path
         d="M 0,0 0,-30.547"
         id="path326"
         style="fill:none;stroke:#000000;stroke-width:0.5;stroke-linecap:butt;stroke-linejoin:miter;stroke-miterlimit:10;stroke-opacity:1;stroke-dasharray:none" /></g><g
       transform="translate(286.053,527.951)"
       id="g332"><path
         d="M 0,0 0,-30.547"
         id="path334"
         style="fill:none;stroke:#000000;stroke-width:0.5;stroke-linecap:butt;stroke-linejoin:miter;stroke-miterlimit:10;stroke-opacity:1;stroke-dasharray:none" /></g><g
       transform="translate(24.517,462.337)"
       id="g340"><path
         d="M 0,0 383.503,0"
         id="path342"
         style="fill:none;stroke:#000000;stroke-width:1.41700006;stroke-linecap:butt;stroke-linejoin:miter;stroke-miterlimit:10;stroke-opacity:1;stroke-dasharray:none" /></g><g
       transform="translate(25.226,497.368)"
       id="g344"><path
         d="M 0,0 0,-35.74"
         id="path346"
         style="fill:none;stroke:#000000;stroke-width:1.41700006;stroke-linecap:butt;stroke-linejoin:miter;stroke-miterlimit:10;stroke-opacity:1;stroke-dasharray:none" /></g><g
       transform="translate(41.959,493.864)"
       id="g348"><path
         d="M 0,0 0,-30.547"
         id="path350"
         style="fill:none;stroke:#000000;stroke-width:0.5;stroke-linecap:butt;stroke-linejoin:miter;stroke-miterlimit:10;stroke-opacity:1;stroke-dasharray:none" /></g><g
       transform="translate(163.88,493.864)"
       id="g356"><path
         d="M 0,0 0,-30.547"
         id="path358"
         style="fill:none;stroke:#000000;stroke-width:0.5;stroke-linecap:butt;stroke-linejoin:miter;stroke-miterlimit:10;stroke-opacity:1;stroke-dasharray:none" /></g><g
       transform="translate(286.053,493.864)"
       id="g364"><path
         d="M 0,0 0,-30.547"
         id="path366"
         style="fill:none;stroke:#000000;stroke-width:0.5;stroke-linecap:butt;stroke-linejoin:miter;stroke-miterlimit:10;stroke-opacity:1;stroke-dasharray:none" /></g><text
       transform="matrix(1,0,0,-1,23.81,448.906)"
       id="text372"><tspan
         x="0 5.0040002 7.506"
         y="0"
         id="tspan374"
         style="font-size:9px;font-variant:normal;font-weight:bold;font-stretch:normal;writing-mode:lr-tb;fill:#000000;fill-opacity:1;fill-rule:nonzero;stroke:none;font-family:Arial;-inkscape-font-specification:Arial-BoldMT">6.2</tspan></text>
<g
       transform="translate(25.226,443.365)"
       id="g376"><path
         d="M 0,0 0,-40.809"
         id="path378"
         style="fill:none;stroke:#000000;stroke-width:1.41700006;stroke-linecap:butt;stroke-linejoin:miter;stroke-miterlimit:10;stroke-opacity:1;stroke-dasharray:none" /></g><path
       d="m 30.642,429.311 11,0 0,11 -11,0 0,-11 z"
       id="path380"
       style="fill:#ffffff;fill-opacity:1;fill-rule:nonzero;stroke:none" /><path
       d="m 30.642,429.311 11,0 0,11 -11,0 0,-11 z"
       id="path382"
       style="fill:none;stroke:#000000;stroke-width:0.5;stroke-linecap:butt;stroke-linejoin:miter;stroke-miterlimit:10;stroke-opacity:1;stroke-dasharray:none" /><g
       transform="translate(24.517,372.768)"
       id="g392"><path
         d="M 0,0 383.503,0"
         id="path394"
         style="fill:none;stroke:#000000;stroke-width:0.5;stroke-linecap:butt;stroke-linejoin:miter;stroke-miterlimit:10;stroke-opacity:1;stroke-dasharray:none" /></g><g
       transform="translate(25.226,407.184)"
       id="g396"><path
         d="M 0,0 0,-34.666"
         id="path398"
         style="fill:none;stroke:#000000;stroke-width:1.41700006;stroke-linecap:butt;stroke-linejoin:miter;stroke-miterlimit:10;stroke-opacity:1;stroke-dasharray:none" /></g><g
       transform="translate(41.959,403.669)"
       id="g400"><path
         d="M 0,0 0,-30.547"
         id="path402"
         style="fill:none;stroke:#000000;stroke-width:0.5;stroke-linecap:butt;stroke-linejoin:miter;stroke-miterlimit:10;stroke-opacity:1;stroke-dasharray:none" /></g><g
       transform="translate(225.043,403.669)"
       id="g408"><path
         d="M 0,0 0,-30.547"
         id="path410"
         style="fill:none;stroke:#000000;stroke-width:0.5;stroke-linecap:butt;stroke-linejoin:miter;stroke-miterlimit:10;stroke-opacity:1;stroke-dasharray:none" /></g><g
       transform="translate(24.517,337.434)"
       id="g416"><path
         d="M 0,0 383.503,0"
         id="path418"
         style="fill:none;stroke:#000000;stroke-width:0.5;stroke-linecap:butt;stroke-linejoin:miter;stroke-miterlimit:10;stroke-opacity:1;stroke-dasharray:none" /></g><g
       transform="translate(25.226,372.465)"
       id="g420"><path
         d="M 0,0 0,-35.281"
         id="path422"
         style="fill:none;stroke:#000000;stroke-width:1.41700006;stroke-linecap:butt;stroke-linejoin:miter;stroke-miterlimit:10;stroke-opacity:1;stroke-dasharray:none" /></g><g
       transform="translate(41.959,368.298)"
       id="g424"><path
         d="M 0,0 0,-30.547"
         id="path426"
         style="fill:none;stroke:#000000;stroke-width:0.5;stroke-linecap:butt;stroke-linejoin:miter;stroke-miterlimit:10;stroke-opacity:1;stroke-dasharray:none" /></g><g
       transform="translate(24.517,302.378)"
       id="g432"><path
         d="M 0,0 383.503,0"
         id="path434"
         style="fill:none;stroke:#000000;stroke-width:0.5;stroke-linecap:butt;stroke-linejoin:miter;stroke-miterlimit:10;stroke-opacity:1;stroke-dasharray:none" /></g><g
       transform="translate(25.226,337.409)"
       id="g436"><path
         d="M 0,0 0,-35.281"
         id="path438"
         style="fill:none;stroke:#000000;stroke-width:1.41700006;stroke-linecap:butt;stroke-linejoin:miter;stroke-miterlimit:10;stroke-opacity:1;stroke-dasharray:none" /></g><g
       transform="translate(41.959,333.129)"
       id="g440"><path
         d="M 0,0 0,-30.547"
         id="path442"
         style="fill:none;stroke:#000000;stroke-width:0.5;stroke-linecap:butt;stroke-linejoin:miter;stroke-miterlimit:10;stroke-opacity:1;stroke-dasharray:none" /></g><g
       transform="translate(225.043,333.129)"
       id="g448"><path
         d="M 0,0 0,-30.547"
         id="path450"
         style="fill:none;stroke:#000000;stroke-width:0.5;stroke-linecap:butt;stroke-linejoin:miter;stroke-miterlimit:10;stroke-opacity:1;stroke-dasharray:none" /></g><g
       transform="translate(24.517,288.021)"
       id="g456"><path
         d="M 0,0 383.503,0"
         id="path458"
         style="fill:none;stroke:#000000;stroke-width:1.41700006;stroke-linecap:butt;stroke-linejoin:miter;stroke-miterlimit:10;stroke-opacity:1;stroke-dasharray:none" /></g><g
       transform="translate(25.226,302.308)"
       id="g460"><path
         d="M 0,0 0,-14.996"
         id="path462"
         style="fill:none;stroke:#000000;stroke-width:1.41700006;stroke-linecap:butt;stroke-linejoin:miter;stroke-miterlimit:10;stroke-opacity:1;stroke-dasharray:none" /></g><text
       transform="matrix(1,0,0,-1,40.283,292.818)"
       id="text464"><tspan
         x="0"
         y="0"
         id="tspan466"
         style="font-size:9px;font-variant:normal;font-weight:bold;font-stretch:normal;writing-mode:lr-tb;fill:#00965a;fill-opacity:1;fill-rule:nonzero;stroke:none;font-family:Arial;-inkscape-font-specification:Arial-BoldMT">►</tspan></text>
<text
       transform="matrix(1,0,0,-1,23.813,275.115)"
       id="text472"><tspan
         x="0 5.0040002 7.506"
         y="0"
         id="tspan474"
         style="font-size:9px;font-variant:normal;font-weight:bold;font-stretch:normal;writing-mode:lr-tb;fill:#000000;fill-opacity:1;fill-rule:nonzero;stroke:none;font-family:Arial;-inkscape-font-specification:Arial-BoldMT">6.3</tspan></text>
<g
       transform="translate(24.517,219.646)"
       id="g476"><path
         d="M 0,0 383.503,0"
         id="path478"
         style="fill:none;stroke:#000000;stroke-width:0.5;stroke-linecap:butt;stroke-linejoin:miter;stroke-miterlimit:10;stroke-opacity:1;stroke-dasharray:none" /></g><g
       transform="translate(25.226,269.502)"
       id="g480"><path
         d="M 0,0 0,-50.106"
         id="path482"
         style="fill:none;stroke:#000000;stroke-width:1.41700006;stroke-linecap:butt;stroke-linejoin:miter;stroke-miterlimit:10;stroke-opacity:1;stroke-dasharray:none" /></g><path
       d="m 30.642,255.134 11,0 0,11 -11,0 0,-11 z"
       id="path484"
       style="fill:#ffffff;fill-opacity:1;fill-rule:nonzero;stroke:none" /><path
       d="m 30.642,255.134 11,0 0,11 -11,0 0,-11 z"
       id="path486"
       style="fill:none;stroke:#000000;stroke-width:0.5;stroke-linecap:butt;stroke-linejoin:miter;stroke-miterlimit:10;stroke-opacity:1;stroke-dasharray:none" /><text
       transform="matrix(1,0,0,-1,44.681,224.677)"
       id="text496"><tspan
         x="0"
         y="0"
         id="tspan498"
         style="font-size:9px;font-variant:normal;font-weight:bold;font-stretch:normal;writing-mode:lr-tb;fill:#00965a;fill-opacity:1;fill-rule:nonzero;stroke:none;font-family:Arial;-inkscape-font-specification:Arial-BoldMT">►</tspan></text>
<g
       transform="translate(24.517,169.705)"
       id="g504"><path
         d="M 0,0 383.503,0"
         id="path506"
         style="fill:none;stroke:#000000;stroke-width:0.5;stroke-linecap:butt;stroke-linejoin:miter;stroke-miterlimit:10;stroke-opacity:1;stroke-dasharray:none" /></g><g
       transform="translate(25.226,219.561)"
       id="g508"><path
         d="M 0,0 0,-50.106"
         id="path510"
         style="fill:none;stroke:#000000;stroke-width:1.41700006;stroke-linecap:butt;stroke-linejoin:miter;stroke-miterlimit:10;stroke-opacity:1;stroke-dasharray:none" /></g><path
       d="m 30.642,205.096 11,0 0,11 -11,0 0,-11 z"
       id="path512"
       style="fill:#ffffff;fill-opacity:1;fill-rule:nonzero;stroke:none" /><path
       d="m 30.642,205.096 11,0 0,11 -11,0 0,-11 z"
       id="path514"
       style="fill:none;stroke:#000000;stroke-width:0.5;stroke-linecap:butt;stroke-linejoin:miter;stroke-miterlimit:10;stroke-opacity:1;stroke-dasharray:none" /><text
       transform="matrix(1,0,0,-1,44.708,174.308)"
       id="text524"><tspan
         x="0"
         y="0"
         id="tspan526"
         style="font-size:9px;font-variant:normal;font-weight:bold;font-stretch:normal;writing-mode:lr-tb;fill:#00965a;fill-opacity:1;fill-rule:nonzero;stroke:none;font-family:Arial;-inkscape-font-specification:Arial-BoldMT">►</tspan></text>
<g
       transform="translate(24.517,118.812)"
       id="g532"><path
         d="M 0,0 383.503,0"
         id="path534"
         style="fill:none;stroke:#000000;stroke-width:0.5;stroke-linecap:butt;stroke-linejoin:miter;stroke-miterlimit:10;stroke-opacity:1;stroke-dasharray:none" /></g><g
       transform="translate(25.226,169.385)"
       id="g536"><path
         d="M 0,0 0,-50.823"
         id="path538"
         style="fill:none;stroke:#000000;stroke-width:1.41700006;stroke-linecap:butt;stroke-linejoin:miter;stroke-miterlimit:10;stroke-opacity:1;stroke-dasharray:none" /></g><path
       d="m 30.642,155.014 11,0 0,11 -11,0 0,-11 z"
       id="path540"
       style="fill:#ffffff;fill-opacity:1;fill-rule:nonzero;stroke:none" /><path
       d="m 30.642,155.014 11,0 0,11 -11,0 0,-11 z"
       id="path542"
       style="fill:none;stroke:#000000;stroke-width:0.5;stroke-linecap:butt;stroke-linejoin:miter;stroke-miterlimit:10;stroke-opacity:1;stroke-dasharray:none" /><text
       transform="matrix(1,0,0,-1,44.708,123.724)"
       id="text552"><tspan
         x="0"
         y="0"
         id="tspan554"
         style="font-size:9px;font-variant:normal;font-weight:bold;font-stretch:normal;writing-mode:lr-tb;fill:#00965a;fill-opacity:1;fill-rule:nonzero;stroke:none;font-family:Arial;-inkscape-font-specification:Arial-BoldMT">►</tspan></text>
<g
       transform="translate(24.517,42.152)"
       id="g560"><path
         d="M 0,0 383.503,0"
         id="path562"
         style="fill:none;stroke:#000000;stroke-width:0.5;stroke-linecap:butt;stroke-linejoin:miter;stroke-miterlimit:10;stroke-opacity:1;stroke-dasharray:none" /></g><g
       transform="translate(25.226,118.937)"
       id="g564"><path
         d="M 0,0 0,-77.035"
         id="path566"
         style="fill:none;stroke:#000000;stroke-width:1.41700006;stroke-linecap:butt;stroke-linejoin:miter;stroke-miterlimit:10;stroke-opacity:1;stroke-dasharray:none" /></g><path
       d="m 30.607,104.125 11,0 0,11 -11,0 0,-11 z"
       id="path568"
       style="fill:#ffffff;fill-opacity:1;fill-rule:nonzero;stroke:none" /><path
       d="m 30.607,104.125 11,0 0,11 -11,0 0,-11 z"
       id="path570"
       style="fill:none;stroke:#000000;stroke-width:0.5;stroke-linecap:butt;stroke-linejoin:miter;stroke-miterlimit:10;stroke-opacity:1;stroke-dasharray:none" /><text
       transform="matrix(1,0,0,-1,45.089,47.374)"
       id="text596"><tspan
         x="0"
         y="0"
         id="tspan598"
         style="font-size:9px;font-variant:normal;font-weight:bold;font-stretch:normal;writing-mode:lr-tb;fill:#00965a;fill-opacity:1;fill-rule:nonzero;stroke:none;font-family:Arial;-inkscape-font-specification:Arial-BoldMT">►</tspan></text>
</g></svg>