<?xml version="1.0" encoding="UTF-8" standalone="no"?>
<!-- Created with Inkscape (http://www.inkscape.org/) -->

<svg
   xmlns:dc="http://purl.org/dc/elements/1.1/"
   xmlns:cc="http://creativecommons.org/ns#"
   xmlns:rdf="http://www.w3.org/1999/02/22-rdf-syntax-ns#"
   xmlns:svg="http://www.w3.org/2000/svg"
   xmlns="http://www.w3.org/2000/svg"
   xmlns:sodipodi="http://sodipodi.sourceforge.net/DTD/sodipodi-0.dtd"
   xmlns:inkscape="http://www.inkscape.org/namespaces/inkscape"
   id="svg8503"
   version="1.1"
   inkscape:version="0.48.5 r10040"
   width="744.095"
   height="1052.3625"
   xml:space="preserve"
   sodipodi:docname="l6019022dstbai378191.pdf"><metadata
     id="metadata8509"><rdf:RDF><cc:Work
         rdf:about=""><dc:format>image/svg+xml</dc:format><dc:type
           rdf:resource="http://purl.org/dc/dcmitype/StillImage" /><dc:title></dc:title></cc:Work></rdf:RDF></metadata><defs
     id="defs8507" /><sodipodi:namedview
     pagecolor="#ffffff"
     bordercolor="#666666"
     borderopacity="1"
     objecttolerance="10"
     gridtolerance="10"
     guidetolerance="10"
     inkscape:pageopacity="0"
     inkscape:pageshadow="2"
     inkscape:window-width="1280"
     inkscape:window-height="780"
     id="namedview8505"
     showgrid="false"
     inkscape:zoom="1.2685909"
     inkscape:cx="385.43572"
     inkscape:cy="685.77561"
     inkscape:window-x="0"
     inkscape:window-y="20"
     inkscape:window-maximized="1"
     inkscape:current-layer="g8511" /><g
     id="g8511"
     inkscape:groupmode="layer"
     inkscape:label="l6019022dstbai378191"
     transform="matrix(1.25,0,0,-1.25,0,1052.3625)"><path
       d="m 483.761,69.846 98.986,0 0,727.795 -98.986,0 0,-727.795 z"
       style="fill:none;stroke:#000000;stroke-opacity:1;stroke-width:1;stroke-linecap:butt;stroke-linejoin:miter;stroke-miterlimit:10;stroke-dasharray:none"
       id="path8525" /><path
       d="m 486.358,698.797 11.055,0 0,11.055 -11.055,0 0,-11.055 z"
       style="fill:none;stroke:#000000;stroke-opacity:1;stroke-width:0.5;stroke-linecap:butt;stroke-linejoin:miter;stroke-miterlimit:10;stroke-dasharray:none"
       id="path8535" /><g
       id="g8537"
       transform="translate(501.086,698.967)"><path
         d="M 0,0 79.685,0"
         style="fill:none;stroke:#000000;stroke-opacity:1;stroke-width:0.5;stroke-linecap:square;stroke-linejoin:miter;stroke-miterlimit:10;stroke-dasharray:none"
         id="path8539" /></g><path
       d="m 486.358,527.596 11.055,0 0,11.055 -11.055,0 0,-11.055 z"
       style="fill:none;stroke:#000000;stroke-opacity:1;stroke-width:0.5;stroke-linecap:butt;stroke-linejoin:miter;stroke-miterlimit:10;stroke-dasharray:none"
       id="path8541" /><g
       id="g8543"
       transform="translate(501.086,527.766)"><path
         d="M 0,0 79.685,0"
         style="fill:none;stroke:#000000;stroke-opacity:1;stroke-width:0.5;stroke-linecap:square;stroke-linejoin:miter;stroke-miterlimit:10;stroke-dasharray:none"
         id="path8545" /></g><path
       d="m 486.358,377.348 11.055,0 0,11.055 -11.055,0 0,-11.055 z"
       style="fill:none;stroke:#000000;stroke-opacity:1;stroke-width:0.5;stroke-linecap:butt;stroke-linejoin:miter;stroke-miterlimit:10;stroke-dasharray:none"
       id="path8547" /><g
       id="g8549"
       transform="translate(501.086,377.518)"><path
         d="M 0,0 79.685,0"
         style="fill:none;stroke:#000000;stroke-opacity:1;stroke-width:0.5;stroke-linecap:square;stroke-linejoin:miter;stroke-miterlimit:10;stroke-dasharray:none"
         id="path8551" /></g><path
       d="m 486.358,262.205 11.055,0 0,11.055 -11.055,0 0,-11.055 z"
       style="fill:none;stroke:#000000;stroke-opacity:1;stroke-width:0.5;stroke-linecap:butt;stroke-linejoin:miter;stroke-miterlimit:10;stroke-dasharray:none"
       id="path8553" /><g
       id="g8555"
       transform="translate(501.086,262.375)"><path
         d="M 0,0 79.685,0"
         style="fill:none;stroke:#000000;stroke-opacity:1;stroke-width:0.5;stroke-linecap:square;stroke-linejoin:miter;stroke-miterlimit:10;stroke-dasharray:none"
         id="path8557" /></g><path
       d="m 486.358,193.303 11.055,0 0,11.055 -11.055,0 0,-11.055 z"
       style="fill:none;stroke:#000000;stroke-opacity:1;stroke-width:0.5;stroke-linecap:butt;stroke-linejoin:miter;stroke-miterlimit:10;stroke-dasharray:none"
       id="path8559" /><path
       d="m 486.358,134.992 11.055,0 0,11.055 -11.055,0 0,-11.055 z"
       style="fill:none;stroke:#000000;stroke-opacity:1;stroke-width:0.5;stroke-linecap:butt;stroke-linejoin:miter;stroke-miterlimit:10;stroke-dasharray:none"
       id="path8565" /><g
       id="g8567"
       transform="translate(501.086,135.162)"><path
         d="M 0,0 79.685,0"
         style="fill:none;stroke:#000000;stroke-opacity:1;stroke-width:0.5;stroke-linecap:square;stroke-linejoin:miter;stroke-miterlimit:10;stroke-dasharray:none"
         id="path8569" /></g><path
       d="m 486.057,73.987 11.055,0 0,11.055 -11.055,0 0,-11.055 z"
       style="fill:none;stroke:#000000;stroke-opacity:1;stroke-width:0.5;stroke-linecap:butt;stroke-linejoin:miter;stroke-miterlimit:10;stroke-dasharray:none"
       id="path8571" /><g
       id="g8577"
       transform="translate(70.685,713.503)"><path
         d="M 0,0 383.503,0"
         style="fill:none;stroke:#000000;stroke-opacity:1;stroke-width:0.5;stroke-linecap:butt;stroke-linejoin:miter;stroke-miterlimit:10;stroke-dasharray:none"
         id="path8579" /></g><g
       id="g8581"
       transform="translate(71.394,772.745)"><path
         d="M 0,0 0,-59.492"
         style="fill:none;stroke:#000000;stroke-opacity:1;stroke-width:1.417;stroke-linecap:butt;stroke-linejoin:miter;stroke-miterlimit:10;stroke-dasharray:none"
         id="path8583" /></g><path
       d="m 76.792,753.418 11,0 0,11 -11,0 0,-11 z"
       style="fill:#ffffff;fill-opacity:1;fill-rule:nonzero;stroke:none"
       id="path8585" /><path
       d="m 76.792,753.418 11,0 0,11 -11,0 0,-11 z"
       style="fill:none;stroke:#000000;stroke-opacity:1;stroke-width:0.5;stroke-linecap:butt;stroke-linejoin:miter;stroke-miterlimit:10;stroke-dasharray:none"
       id="path8587" /><g
       id="g8595"
       transform="translate(242.524,752.681)"><g
         id="g8597"
         transform="translate(6.378,0)"><path
           d="m 0,0 c 0,3.522 -2.856,6.378 -6.378,6.378 -3.522,0 -6.378,-2.856 -6.378,-6.378 0,-3.522 2.856,-6.378 6.378,-6.378 C -2.856,-6.378 0,-3.522 0,0"
           style="fill:none;stroke:#00965a;stroke-opacity:1;stroke-width:0.85;stroke-linecap:square;stroke-linejoin:miter;stroke-miterlimit:10;stroke-dasharray:none"
           id="path8599" /></g></g><g
       id="g8601"
       transform="translate(88.127,744.084)"><path
         d="M 0,0 0,-30.547"
         style="fill:none;stroke:#000000;stroke-opacity:1;stroke-width:0.5;stroke-linecap:butt;stroke-linejoin:miter;stroke-miterlimit:10;stroke-dasharray:none"
         id="path8603" /></g><g
       id="g8609"
       transform="translate(70.685,699.044)"><path
         d="M 0,0 383.503,0"
         style="fill:none;stroke:#000000;stroke-opacity:1;stroke-width:1.417;stroke-linecap:butt;stroke-linejoin:miter;stroke-miterlimit:10;stroke-dasharray:none"
         id="path8611" /></g><g
       id="g8613"
       transform="translate(71.394,713.331)"><path
         d="M 0,0 0,-14.996"
         style="fill:none;stroke:#000000;stroke-opacity:1;stroke-width:1.417;stroke-linecap:butt;stroke-linejoin:miter;stroke-miterlimit:10;stroke-dasharray:none"
         id="path8615" /></g><text
       transform="matrix(1,0,0,-1,86.451,704.076)"
       id="text8617"><tspan
         style="fill:#00965a;fill-opacity:1;fill-rule:nonzero;stroke:none;font-family:Arial;font-variant:normal;font-weight:bold;font-stretch:normal;font-size:9;writing-mode:lr;-inkscape-font-specification:Arial-BoldMT"
         x="0"
         y="0"
         id="tspan8619">►</tspan></text>
<text
       transform="matrix(1,0,0,-1,71.088,679.335)"
       id="text8625"><tspan
         style="font-size:9px;font-variant:normal;font-weight:bold;font-stretch:normal;writing-mode:lr-tb;fill:#000000;fill-opacity:1;fill-rule:nonzero;stroke:none;font-family:Arial;-inkscape-font-specification:Arial-BoldMT"
         x="0 5.0040002 7.506"
         y="0"
         sodipodi:role="line"
         id="tspan8627">6.4</tspan></text>
<g
       id="g8629"
       transform="translate(365.536,682.33099)"><g
         id="g8631"
         transform="translate(6.378,0)"><path
           d="m 0,0 c 0,3.522 -2.856,6.378 -6.378,6.378 -3.522,0 -6.378,-2.856 -6.378,-6.378 0,-3.522 2.856,-6.378 6.378,-6.378 C -2.856,-6.378 0,-3.522 0,0"
           style="fill:none;stroke:#00965a;stroke-opacity:1;stroke-width:0.85;stroke-linecap:square;stroke-linejoin:miter;stroke-miterlimit:10;stroke-dasharray:none"
           id="path8633" /></g></g><g
       id="g8635"
       transform="translate(71.394,674.457)"><path
         d="M 0,0 0,-26.352"
         style="fill:none;stroke:#000000;stroke-opacity:1;stroke-width:1.417;stroke-linecap:butt;stroke-linejoin:miter;stroke-miterlimit:10;stroke-dasharray:none"
         id="path8637" /></g><path
       d="m 76.775,656.377 11,0 0,11 -11,0 0,-11 z"
       style="fill:#ffffff;fill-opacity:1;fill-rule:nonzero;stroke:none"
       id="path8639" /><path
       d="m 76.775,656.377 11,0 0,11 -11,0 0,-11 z"
       style="fill:none;stroke:#000000;stroke-opacity:1;stroke-width:0.5;stroke-linecap:butt;stroke-linejoin:miter;stroke-miterlimit:10;stroke-dasharray:none"
       id="path8641" /><g
       id="g8663"
       transform="translate(70.685,613.032)"><path
         d="M 0,0 383.526,0"
         style="fill:none;stroke:#000000;stroke-opacity:1;stroke-width:0.5;stroke-linecap:butt;stroke-linejoin:miter;stroke-miterlimit:10;stroke-dasharray:none"
         id="path8665" /></g><g
       id="g8667"
       transform="translate(71.394,648.063)"><path
         d="M 0,0 0,-35.281"
         style="fill:none;stroke:#000000;stroke-opacity:1;stroke-width:1.417;stroke-linecap:butt;stroke-linejoin:miter;stroke-miterlimit:10;stroke-dasharray:none"
         id="path8669" /></g><g
       id="g8671"
       transform="translate(88.127,643.811)"><path
         d="M 0,0 0,-30.547"
         style="fill:none;stroke:#000000;stroke-opacity:1;stroke-width:0.5;stroke-linecap:butt;stroke-linejoin:miter;stroke-miterlimit:10;stroke-dasharray:none"
         id="path8673" /></g><g
       id="g8679"
       transform="translate(271.211,643.811)"><path
         d="M 0,0 0,-30.547"
         style="fill:none;stroke:#000000;stroke-opacity:1;stroke-width:0.5;stroke-linecap:butt;stroke-linejoin:miter;stroke-miterlimit:10;stroke-dasharray:none"
         id="path8681" /></g><g
       id="g8687"
       transform="translate(70.685,577.73)"><path
         d="M 0,0 383.503,0"
         style="fill:none;stroke:#000000;stroke-opacity:1;stroke-width:0.5;stroke-linecap:butt;stroke-linejoin:miter;stroke-miterlimit:10;stroke-dasharray:none"
         id="path8689" /></g><g
       id="g8691"
       transform="translate(71.394,612.761)"><path
         d="M 0,0 0,-35.281"
         style="fill:none;stroke:#000000;stroke-opacity:1;stroke-width:1.417;stroke-linecap:butt;stroke-linejoin:miter;stroke-miterlimit:10;stroke-dasharray:none"
         id="path8693" /></g><g
       id="g8695"
       transform="translate(88.127,608.339)"><path
         d="M 0,0 0,-30.547"
         style="fill:none;stroke:#000000;stroke-opacity:1;stroke-width:0.5;stroke-linecap:butt;stroke-linejoin:miter;stroke-miterlimit:10;stroke-dasharray:none"
         id="path8697" /></g><g
       id="g8703"
       transform="translate(271.211,608.339)"><path
         d="M 0,0 0,-30.547"
         style="fill:none;stroke:#000000;stroke-opacity:1;stroke-width:0.5;stroke-linecap:butt;stroke-linejoin:miter;stroke-miterlimit:10;stroke-dasharray:none"
         id="path8705" /></g><g
       id="g8711"
       transform="translate(70.685,542.43)"><path
         d="M 0,0 383.503,0"
         style="fill:none;stroke:#000000;stroke-opacity:1;stroke-width:0.5;stroke-linecap:butt;stroke-linejoin:miter;stroke-miterlimit:10;stroke-dasharray:none"
         id="path8713" /></g><g
       id="g8715"
       transform="translate(71.394,577.461)"><path
         d="M 0,0 0,-35.281"
         style="fill:none;stroke:#000000;stroke-opacity:1;stroke-width:1.417;stroke-linecap:butt;stroke-linejoin:miter;stroke-miterlimit:10;stroke-dasharray:none"
         id="path8717" /></g><g
       id="g8719"
       transform="translate(88.127,573.209)"><path
         d="M 0,0 0,-30.547"
         style="fill:none;stroke:#000000;stroke-opacity:1;stroke-width:0.5;stroke-linecap:butt;stroke-linejoin:miter;stroke-miterlimit:10;stroke-dasharray:none"
         id="path8721" /></g><g
       id="g8727"
       transform="translate(70.685,527.968)"><path
         d="M 0,0 383.503,0"
         style="fill:none;stroke:#000000;stroke-opacity:1;stroke-width:1.417;stroke-linecap:butt;stroke-linejoin:miter;stroke-miterlimit:10;stroke-dasharray:none"
         id="path8729" /></g><g
       id="g8731"
       transform="translate(71.394,542.255)"><path
         d="M 0,0 0,-14.996"
         style="fill:none;stroke:#000000;stroke-opacity:1;stroke-width:1.417;stroke-linecap:butt;stroke-linejoin:miter;stroke-miterlimit:10;stroke-dasharray:none"
         id="path8733" /></g><text
       transform="matrix(1,0,0,-1,86.451,532.881)"
       id="text8735"><tspan
         style="fill:#00965a;fill-opacity:1;fill-rule:nonzero;stroke:none;font-family:Arial;font-variant:normal;font-weight:bold;font-stretch:normal;font-size:9;writing-mode:lr;-inkscape-font-specification:Arial-BoldMT"
         x="0"
         y="0"
         id="tspan8737">►</tspan></text>
<text
       transform="matrix(1,0,0,-1,70.332,501.759)"
       id="text8743"><tspan
         style="font-size:9px;font-variant:normal;font-weight:bold;font-stretch:normal;writing-mode:lr-tb;fill:#000000;fill-opacity:1;fill-rule:nonzero;stroke:none;font-family:Arial;-inkscape-font-specification:Arial-BoldMT"
         x="0 5.0040002"
         y="0"
         sodipodi:role="line"
         id="tspan8745">7.</tspan><tspan
         style="font-size:9px;font-variant:normal;font-weight:bold;font-stretch:normal;writing-mode:lr-tb;fill:#000000;fill-opacity:1;fill-rule:nonzero;stroke:none;font-family:Arial;-inkscape-font-specification:Arial-BoldMT"
         x="-0.252 4.7519999 7.2540002"
         y="16.011"
         sodipodi:role="line"
         id="tspan8747">7.1</tspan></text>
<g
       id="g8749"
       transform="translate(414.312,488.379)"><g
         id="g8751"
         transform="translate(6.378,0)"><path
           d="m 0,0 c 0,3.522 -2.856,6.378 -6.378,6.378 -3.522,0 -6.378,-2.856 -6.378,-6.378 0,-3.522 2.856,-6.378 6.378,-6.378 C -2.856,-6.378 0,-3.522 0,0"
           style="fill:none;stroke:#00965a;stroke-opacity:1;stroke-width:0.85;stroke-linecap:square;stroke-linejoin:miter;stroke-miterlimit:10;stroke-dasharray:none"
           id="path8753" /></g></g><g
       id="g8755"
       transform="translate(70.685,412.271)"><path
         d="M 0,0 383.503,0"
         style="fill:none;stroke:#000000;stroke-opacity:1;stroke-width:0.5;stroke-linecap:butt;stroke-linejoin:miter;stroke-miterlimit:10;stroke-dasharray:none"
         id="path8757" /></g><g
       id="g8759"
       transform="translate(71.394,480.533)"><path
         d="M 0,0 0,-68.512"
         style="fill:none;stroke:#000000;stroke-opacity:1;stroke-width:1.417;stroke-linecap:butt;stroke-linejoin:miter;stroke-miterlimit:10;stroke-dasharray:none"
         id="path8761" /></g><path
       d="m 76.775,462.093 11,0 0,11 -11,0 0,-11 z"
       style="fill:#ffffff;fill-opacity:1;fill-rule:nonzero;stroke:none"
       id="path8763" /><path
       d="m 76.775,462.093 11,0 0,11 -11,0 0,-11 z"
       style="fill:none;stroke:#000000;stroke-opacity:1;stroke-width:0.5;stroke-linecap:butt;stroke-linejoin:miter;stroke-miterlimit:10;stroke-dasharray:none"
       id="path8765" /><g
       id="g8785"
       transform="translate(88.127,452.773)"><path
         d="M 0,0 0,-40.752"
         style="fill:none;stroke:#000000;stroke-opacity:1;stroke-width:0.5;stroke-linecap:butt;stroke-linejoin:miter;stroke-miterlimit:10;stroke-dasharray:none"
         id="path8787" /></g><g
       id="g8793"
       transform="translate(210.048,452.773)"><path
         d="M 0,0 0,-40.752"
         style="fill:none;stroke:#000000;stroke-opacity:1;stroke-width:0.5;stroke-linecap:butt;stroke-linejoin:miter;stroke-miterlimit:10;stroke-dasharray:none"
         id="path8795" /></g><g
       id="g8801"
       transform="translate(332.221,452.773)"><path
         d="M 0,0 0,-40.752"
         style="fill:none;stroke:#000000;stroke-opacity:1;stroke-width:0.5;stroke-linecap:butt;stroke-linejoin:miter;stroke-miterlimit:10;stroke-dasharray:none"
         id="path8803" /></g><g
       id="g8813"
       transform="translate(70.685,377.629)"><path
         d="M 0,0 383.503,0"
         style="fill:none;stroke:#000000;stroke-opacity:1;stroke-width:1.417;stroke-linecap:butt;stroke-linejoin:miter;stroke-miterlimit:10;stroke-dasharray:none"
         id="path8815" /></g><g
       id="g8817"
       transform="translate(71.394,412.405)"><path
         d="M 0,0 0,-35.485"
         style="fill:none;stroke:#000000;stroke-opacity:1;stroke-width:1.417;stroke-linecap:butt;stroke-linejoin:miter;stroke-miterlimit:10;stroke-dasharray:none"
         id="path8819" /></g><text
       transform="matrix(1,0,0,-1,86.451,403.349)"
       id="text8821"><tspan
         style="fill:#00965a;fill-opacity:1;fill-rule:nonzero;stroke:none;font-family:Arial;font-variant:normal;font-weight:bold;font-stretch:normal;font-size:9;writing-mode:lr;-inkscape-font-specification:Arial-BoldMT"
         x="0"
         y="0"
         id="tspan8823">►</tspan></text>
<g
       id="g8833"
       transform="translate(71.394,377.083)"><path
         d="M 0,0 0,-55.524"
         style="fill:none;stroke:#000000;stroke-opacity:1;stroke-width:1.417;stroke-linecap:butt;stroke-linejoin:miter;stroke-miterlimit:10;stroke-dasharray:none"
         id="path8835" /></g><path
       d="m 76.775,360.933 11,0 0,11 -11,0 0,-11 z"
       style="fill:#ffffff;fill-opacity:1;fill-rule:nonzero;stroke:none"
       id="path8837" /><path
       d="m 76.775,360.933 11,0 0,11 -11,0 0,-11 z"
       style="fill:none;stroke:#000000;stroke-opacity:1;stroke-width:0.5;stroke-linecap:butt;stroke-linejoin:miter;stroke-miterlimit:10;stroke-dasharray:none"
       id="path8839" /><g
       id="g8853"
       transform="translate(353.033,366.57201)"><g
         id="g8855"
         transform="translate(6.378,0)"><path
           d="m 0,0 c 0,3.522 -2.856,6.378 -6.378,6.378 -3.522,0 -6.378,-2.856 -6.378,-6.378 0,-3.522 2.856,-6.378 6.378,-6.378 C -2.856,-6.378 0,-3.522 0,0"
           style="fill:none;stroke:#00965a;stroke-opacity:1;stroke-width:0.85;stroke-linecap:square;stroke-linejoin:miter;stroke-miterlimit:10;stroke-dasharray:none"
           id="path8857" /></g></g><path
       d="m 94.762,343.09 11,0 0,11 -11,0 0,-11 z"
       style="fill:#ffffff;fill-opacity:1;fill-rule:nonzero;stroke:none"
       id="path8859" /><path
       d="m 94.762,343.09 11,0 0,11 -11,0 0,-11 z"
       style="fill:none;stroke:#000000;stroke-opacity:1;stroke-width:0.5;stroke-linecap:butt;stroke-linejoin:miter;stroke-miterlimit:10;stroke-dasharray:none"
       id="path8861" /><path
       d="m 94.762,324.891 11,0 0,11 -11,0 0,-11 z"
       style="fill:#ffffff;fill-opacity:1;fill-rule:nonzero;stroke:none"
       id="path8867" /><path
       d="m 94.762,324.891 11,0 0,11 -11,0 0,-11 z"
       style="fill:none;stroke:#000000;stroke-opacity:1;stroke-width:0.5;stroke-linecap:butt;stroke-linejoin:miter;stroke-miterlimit:10;stroke-dasharray:none"
       id="path8869" /><g
       id="g8875"
       transform="translate(70.685,286.921)"><path
         d="M 0,0 383.503,0"
         style="fill:none;stroke:#000000;stroke-opacity:1;stroke-width:0.5;stroke-linecap:butt;stroke-linejoin:miter;stroke-miterlimit:10;stroke-dasharray:none"
         id="path8877" /></g><g
       id="g8879"
       transform="translate(71.394,321.952)"><path
         d="M 0,0 0,-35.281"
         style="fill:none;stroke:#000000;stroke-opacity:1;stroke-width:1.417;stroke-linecap:butt;stroke-linejoin:miter;stroke-miterlimit:10;stroke-dasharray:none"
         id="path8881" /></g><g
       id="g8883"
       transform="translate(88.127,317.7)"><path
         d="M 0,0 0,-30.547"
         style="fill:none;stroke:#000000;stroke-opacity:1;stroke-width:0.5;stroke-linecap:butt;stroke-linejoin:miter;stroke-miterlimit:10;stroke-dasharray:none"
         id="path8885" /></g><g
       id="g8891"
       transform="translate(271.049,317.7)"><path
         d="M 0,0 0,-30.547"
         style="fill:none;stroke:#000000;stroke-opacity:1;stroke-width:0.5;stroke-linecap:butt;stroke-linejoin:miter;stroke-miterlimit:10;stroke-dasharray:none"
         id="path8893" /></g><g
       id="g8899"
       transform="translate(70.685,262.556)"><path
         d="M 0,0 383.503,0"
         style="fill:none;stroke:#000000;stroke-opacity:1;stroke-width:1.417;stroke-linecap:butt;stroke-linejoin:miter;stroke-miterlimit:10;stroke-dasharray:none"
         id="path8901" /></g><g
       id="g8903"
       transform="translate(71.394,286.575)"><path
         d="M 0,0 0,-24.728"
         style="fill:none;stroke:#000000;stroke-opacity:1;stroke-width:1.417;stroke-linecap:butt;stroke-linejoin:miter;stroke-miterlimit:10;stroke-dasharray:none"
         id="path8905" /></g><text
       transform="matrix(1,0,0,-1,86.451,277.802)"
       id="text8907"><tspan
         style="fill:#00965a;fill-opacity:1;fill-rule:nonzero;stroke:none;font-family:Arial;font-variant:normal;font-weight:bold;font-stretch:normal;font-size:9;writing-mode:lr;-inkscape-font-specification:Arial-BoldMT"
         x="0"
         y="0"
         id="tspan8909">►</tspan></text>
<text
       transform="matrix(1,0,0,-1,70.332,241.352)"
       id="text8917"><tspan
         style="font-size:9px;font-variant:normal;font-weight:bold;font-stretch:normal;writing-mode:lr-tb;fill:#000000;fill-opacity:1;fill-rule:nonzero;stroke:none;font-family:Arial;-inkscape-font-specification:Arial-BoldMT"
         x="0 5.0040002 7.506"
         y="0"
         sodipodi:role="line"
         id="tspan8919">7.2</tspan></text>
<g
       id="g8921"
       transform="translate(70.685,193.692)"><path
         d="M 0,0 383.503,0"
         style="fill:none;stroke:#000000;stroke-opacity:1;stroke-width:1.417;stroke-linecap:butt;stroke-linejoin:miter;stroke-miterlimit:10;stroke-dasharray:none"
         id="path8923" /></g><g
       id="g8925"
       transform="translate(71.394,235.866)"><path
         d="M 0,0 0,-42.883"
         style="fill:none;stroke:#000000;stroke-opacity:1;stroke-width:1.417;stroke-linecap:butt;stroke-linejoin:miter;stroke-miterlimit:10;stroke-dasharray:none"
         id="path8927" /></g><path
       d="m 76.431,215.898 11,0 0,11 -11,0 0,-11 z"
       style="fill:#ffffff;fill-opacity:1;fill-rule:nonzero;stroke:none"
       id="path8929" /><path
       d="m 76.431,215.898 11,0 0,11 -11,0 0,-11 z"
       style="fill:none;stroke:#000000;stroke-opacity:1;stroke-width:0.5;stroke-linecap:butt;stroke-linejoin:miter;stroke-miterlimit:10;stroke-dasharray:none"
       id="path8931" /><text
       transform="matrix(1,0,0,-1,91.04,199.199)"
       id="text8953"><tspan
         style="fill:#00965a;fill-opacity:1;fill-rule:nonzero;stroke:none;font-family:Arial;font-variant:normal;font-weight:bold;font-stretch:normal;font-size:9;writing-mode:lr;-inkscape-font-specification:Arial-BoldMT"
         x="0"
         y="0"
         id="tspan8955">►</tspan></text>
<g
       id="g8969"
       transform="translate(262.894,230.593)"><path
         d="M 0,0 0,-35.915"
         style="fill:none;stroke:#000000;stroke-opacity:1;stroke-width:0.5;stroke-linecap:square;stroke-linejoin:miter;stroke-miterlimit:10;stroke-dasharray:none"
         id="path8971" /></g><path
       d="m 269.17,215.919 11,0 0,11 -11,0 0,-11 z"
       style="fill:#ffffff;fill-opacity:1;fill-rule:nonzero;stroke:none"
       id="path8973" /><path
       d="m 269.17,215.919 11,0 0,11 -11,0 0,-11 z"
       style="fill:none;stroke:#000000;stroke-opacity:1;stroke-width:0.5;stroke-linecap:butt;stroke-linejoin:miter;stroke-miterlimit:10;stroke-dasharray:none"
       id="path8975" /><text
       transform="matrix(1,0,0,-1,283.631,199.198)"
       id="text8989"><tspan
         style="fill:#00965a;fill-opacity:1;fill-rule:nonzero;stroke:none;font-family:Arial;font-variant:normal;font-weight:bold;font-stretch:normal;font-size:9;writing-mode:lr;-inkscape-font-specification:Arial-BoldMT"
         x="0"
         y="0"
         id="tspan8991">►</tspan></text>
<text
       transform="matrix(1,0,0,-1,70.313,172.954)"
       id="text9005"><tspan
         style="font-size:9px;font-variant:normal;font-weight:bold;font-stretch:normal;writing-mode:lr-tb;fill:#000000;fill-opacity:1;fill-rule:nonzero;stroke:none;font-family:Arial;-inkscape-font-specification:Arial-BoldMT"
         x="0 5.0040002 7.506"
         y="0"
         sodipodi:role="line"
         id="tspan9007">7.3</tspan></text>
<g
       id="g9009"
       transform="translate(70.843,135.293)"><path
         d="M 0,0 383.503,0"
         style="fill:none;stroke:#000000;stroke-opacity:1;stroke-width:1.417;stroke-linecap:butt;stroke-linejoin:miter;stroke-miterlimit:10;stroke-dasharray:none"
         id="path9011" /></g><g
       id="g9013"
       transform="translate(71.552,167.73)"><path
         d="M 0,0 0,-33.146"
         style="fill:none;stroke:#000000;stroke-opacity:1;stroke-width:1.417;stroke-linecap:butt;stroke-linejoin:miter;stroke-miterlimit:10;stroke-dasharray:none"
         id="path9015" /></g><path
       d="m 76.543,151.776 11,0 0,11 -11,0 0,-11 z"
       style="fill:#ffffff;fill-opacity:1;fill-rule:nonzero;stroke:none"
       id="path9017" /><path
       d="m 76.543,151.776 11,0 0,11 -11,0 0,-11 z"
       style="fill:none;stroke:#000000;stroke-opacity:1;stroke-width:0.5;stroke-linecap:butt;stroke-linejoin:miter;stroke-miterlimit:10;stroke-dasharray:none"
       id="path9019" /><g
       id="g9025"
       transform="translate(332.481,165.59)"><path
         d="M 0,0 0,-30.547"
         style="fill:none;stroke:#000000;stroke-opacity:1;stroke-width:0.5;stroke-linecap:butt;stroke-linejoin:miter;stroke-miterlimit:10;stroke-dasharray:none"
         id="path9027" /></g><text
       transform="matrix(1,0,0,-1,91.299,141.553)"
       id="text9033"><tspan
         style="fill:#00965a;fill-opacity:1;fill-rule:nonzero;stroke:none;font-family:Arial;font-variant:normal;font-weight:bold;font-stretch:normal;font-size:9;writing-mode:lr;-inkscape-font-specification:Arial-BoldMT"
         x="0"
         y="0"
         id="tspan9035">►</tspan></text>
<g
       id="g9041"
       transform="translate(337.47301,175.423)"><g
         id="g9043"
         transform="translate(6.378,0)"><path
           d="m 0,0 c 0,3.522 -2.856,6.378 -6.378,6.378 -3.522,0 -6.378,-2.856 -6.378,-6.378 0,-3.522 2.856,-6.378 6.378,-6.378 C -2.856,-6.378 0,-3.522 0,0"
           style="fill:none;stroke:#00965a;stroke-opacity:1;stroke-width:0.85;stroke-linecap:square;stroke-linejoin:miter;stroke-miterlimit:10;stroke-dasharray:none"
           id="path9045" /></g></g><text
       transform="matrix(1,0,0,-1,70.073,108.764)"
       id="text9047"><tspan
         style="font-size:9px;font-variant:normal;font-weight:bold;font-stretch:normal;writing-mode:lr-tb;fill:#000000;fill-opacity:1;fill-rule:nonzero;stroke:none;font-family:Arial;-inkscape-font-specification:Arial-BoldMT"
         x="0 5.0040002"
         y="0"
         sodipodi:role="line"
         id="tspan9049">8.</tspan></text>
<g
       id="g9051"
       transform="translate(70.685,70.13)"><path
         d="M 0,0 383.503,0"
         style="fill:none;stroke:#000000;stroke-opacity:1;stroke-width:1.417;stroke-linecap:butt;stroke-linejoin:miter;stroke-miterlimit:10;stroke-dasharray:none"
         id="path9053" /></g><g
       id="g9055"
       transform="translate(71.394,103.12)"><path
         d="M 0,0 0,-33.699"
         style="fill:none;stroke:#000000;stroke-opacity:1;stroke-width:1.417;stroke-linecap:butt;stroke-linejoin:miter;stroke-miterlimit:10;stroke-dasharray:none"
         id="path9057" /></g><path
       d="m 76.775,87.449 11,0 0,11 -11,0 0,-11 z"
       style="fill:#ffffff;fill-opacity:1;fill-rule:nonzero;stroke:none"
       id="path9059" /><path
       d="m 76.775,87.449 11,0 0,11 -11,0 0,-11 z"
       style="fill:none;stroke:#000000;stroke-opacity:1;stroke-width:0.5;stroke-linecap:butt;stroke-linejoin:miter;stroke-miterlimit:10;stroke-dasharray:none"
       id="path9061" /><text
       transform="matrix(1,0,0,-1,91.159,76.371)"
       id="text9067"><tspan
         style="fill:#00965a;fill-opacity:1;fill-rule:nonzero;stroke:none;font-family:Arial;font-variant:normal;font-weight:bold;font-stretch:normal;font-size:9;writing-mode:lr;-inkscape-font-specification:Arial-BoldMT"
         x="0"
         y="0"
         id="tspan9069">►</tspan></text>
</g></svg>