<?xml version="1.0" encoding="UTF-8" standalone="no"?>
<!-- Created with Inkscape (http://www.inkscape.org/) -->

<svg
   xmlns:dc="http://purl.org/dc/elements/1.1/"
   xmlns:cc="http://creativecommons.org/ns#"
   xmlns:rdf="http://www.w3.org/1999/02/22-rdf-syntax-ns#"
   xmlns:svg="http://www.w3.org/2000/svg"
   xmlns="http://www.w3.org/2000/svg"
   version="1.1"
   width="744.09497"
   height="1052.3625"
   id="svg2"
   xml:space="preserve"><metadata
     id="metadata8"><rdf:RDF><cc:Work
         rdf:about=""><dc:format>image/svg+xml</dc:format><dc:type
           rdf:resource="http://purl.org/dc/dcmitype/StillImage" /><dc:title></dc:title></cc:Work></rdf:RDF></metadata><defs
     id="defs6" /><g
     transform="matrix(1.25,0,0,-1.25,0,1052.3625)"
     id="g10"><path
       d="m 483.761,70.472 98.986,0 0,727.169 -98.986,0 0,-727.169 z"
       id="path24"
       style="fill:none;stroke:#000000;stroke-width:1;stroke-linecap:butt;stroke-linejoin:miter;stroke-miterlimit:10;stroke-opacity:1;stroke-dasharray:none" /><path
       d="m 486.358,729.74 11.055,0 0,11.055 -11.055,0 0,-11.055 z"
       id="path34"
       style="fill:none;stroke:#000000;stroke-width:0.5;stroke-linecap:butt;stroke-linejoin:miter;stroke-miterlimit:10;stroke-opacity:1;stroke-dasharray:none" /><path
       d="m 486.358,677.872 11.055,0 0,11.055 -11.055,0 0,-11.055 z"
       id="path40"
       style="fill:none;stroke:#000000;stroke-width:0.5;stroke-linecap:butt;stroke-linejoin:miter;stroke-miterlimit:10;stroke-opacity:1;stroke-dasharray:none" /><path
       d="m 486.358,602.249 11.055,0 0,11.055 -11.055,0 0,-11.055 z"
       id="path46"
       style="fill:none;stroke:#000000;stroke-width:0.5;stroke-linecap:butt;stroke-linejoin:miter;stroke-miterlimit:10;stroke-opacity:1;stroke-dasharray:none" /><g
       transform="translate(501.086,602.419)"
       id="g48"><path
         d="M 0,0 79.685,0"
         id="path50"
         style="fill:none;stroke:#000000;stroke-width:0.5;stroke-linecap:square;stroke-linejoin:miter;stroke-miterlimit:10;stroke-opacity:1;stroke-dasharray:none" /></g><path
       d="m 486.358,436.207 11.055,0 0,11.055 -11.055,0 0,-11.055 z"
       id="path52"
       style="fill:none;stroke:#000000;stroke-width:0.5;stroke-linecap:butt;stroke-linejoin:miter;stroke-miterlimit:10;stroke-opacity:1;stroke-dasharray:none" /><g
       transform="translate(501.086,436.377)"
       id="g54"><path
         d="M 0,0 79.685,0"
         id="path56"
         style="fill:none;stroke:#000000;stroke-width:0.5;stroke-linecap:square;stroke-linejoin:miter;stroke-miterlimit:10;stroke-opacity:1;stroke-dasharray:none" /></g><path
       d="m 486.358,300.529 11.055,0 0,11.055 -11.055,0 0,-11.055 z"
       id="path58"
       style="fill:none;stroke:#000000;stroke-width:0.5;stroke-linecap:butt;stroke-linejoin:miter;stroke-miterlimit:10;stroke-opacity:1;stroke-dasharray:none" /><g
       transform="translate(501.086,300.699)"
       id="g60"><path
         d="M 0,0 79.685,0"
         id="path62"
         style="fill:none;stroke:#000000;stroke-width:0.5;stroke-linecap:square;stroke-linejoin:miter;stroke-miterlimit:10;stroke-opacity:1;stroke-dasharray:none" /></g><path
       d="m 486.358,184.371 11.055,0 0,11.055 -11.055,0 0,-11.055 z"
       id="path64"
       style="fill:none;stroke:#000000;stroke-width:0.5;stroke-linecap:butt;stroke-linejoin:miter;stroke-miterlimit:10;stroke-opacity:1;stroke-dasharray:none" /><g
       transform="translate(501.086,184.541)"
       id="g66"><path
         d="M 0,0 79.685,0"
         id="path68"
         style="fill:none;stroke:#000000;stroke-width:0.5;stroke-linecap:square;stroke-linejoin:miter;stroke-miterlimit:10;stroke-opacity:1;stroke-dasharray:none" /></g><path
       d="m 486.358,122.55 11.055,0 0,11.055 -11.055,0 0,-11.055 z"
       id="path70"
       style="fill:none;stroke:#000000;stroke-width:0.5;stroke-linecap:butt;stroke-linejoin:miter;stroke-miterlimit:10;stroke-opacity:1;stroke-dasharray:none" /><path
       d="m 486.057,75.461 11.055,0 0,11.055 -11.055,0 0,-11.055 z"
       id="path76"
       style="fill:none;stroke:#000000;stroke-width:0.5;stroke-linecap:butt;stroke-linejoin:miter;stroke-miterlimit:10;stroke-opacity:1;stroke-dasharray:none" /><g
       transform="translate(70.685,727.938)"
       id="g82"><path
         d="M 0,0 383.446,0"
         id="path84"
         style="fill:none;stroke:#000000;stroke-width:0.5;stroke-linecap:butt;stroke-linejoin:miter;stroke-miterlimit:10;stroke-opacity:1;stroke-dasharray:none" /></g><g
       transform="translate(71.394,802.172)"
       id="g86"><path
         d="M 0,0 0,-74.484"
         id="path88"
         style="fill:none;stroke:#000000;stroke-width:1.41700006;stroke-linecap:butt;stroke-linejoin:miter;stroke-miterlimit:10;stroke-opacity:1;stroke-dasharray:none" /></g><path
       d="m 76.775,787.692 11,0 0,11 -11,0 0,-11 z"
       id="path90"
       style="fill:#ffffff;fill-opacity:1;fill-rule:nonzero;stroke:none" /><path
       d="m 76.775,787.692 11,0 0,11 -11,0 0,-11 z"
       id="path92"
       style="fill:none;stroke:#000000;stroke-width:0.5;stroke-linecap:butt;stroke-linejoin:miter;stroke-miterlimit:10;stroke-opacity:1;stroke-dasharray:none" /><text
       transform="matrix(1,0,0,-1,90.892,732.704)"
       id="text118"><tspan
         x="0"
         y="0"
         id="tspan120"
         style="font-size:9px;font-variant:normal;font-weight:bold;font-stretch:normal;writing-mode:lr-tb;fill:#00965a;fill-opacity:1;fill-rule:nonzero;stroke:none;font-family:Arial;-inkscape-font-specification:Arial-BoldMT">►</tspan></text>
<g
       transform="translate(70.685,675.102)"
       id="g126"><path
         d="M 0,0 383.503,0"
         id="path128"
         style="fill:none;stroke:#000000;stroke-width:0.5;stroke-linecap:butt;stroke-linejoin:miter;stroke-miterlimit:10;stroke-opacity:1;stroke-dasharray:none" /></g><g
       transform="translate(71.394,727.935)"
       id="g130"><path
         d="M 0,0 0,-53.083"
         id="path132"
         style="fill:none;stroke:#000000;stroke-width:1.41700006;stroke-linecap:butt;stroke-linejoin:miter;stroke-miterlimit:10;stroke-opacity:1;stroke-dasharray:none" /></g><path
       d="m 76.81,713.031 11,0 0,11 -11,0 0,-11 z"
       id="path134"
       style="fill:#ffffff;fill-opacity:1;fill-rule:nonzero;stroke:none" /><path
       d="m 76.81,713.031 11,0 0,11 -11,0 0,-11 z"
       id="path136"
       style="fill:none;stroke:#000000;stroke-width:0.5;stroke-linecap:butt;stroke-linejoin:miter;stroke-miterlimit:10;stroke-opacity:1;stroke-dasharray:none" /><text
       transform="matrix(1,0,0,-1,90.867,680.291)"
       id="text146"><tspan
         x="0"
         y="0"
         id="tspan148"
         style="font-size:9px;font-variant:normal;font-weight:bold;font-stretch:normal;writing-mode:lr-tb;fill:#00965a;fill-opacity:1;fill-rule:nonzero;stroke:none;font-family:Arial;-inkscape-font-specification:Arial-BoldMT">►</tspan></text>
<g
       transform="translate(70.685,615.481)"
       id="g154"><path
         d="M 0,0 383.503,0"
         id="path156"
         style="fill:none;stroke:#000000;stroke-width:0.5;stroke-linecap:butt;stroke-linejoin:miter;stroke-miterlimit:10;stroke-opacity:1;stroke-dasharray:none" /></g><g
       transform="translate(71.394,674.723)"
       id="g158"><path
         d="M 0,0 0,-59.492"
         id="path160"
         style="fill:none;stroke:#000000;stroke-width:1.41700006;stroke-linecap:butt;stroke-linejoin:miter;stroke-miterlimit:10;stroke-opacity:1;stroke-dasharray:none" /></g><path
       d="m 76.792,655.396 11,0 0,11 -11,0 0,-11 z"
       id="path162"
       style="fill:#ffffff;fill-opacity:1;fill-rule:nonzero;stroke:none" /><path
       d="m 76.792,655.396 11,0 0,11 -11,0 0,-11 z"
       id="path164"
       style="fill:none;stroke:#000000;stroke-width:0.5;stroke-linecap:butt;stroke-linejoin:miter;stroke-miterlimit:10;stroke-opacity:1;stroke-dasharray:none" /><g
       transform="translate(88.127,646.062)"
       id="g178"><path
         d="M 0,0 0,-30.547"
         id="path180"
         style="fill:none;stroke:#000000;stroke-width:0.5;stroke-linecap:butt;stroke-linejoin:miter;stroke-miterlimit:10;stroke-opacity:1;stroke-dasharray:none" /></g><g
       transform="translate(70.685,601.022)"
       id="g186"><path
         d="M 0,0 383.503,0"
         id="path188"
         style="fill:none;stroke:#000000;stroke-width:1.41700006;stroke-linecap:butt;stroke-linejoin:miter;stroke-miterlimit:10;stroke-opacity:1;stroke-dasharray:none" /></g><g
       transform="translate(71.394,615.309)"
       id="g190"><path
         d="M 0,0 0,-14.996"
         id="path192"
         style="fill:none;stroke:#000000;stroke-width:1.41700006;stroke-linecap:butt;stroke-linejoin:miter;stroke-miterlimit:10;stroke-opacity:1;stroke-dasharray:none" /></g><text
       transform="matrix(1,0,0,-1,86.451,606.054)"
       id="text194"><tspan
         x="0"
         y="0"
         id="tspan196"
         style="font-size:9px;font-variant:normal;font-weight:bold;font-stretch:normal;writing-mode:lr-tb;fill:#00965a;fill-opacity:1;fill-rule:nonzero;stroke:none;font-family:Arial;-inkscape-font-specification:Arial-BoldMT">►</tspan></text>
<text
       transform="matrix(1,0,0,-1,71.088,586.479)"
       id="text202"><tspan
         x="0 5.0040002 7.506"
         y="0"
         id="tspan204"
         style="font-size:9px;font-variant:normal;font-weight:bold;font-stretch:normal;writing-mode:lr-tb;fill:#000000;fill-opacity:1;fill-rule:nonzero;stroke:none;font-family:Arial;-inkscape-font-specification:Arial-BoldMT">6.4</tspan></text>
<g
       transform="translate(71.394,581.594)"
       id="g212"><path
         d="M 0,0 0,-26.352"
         id="path214"
         style="fill:none;stroke:#000000;stroke-width:1.41700006;stroke-linecap:butt;stroke-linejoin:miter;stroke-miterlimit:10;stroke-opacity:1;stroke-dasharray:none" /></g><path
       d="m 76.775,563.514 11,0 0,11 -11,0 0,-11 z"
       id="path216"
       style="fill:#ffffff;fill-opacity:1;fill-rule:nonzero;stroke:none" /><path
       d="m 76.775,563.514 11,0 0,11 -11,0 0,-11 z"
       id="path218"
       style="fill:none;stroke:#000000;stroke-width:0.5;stroke-linecap:butt;stroke-linejoin:miter;stroke-miterlimit:10;stroke-opacity:1;stroke-dasharray:none" /><g
       transform="translate(70.685,520.169)"
       id="g240"><path
         d="M 0,0 383.526,0"
         id="path242"
         style="fill:none;stroke:#000000;stroke-width:0.5;stroke-linecap:butt;stroke-linejoin:miter;stroke-miterlimit:10;stroke-opacity:1;stroke-dasharray:none" /></g><g
       transform="translate(71.394,555.2)"
       id="g244"><path
         d="M 0,0 0,-35.281"
         id="path246"
         style="fill:none;stroke:#000000;stroke-width:1.41700006;stroke-linecap:butt;stroke-linejoin:miter;stroke-miterlimit:10;stroke-opacity:1;stroke-dasharray:none" /></g><g
       transform="translate(88.127,550.948)"
       id="g248"><path
         d="M 0,0 0,-30.547"
         id="path250"
         style="fill:none;stroke:#000000;stroke-width:0.5;stroke-linecap:butt;stroke-linejoin:miter;stroke-miterlimit:10;stroke-opacity:1;stroke-dasharray:none" /></g><g
       transform="translate(271.211,550.948)"
       id="g256"><path
         d="M 0,0 0,-30.547"
         id="path258"
         style="fill:none;stroke:#000000;stroke-width:0.5;stroke-linecap:butt;stroke-linejoin:miter;stroke-miterlimit:10;stroke-opacity:1;stroke-dasharray:none" /></g><g
       transform="translate(70.685,484.867)"
       id="g264"><path
         d="M 0,0 383.503,0"
         id="path266"
         style="fill:none;stroke:#000000;stroke-width:0.5;stroke-linecap:butt;stroke-linejoin:miter;stroke-miterlimit:10;stroke-opacity:1;stroke-dasharray:none" /></g><g
       transform="translate(71.394,519.898)"
       id="g268"><path
         d="M 0,0 0,-35.281"
         id="path270"
         style="fill:none;stroke:#000000;stroke-width:1.41700006;stroke-linecap:butt;stroke-linejoin:miter;stroke-miterlimit:10;stroke-opacity:1;stroke-dasharray:none" /></g><g
       transform="translate(88.127,515.476)"
       id="g272"><path
         d="M 0,0 0,-30.547"
         id="path274"
         style="fill:none;stroke:#000000;stroke-width:0.5;stroke-linecap:butt;stroke-linejoin:miter;stroke-miterlimit:10;stroke-opacity:1;stroke-dasharray:none" /></g><g
       transform="translate(271.211,515.476)"
       id="g280"><path
         d="M 0,0 0,-30.547"
         id="path282"
         style="fill:none;stroke:#000000;stroke-width:0.5;stroke-linecap:butt;stroke-linejoin:miter;stroke-miterlimit:10;stroke-opacity:1;stroke-dasharray:none" /></g><g
       transform="translate(70.685,449.567)"
       id="g288"><path
         d="M 0,0 383.503,0"
         id="path290"
         style="fill:none;stroke:#000000;stroke-width:0.5;stroke-linecap:butt;stroke-linejoin:miter;stroke-miterlimit:10;stroke-opacity:1;stroke-dasharray:none" /></g><g
       transform="translate(71.394,484.598)"
       id="g292"><path
         d="M 0,0 0,-35.281"
         id="path294"
         style="fill:none;stroke:#000000;stroke-width:1.41700006;stroke-linecap:butt;stroke-linejoin:miter;stroke-miterlimit:10;stroke-opacity:1;stroke-dasharray:none" /></g><g
       transform="translate(88.127,480.346)"
       id="g296"><path
         d="M 0,0 0,-30.547"
         id="path298"
         style="fill:none;stroke:#000000;stroke-width:0.5;stroke-linecap:butt;stroke-linejoin:miter;stroke-miterlimit:10;stroke-opacity:1;stroke-dasharray:none" /></g><g
       transform="translate(70.685,435.105)"
       id="g304"><path
         d="M 0,0 383.503,0"
         id="path306"
         style="fill:none;stroke:#000000;stroke-width:1.41700006;stroke-linecap:butt;stroke-linejoin:miter;stroke-miterlimit:10;stroke-opacity:1;stroke-dasharray:none" /></g><g
       transform="translate(71.394,449.392)"
       id="g308"><path
         d="M 0,0 0,-14.996"
         id="path310"
         style="fill:none;stroke:#000000;stroke-width:1.41700006;stroke-linecap:butt;stroke-linejoin:miter;stroke-miterlimit:10;stroke-opacity:1;stroke-dasharray:none" /></g><text
       transform="matrix(1,0,0,-1,86.451,440.018)"
       id="text312"><tspan
         x="0"
         y="0"
         id="tspan314"
         style="font-size:9px;font-variant:normal;font-weight:bold;font-stretch:normal;writing-mode:lr-tb;fill:#00965a;fill-opacity:1;fill-rule:nonzero;stroke:none;font-family:Arial;-inkscape-font-specification:Arial-BoldMT">►</tspan></text>
<text
       transform="matrix(1,0,0,-1,70.332,419.219)"
       id="text320"><tspan
         x="0 5.0040002"
         y="0"
         id="tspan322"
         style="font-size:9px;font-variant:normal;font-weight:bold;font-stretch:normal;writing-mode:lr-tb;fill:#000000;fill-opacity:1;fill-rule:nonzero;stroke:none;font-family:Arial;-inkscape-font-specification:Arial-BoldMT">7.</tspan></text>
<text
       transform="matrix(1,0,0,-1,70.073,405.418)"
       id="text330"><tspan
         x="0 5.0040002 7.506"
         y="0"
         id="tspan332"
         style="font-size:9px;font-variant:normal;font-weight:bold;font-stretch:normal;writing-mode:lr-tb;fill:#000000;fill-opacity:1;fill-rule:nonzero;stroke:none;font-family:Arial;-inkscape-font-specification:Arial-BoldMT">7.1</tspan></text>
<g
       transform="translate(70.685,331.937)"
       id="g334"><path
         d="M 0,0 383.503,0"
         id="path336"
         style="fill:none;stroke:#000000;stroke-width:0.5;stroke-linecap:butt;stroke-linejoin:miter;stroke-miterlimit:10;stroke-opacity:1;stroke-dasharray:none" /></g><g
       transform="translate(71.394,400.199)"
       id="g338"><path
         d="M 0,0 0,-68.512"
         id="path340"
         style="fill:none;stroke:#000000;stroke-width:1.41700006;stroke-linecap:butt;stroke-linejoin:miter;stroke-miterlimit:10;stroke-opacity:1;stroke-dasharray:none" /></g><path
       d="m 76.775,381.759 11,0 0,11 -11,0 0,-11 z"
       id="path342"
       style="fill:#ffffff;fill-opacity:1;fill-rule:nonzero;stroke:none" /><path
       d="m 76.775,381.759 11,0 0,11 -11,0 0,-11 z"
       id="path344"
       style="fill:none;stroke:#000000;stroke-width:0.5;stroke-linecap:butt;stroke-linejoin:miter;stroke-miterlimit:10;stroke-opacity:1;stroke-dasharray:none" /><g
       transform="translate(88.127,372.439)"
       id="g364"><path
         d="M 0,0 0,-40.752"
         id="path366"
         style="fill:none;stroke:#000000;stroke-width:0.5;stroke-linecap:butt;stroke-linejoin:miter;stroke-miterlimit:10;stroke-opacity:1;stroke-dasharray:none" /></g><g
       transform="translate(210.048,372.439)"
       id="g372"><path
         d="M 0,0 0,-40.752"
         id="path374"
         style="fill:none;stroke:#000000;stroke-width:0.5;stroke-linecap:butt;stroke-linejoin:miter;stroke-miterlimit:10;stroke-opacity:1;stroke-dasharray:none" /></g><g
       transform="translate(332.221,372.439)"
       id="g380"><path
         d="M 0,0 0,-40.752"
         id="path382"
         style="fill:none;stroke:#000000;stroke-width:0.5;stroke-linecap:butt;stroke-linejoin:miter;stroke-miterlimit:10;stroke-opacity:1;stroke-dasharray:none" /></g><g
       transform="translate(70.685,297.295)"
       id="g392"><path
         d="M 0,0 383.503,0"
         id="path394"
         style="fill:none;stroke:#000000;stroke-width:1.41700006;stroke-linecap:butt;stroke-linejoin:miter;stroke-miterlimit:10;stroke-opacity:1;stroke-dasharray:none" /></g><g
       transform="translate(71.394,332.071)"
       id="g396"><path
         d="M 0,0 0,-35.485"
         id="path398"
         style="fill:none;stroke:#000000;stroke-width:1.41700006;stroke-linecap:butt;stroke-linejoin:miter;stroke-miterlimit:10;stroke-opacity:1;stroke-dasharray:none" /></g><text
       transform="matrix(1,0,0,-1,86.451,323.015)"
       id="text400"><tspan
         x="0"
         y="0"
         id="tspan402"
         style="font-size:9px;font-variant:normal;font-weight:bold;font-stretch:normal;writing-mode:lr-tb;fill:#00965a;fill-opacity:1;fill-rule:nonzero;stroke:none;font-family:Arial;-inkscape-font-specification:Arial-BoldMT">►</tspan></text>
<g
       transform="translate(71.394,296.749)"
       id="g412"><path
         d="M 0,0 0,-55.524"
         id="path414"
         style="fill:none;stroke:#000000;stroke-width:1.41700006;stroke-linecap:butt;stroke-linejoin:miter;stroke-miterlimit:10;stroke-opacity:1;stroke-dasharray:none" /></g><path
       d="m 76.775,280.599 11,0 0,11 -11,0 0,-11 z"
       id="path416"
       style="fill:#ffffff;fill-opacity:1;fill-rule:nonzero;stroke:none" /><path
       d="m 76.775,280.599 11,0 0,11 -11,0 0,-11 z"
       id="path418"
       style="fill:none;stroke:#000000;stroke-width:0.5;stroke-linecap:butt;stroke-linejoin:miter;stroke-miterlimit:10;stroke-opacity:1;stroke-dasharray:none" /><path
       d="m 94.762,262.756 11,0 0,11 -11,0 0,-11 z"
       id="path438"
       style="fill:#ffffff;fill-opacity:1;fill-rule:nonzero;stroke:none" /><path
       d="m 94.762,262.756 11,0 0,11 -11,0 0,-11 z"
       id="path440"
       style="fill:none;stroke:#000000;stroke-width:0.5;stroke-linecap:butt;stroke-linejoin:miter;stroke-miterlimit:10;stroke-opacity:1;stroke-dasharray:none" /><path
       d="m 94.762,244.557 11,0 0,11 -11,0 0,-11 z"
       id="path446"
       style="fill:#ffffff;fill-opacity:1;fill-rule:nonzero;stroke:none" /><path
       d="m 94.762,244.557 11,0 0,11 -11,0 0,-11 z"
       id="path448"
       style="fill:none;stroke:#000000;stroke-width:0.5;stroke-linecap:butt;stroke-linejoin:miter;stroke-miterlimit:10;stroke-opacity:1;stroke-dasharray:none" /><g
       transform="translate(70.685,206.587)"
       id="g454"><path
         d="M 0,0 383.503,0"
         id="path456"
         style="fill:none;stroke:#000000;stroke-width:0.5;stroke-linecap:butt;stroke-linejoin:miter;stroke-miterlimit:10;stroke-opacity:1;stroke-dasharray:none" /></g><g
       transform="translate(71.394,241.618)"
       id="g458"><path
         d="M 0,0 0,-35.281"
         id="path460"
         style="fill:none;stroke:#000000;stroke-width:1.41700006;stroke-linecap:butt;stroke-linejoin:miter;stroke-miterlimit:10;stroke-opacity:1;stroke-dasharray:none" /></g><g
       transform="translate(88.127,237.366)"
       id="g462"><path
         d="M 0,0 0,-30.547"
         id="path464"
         style="fill:none;stroke:#000000;stroke-width:0.5;stroke-linecap:butt;stroke-linejoin:miter;stroke-miterlimit:10;stroke-opacity:1;stroke-dasharray:none" /></g><g
       transform="translate(271.049,237.366)"
       id="g470"><path
         d="M 0,0 0,-30.547"
         id="path472"
         style="fill:none;stroke:#000000;stroke-width:0.5;stroke-linecap:butt;stroke-linejoin:miter;stroke-miterlimit:10;stroke-opacity:1;stroke-dasharray:none" /></g><g
       transform="translate(70.685,180.567)"
       id="g478"><path
         d="M 0,0 383.503,0"
         id="path480"
         style="fill:none;stroke:#000000;stroke-width:1.41700006;stroke-linecap:butt;stroke-linejoin:miter;stroke-miterlimit:10;stroke-opacity:1;stroke-dasharray:none" /></g><g
       transform="translate(71.394,206.329)"
       id="g482"><path
         d="M 0,0 0,-26.471"
         id="path484"
         style="fill:none;stroke:#000000;stroke-width:1.41700006;stroke-linecap:butt;stroke-linejoin:miter;stroke-miterlimit:10;stroke-opacity:1;stroke-dasharray:none" /></g><text
       transform="matrix(1,0,0,-1,86.451,196.819)"
       id="text486"><tspan
         x="0"
         y="0"
         id="tspan488"
         style="font-size:9px;font-variant:normal;font-weight:bold;font-stretch:normal;writing-mode:lr-tb;fill:#00965a;fill-opacity:1;fill-rule:nonzero;stroke:none;font-family:Arial;-inkscape-font-specification:Arial-BoldMT">►</tspan></text>
<text
       transform="matrix(1,0,0,-1,70.328,166.177)"
       id="text502"><tspan
         x="0 5.0040002 7.506"
         y="0"
         id="tspan504"
         style="font-size:9px;font-variant:normal;font-weight:bold;font-stretch:normal;writing-mode:lr-tb;fill:#000000;fill-opacity:1;fill-rule:nonzero;stroke:none;font-family:Arial;-inkscape-font-specification:Arial-BoldMT">7.2</tspan></text>
<g
       transform="translate(70.685,119.991)"
       id="g506"><path
         d="M 0,0 385.453,0"
         id="path508"
         style="fill:none;stroke:#000000;stroke-width:1.41700006;stroke-linecap:butt;stroke-linejoin:miter;stroke-miterlimit:10;stroke-opacity:1;stroke-dasharray:none" /></g><g
       transform="translate(71.394,162.165)"
       id="g510"><path
         d="M 0,0 0,-42.883"
         id="path512"
         style="fill:none;stroke:#000000;stroke-width:1.41700006;stroke-linecap:butt;stroke-linejoin:miter;stroke-miterlimit:10;stroke-opacity:1;stroke-dasharray:none" /></g><path
       d="m 76.431,142.197 11,0 0,11 -11,0 0,-11 z"
       id="path514"
       style="fill:#ffffff;fill-opacity:1;fill-rule:nonzero;stroke:none" /><path
       d="m 76.431,142.197 11,0 0,11 -11,0 0,-11 z"
       id="path516"
       style="fill:none;stroke:#000000;stroke-width:0.5;stroke-linecap:butt;stroke-linejoin:miter;stroke-miterlimit:10;stroke-opacity:1;stroke-dasharray:none" /><text
       transform="matrix(1,0,0,-1,91.04,125.498)"
       id="text538"><tspan
         x="0"
         y="0"
         id="tspan540"
         style="font-size:9px;font-variant:normal;font-weight:bold;font-stretch:normal;writing-mode:lr-tb;fill:#00965a;fill-opacity:1;fill-rule:nonzero;stroke:none;font-family:Arial;-inkscape-font-specification:Arial-BoldMT">►</tspan></text>
<g
       transform="translate(262.894,156.892)"
       id="g548"><path
         d="M 0,0 0,-35.915"
         id="path550"
         style="fill:none;stroke:#000000;stroke-width:0.5;stroke-linecap:square;stroke-linejoin:miter;stroke-miterlimit:10;stroke-opacity:1;stroke-dasharray:none" /></g><path
       d="m 269.17,142.218 11,0 0,11 -11,0 0,-11 z"
       id="path552"
       style="fill:#ffffff;fill-opacity:1;fill-rule:nonzero;stroke:none" /><path
       d="m 269.17,142.218 11,0 0,11 -11,0 0,-11 z"
       id="path554"
       style="fill:none;stroke:#000000;stroke-width:0.5;stroke-linecap:butt;stroke-linejoin:miter;stroke-miterlimit:10;stroke-opacity:1;stroke-dasharray:none" /><text
       transform="matrix(1,0,0,-1,283.631,125.497)"
       id="text568"><tspan
         x="0"
         y="0"
         id="tspan570"
         style="font-size:9px;font-variant:normal;font-weight:bold;font-stretch:normal;writing-mode:lr-tb;fill:#00965a;fill-opacity:1;fill-rule:nonzero;stroke:none;font-family:Arial;-inkscape-font-specification:Arial-BoldMT">►</tspan></text>
<text
       transform="matrix(1,0,0,-1,70.07,106.552)"
       id="text578"><tspan
         x="0 5.0040002"
         y="0"
         id="tspan580"
         style="font-size:9px;font-variant:normal;font-weight:bold;font-stretch:normal;writing-mode:lr-tb;fill:#000000;fill-opacity:1;fill-rule:nonzero;stroke:none;font-family:Arial;-inkscape-font-specification:Arial-BoldMT">8.</tspan></text>
<g
       transform="translate(70.685,69.393)"
       id="g582"><path
         d="M 0,0 383.503,0"
         id="path584"
         style="fill:none;stroke:#000000;stroke-width:1.41700006;stroke-linecap:butt;stroke-linejoin:miter;stroke-miterlimit:10;stroke-opacity:1;stroke-dasharray:none" /></g><g
       transform="translate(71.394,102.383)"
       id="g586"><path
         d="M 0,0 0,-33.699"
         id="path588"
         style="fill:none;stroke:#000000;stroke-width:1.41700006;stroke-linecap:butt;stroke-linejoin:miter;stroke-miterlimit:10;stroke-opacity:1;stroke-dasharray:none" /></g><path
       d="m 76.775,86.712 11,0 0,11 -11,0 0,-11 z"
       id="path590"
       style="fill:#ffffff;fill-opacity:1;fill-rule:nonzero;stroke:none" /><path
       d="m 76.775,86.712 11,0 0,11 -11,0 0,-11 z"
       id="path592"
       style="fill:none;stroke:#000000;stroke-width:0.5;stroke-linecap:butt;stroke-linejoin:miter;stroke-miterlimit:10;stroke-opacity:1;stroke-dasharray:none" /><text
       transform="matrix(1,0,0,-1,91.042,76.237)"
       id="text598"><tspan
         x="0"
         y="0"
         id="tspan600"
         style="font-size:9px;font-variant:normal;font-weight:bold;font-stretch:normal;writing-mode:lr-tb;fill:#00965a;fill-opacity:1;fill-rule:nonzero;stroke:none;font-family:Arial;-inkscape-font-specification:Arial-BoldMT">►</tspan></text>
</g></svg>