<?xml version="1.0" encoding="UTF-8" standalone="no"?>
<!-- Created with Inkscape (http://www.inkscape.org/) -->

<svg
   xmlns:dc="http://purl.org/dc/elements/1.1/"
   xmlns:cc="http://creativecommons.org/ns#"
   xmlns:rdf="http://www.w3.org/1999/02/22-rdf-syntax-ns#"
   xmlns:svg="http://www.w3.org/2000/svg"
   xmlns="http://www.w3.org/2000/svg"
   xmlns:sodipodi="http://sodipodi.sourceforge.net/DTD/sodipodi-0.dtd"
   xmlns:inkscape="http://www.inkscape.org/namespaces/inkscape"
   id="svg2"
   version="1.1"
   inkscape:version="0.48.5 r10040"
   width="656.70001"
   height="939.48749"
   xml:space="preserve"
   sodipodi:docname="soz_iii_b_1____01_14.pdf"><metadata
     id="metadata8"><rdf:RDF><cc:Work
         rdf:about=""><dc:format>image/svg+xml</dc:format><dc:type
           rdf:resource="http://purl.org/dc/dcmitype/StillImage" /><dc:title></dc:title></cc:Work></rdf:RDF></metadata><defs
     id="defs6"><clipPath
       clipPathUnits="userSpaceOnUse"
       id="clipPath44"><path
         d="m 0.001,-0.091 595.44,0 0,842.01 -595.44,0 0,-842.01 z"
         clip-rule="evenodd"
         id="path46"
         inkscape:connector-curvature="0" /></clipPath><clipPath
       clipPathUnits="userSpaceOnUse"
       id="clipPath58"><path
         d="m 51.121,440.11 522.36,0 0,389.45 -522.36,0 0,-389.45 z"
         clip-rule="evenodd"
         id="path60"
         inkscape:connector-curvature="0" /></clipPath><clipPath
       clipPathUnits="userSpaceOnUse"
       id="clipPath68"><path
         d="m 51.12,440.11 522.36,0 0,389.45 -522.36,0 0,-389.45 z"
         clip-rule="evenodd"
         id="path70"
         inkscape:connector-curvature="0" /></clipPath><clipPath
       clipPathUnits="userSpaceOnUse"
       id="clipPath80"><path
         d="m 51.12,440.11 522.36,0 0,389.45 -522.36,0 0,-389.45 z"
         clip-rule="evenodd"
         id="path82"
         inkscape:connector-curvature="0" /></clipPath><clipPath
       clipPathUnits="userSpaceOnUse"
       id="clipPath90"><path
         d="m 51.12,440.11 522.36,0 0,389.45 -522.36,0 0,-389.45 z"
         clip-rule="evenodd"
         id="path92"
         inkscape:connector-curvature="0" /></clipPath><clipPath
       clipPathUnits="userSpaceOnUse"
       id="clipPath102"><path
         d="m 51.12,440.11 522.36,0 0,389.45 -522.36,0 0,-389.45 z"
         clip-rule="evenodd"
         id="path104"
         inkscape:connector-curvature="0" /></clipPath><clipPath
       clipPathUnits="userSpaceOnUse"
       id="clipPath116"><path
         d="m 51.12,440.11 522.36,0 0,389.45 -522.36,0 0,-389.45 z"
         clip-rule="evenodd"
         id="path118"
         inkscape:connector-curvature="0" /></clipPath><clipPath
       clipPathUnits="userSpaceOnUse"
       id="clipPath128"><path
         d="m 51.12,440.11 522.36,0 0,389.45 -522.36,0 0,-389.45 z"
         clip-rule="evenodd"
         id="path130"
         inkscape:connector-curvature="0" /></clipPath><clipPath
       clipPathUnits="userSpaceOnUse"
       id="clipPath136"><path
         d="m 51.12,440.11 522.36,0 0,389.45 -522.36,0 0,-389.45 z"
         clip-rule="evenodd"
         id="path138"
         inkscape:connector-curvature="0" /></clipPath><clipPath
       clipPathUnits="userSpaceOnUse"
       id="clipPath148"><path
         d="m 51.12,440.11 522.36,0 0,389.45 -522.36,0 0,-389.45 z"
         clip-rule="evenodd"
         id="path150"
         inkscape:connector-curvature="0" /></clipPath><clipPath
       clipPathUnits="userSpaceOnUse"
       id="clipPath156"><path
         d="m 51.12,440.11 522.36,0 0,389.45 -522.36,0 0,-389.45 z"
         clip-rule="evenodd"
         id="path158"
         inkscape:connector-curvature="0" /></clipPath><clipPath
       clipPathUnits="userSpaceOnUse"
       id="clipPath168"><path
         d="m 51.12,440.11 522.36,0 0,389.45 -522.36,0 0,-389.45 z"
         clip-rule="evenodd"
         id="path170"
         inkscape:connector-curvature="0" /></clipPath><clipPath
       clipPathUnits="userSpaceOnUse"
       id="clipPath176"><path
         d="m 51.12,440.11 522.36,0 0,389.45 -522.36,0 0,-389.45 z"
         clip-rule="evenodd"
         id="path178"
         inkscape:connector-curvature="0" /></clipPath><clipPath
       clipPathUnits="userSpaceOnUse"
       id="clipPath188"><path
         d="m 51.12,440.11 522.36,0 0,389.45 -522.36,0 0,-389.45 z"
         clip-rule="evenodd"
         id="path190"
         inkscape:connector-curvature="0" /></clipPath><clipPath
       clipPathUnits="userSpaceOnUse"
       id="clipPath196"><path
         d="m 51.12,440.11 522.36,0 0,389.45 -522.36,0 0,-389.45 z"
         clip-rule="evenodd"
         id="path198"
         inkscape:connector-curvature="0" /></clipPath><clipPath
       clipPathUnits="userSpaceOnUse"
       id="clipPath210"><path
         d="m 51.12,440.11 522.36,0 0,389.45 -522.36,0 0,-389.45 z"
         clip-rule="evenodd"
         id="path212"
         inkscape:connector-curvature="0" /></clipPath><clipPath
       clipPathUnits="userSpaceOnUse"
       id="clipPath222"><path
         d="m 51.12,440.11 522.36,0 0,389.45 -522.36,0 0,-389.45 z"
         clip-rule="evenodd"
         id="path224"
         inkscape:connector-curvature="0" /></clipPath><clipPath
       clipPathUnits="userSpaceOnUse"
       id="clipPath230"><path
         d="m 51.12,440.11 522.36,0 0,389.45 -522.36,0 0,-389.45 z"
         clip-rule="evenodd"
         id="path232"
         inkscape:connector-curvature="0" /></clipPath><clipPath
       clipPathUnits="userSpaceOnUse"
       id="clipPath242"><path
         d="m 51.12,440.11 522.36,0 0,389.45 -522.36,0 0,-389.45 z"
         clip-rule="evenodd"
         id="path244"
         inkscape:connector-curvature="0" /></clipPath><clipPath
       clipPathUnits="userSpaceOnUse"
       id="clipPath252"><path
         d="m 51.12,440.11 522.36,0 0,389.45 -522.36,0 0,-389.45 z"
         clip-rule="evenodd"
         id="path254"
         inkscape:connector-curvature="0" /></clipPath><clipPath
       clipPathUnits="userSpaceOnUse"
       id="clipPath262"><path
         d="m 51.12,440.11 522.36,0 0,389.45 -522.36,0 0,-389.45 z"
         clip-rule="evenodd"
         id="path264"
         inkscape:connector-curvature="0" /></clipPath><clipPath
       clipPathUnits="userSpaceOnUse"
       id="clipPath274"><path
         d="m 51.12,440.11 522.36,0 0,389.45 -522.36,0 0,-389.45 z"
         clip-rule="evenodd"
         id="path276"
         inkscape:connector-curvature="0" /></clipPath><clipPath
       clipPathUnits="userSpaceOnUse"
       id="clipPath282"><path
         d="m 51.12,440.11 522.36,0 0,389.45 -522.36,0 0,-389.45 z"
         clip-rule="evenodd"
         id="path284"
         inkscape:connector-curvature="0" /></clipPath><clipPath
       clipPathUnits="userSpaceOnUse"
       id="clipPath294"><path
         d="m 51.12,440.11 522.36,0 0,389.45 -522.36,0 0,-389.45 z"
         clip-rule="evenodd"
         id="path296"
         inkscape:connector-curvature="0" /></clipPath><clipPath
       clipPathUnits="userSpaceOnUse"
       id="clipPath306"><path
         d="m 51.12,440.11 522.36,0 0,389.45 -522.36,0 0,-389.45 z"
         clip-rule="evenodd"
         id="path308"
         inkscape:connector-curvature="0" /></clipPath><clipPath
       clipPathUnits="userSpaceOnUse"
       id="clipPath316"><path
         d="m 51.12,440.11 522.36,0 0,389.45 -522.36,0 0,-389.45 z"
         clip-rule="evenodd"
         id="path318"
         inkscape:connector-curvature="0" /></clipPath><clipPath
       clipPathUnits="userSpaceOnUse"
       id="clipPath326"><path
         d="m 51.12,440.11 522.36,0 0,389.45 -522.36,0 0,-389.45 z"
         clip-rule="evenodd"
         id="path328"
         inkscape:connector-curvature="0" /></clipPath><clipPath
       clipPathUnits="userSpaceOnUse"
       id="clipPath338"><path
         d="m 51.12,440.11 522.36,0 0,389.45 -522.36,0 0,-389.45 z"
         clip-rule="evenodd"
         id="path340"
         inkscape:connector-curvature="0" /></clipPath><clipPath
       clipPathUnits="userSpaceOnUse"
       id="clipPath346"><path
         d="m 51.12,440.11 522.36,0 0,389.45 -522.36,0 0,-389.45 z"
         clip-rule="evenodd"
         id="path348"
         inkscape:connector-curvature="0" /></clipPath><clipPath
       clipPathUnits="userSpaceOnUse"
       id="clipPath358"><path
         d="m 51.12,440.11 522.36,0 0,389.45 -522.36,0 0,-389.45 z"
         clip-rule="evenodd"
         id="path360"
         inkscape:connector-curvature="0" /></clipPath><clipPath
       clipPathUnits="userSpaceOnUse"
       id="clipPath368"><path
         d="m 51.12,440.11 522.36,0 0,389.45 -522.36,0 0,-389.45 z"
         clip-rule="evenodd"
         id="path370"
         inkscape:connector-curvature="0" /></clipPath><clipPath
       clipPathUnits="userSpaceOnUse"
       id="clipPath378"><path
         d="m 51.12,440.11 522.36,0 0,389.45 -522.36,0 0,-389.45 z"
         clip-rule="evenodd"
         id="path380"
         inkscape:connector-curvature="0" /></clipPath><clipPath
       clipPathUnits="userSpaceOnUse"
       id="clipPath390"><path
         d="m 51.12,440.11 522.36,0 0,389.45 -522.36,0 0,-389.45 z"
         clip-rule="evenodd"
         id="path392"
         inkscape:connector-curvature="0" /></clipPath><clipPath
       clipPathUnits="userSpaceOnUse"
       id="clipPath398"><path
         d="m 51.12,440.11 522.36,0 0,389.45 -522.36,0 0,-389.45 z"
         clip-rule="evenodd"
         id="path400"
         inkscape:connector-curvature="0" /></clipPath><clipPath
       clipPathUnits="userSpaceOnUse"
       id="clipPath410"><path
         d="m 51.12,440.11 522.36,0 0,389.45 -522.36,0 0,-389.45 z"
         clip-rule="evenodd"
         id="path412"
         inkscape:connector-curvature="0" /></clipPath><clipPath
       clipPathUnits="userSpaceOnUse"
       id="clipPath420"><path
         d="m 51.12,440.11 522.36,0 0,389.45 -522.36,0 0,-389.45 z"
         clip-rule="evenodd"
         id="path422"
         inkscape:connector-curvature="0" /></clipPath><clipPath
       clipPathUnits="userSpaceOnUse"
       id="clipPath430"><path
         d="m 51.12,440.11 522.36,0 0,389.45 -522.36,0 0,-389.45 z"
         clip-rule="evenodd"
         id="path432"
         inkscape:connector-curvature="0" /></clipPath><clipPath
       clipPathUnits="userSpaceOnUse"
       id="clipPath440"><path
         d="m 51.12,440.11 522.36,0 0,389.45 -522.36,0 0,-389.45 z"
         clip-rule="evenodd"
         id="path442"
         inkscape:connector-curvature="0" /></clipPath><clipPath
       clipPathUnits="userSpaceOnUse"
       id="clipPath452"><path
         d="m 51.12,440.11 522.36,0 0,389.45 -522.36,0 0,-389.45 z"
         clip-rule="evenodd"
         id="path454"
         inkscape:connector-curvature="0" /></clipPath><clipPath
       clipPathUnits="userSpaceOnUse"
       id="clipPath466"><path
         d="m 51.12,440.11 522.36,0 0,389.45 -522.36,0 0,-389.45 z"
         clip-rule="evenodd"
         id="path468"
         inkscape:connector-curvature="0" /></clipPath><clipPath
       clipPathUnits="userSpaceOnUse"
       id="clipPath478"><path
         d="m 51.12,440.11 522.36,0 0,389.45 -522.36,0 0,-389.45 z"
         clip-rule="evenodd"
         id="path480"
         inkscape:connector-curvature="0" /></clipPath><clipPath
       clipPathUnits="userSpaceOnUse"
       id="clipPath490"><path
         d="m 51.12,440.11 522.36,0 0,389.45 -522.36,0 0,-389.45 z"
         clip-rule="evenodd"
         id="path492"
         inkscape:connector-curvature="0" /></clipPath><clipPath
       clipPathUnits="userSpaceOnUse"
       id="clipPath498"><path
         d="m 51.12,440.11 522.36,0 0,389.45 -522.36,0 0,-389.45 z"
         clip-rule="evenodd"
         id="path500"
         inkscape:connector-curvature="0" /></clipPath><clipPath
       clipPathUnits="userSpaceOnUse"
       id="clipPath510"><path
         d="m 51.12,440.11 522.36,0 0,389.45 -522.36,0 0,-389.45 z"
         clip-rule="evenodd"
         id="path512"
         inkscape:connector-curvature="0" /></clipPath><clipPath
       clipPathUnits="userSpaceOnUse"
       id="clipPath522"><path
         d="m 51.12,440.11 522.36,0 0,389.45 -522.36,0 0,-389.45 z"
         clip-rule="evenodd"
         id="path524"
         inkscape:connector-curvature="0" /></clipPath><clipPath
       clipPathUnits="userSpaceOnUse"
       id="clipPath532"><path
         d="m 51.12,440.11 522.36,0 0,389.45 -522.36,0 0,-389.45 z"
         clip-rule="evenodd"
         id="path534"
         inkscape:connector-curvature="0" /></clipPath><clipPath
       clipPathUnits="userSpaceOnUse"
       id="clipPath544"><path
         d="m 51.12,440.11 522.36,0 0,389.45 -522.36,0 0,-389.45 z"
         clip-rule="evenodd"
         id="path546"
         inkscape:connector-curvature="0" /></clipPath><clipPath
       clipPathUnits="userSpaceOnUse"
       id="clipPath554"><path
         d="m 51.12,440.11 522.36,0 0,389.45 -522.36,0 0,-389.45 z"
         clip-rule="evenodd"
         id="path556"
         inkscape:connector-curvature="0" /></clipPath><clipPath
       clipPathUnits="userSpaceOnUse"
       id="clipPath564"><path
         d="m 51.12,440.11 522.36,0 0,389.45 -522.36,0 0,-389.45 z"
         clip-rule="evenodd"
         id="path566"
         inkscape:connector-curvature="0" /></clipPath><clipPath
       clipPathUnits="userSpaceOnUse"
       id="clipPath576"><path
         d="m 51.12,440.11 522.36,0 0,389.45 -522.36,0 0,-389.45 z"
         clip-rule="evenodd"
         id="path578"
         inkscape:connector-curvature="0" /></clipPath><clipPath
       clipPathUnits="userSpaceOnUse"
       id="clipPath584"><path
         d="m 51.12,440.11 522.36,0 0,389.45 -522.36,0 0,-389.45 z"
         clip-rule="evenodd"
         id="path586"
         inkscape:connector-curvature="0" /></clipPath><clipPath
       clipPathUnits="userSpaceOnUse"
       id="clipPath598"><path
         d="m 51.12,440.11 522.36,0 0,389.45 -522.36,0 0,-389.45 z"
         clip-rule="evenodd"
         id="path600"
         inkscape:connector-curvature="0" /></clipPath><clipPath
       clipPathUnits="userSpaceOnUse"
       id="clipPath610"><path
         d="m 51.12,440.11 522.36,0 0,389.45 -522.36,0 0,-389.45 z"
         clip-rule="evenodd"
         id="path612"
         inkscape:connector-curvature="0" /></clipPath><clipPath
       clipPathUnits="userSpaceOnUse"
       id="clipPath622"><path
         d="m 51.12,440.11 522.36,0 0,389.45 -522.36,0 0,-389.45 z"
         clip-rule="evenodd"
         id="path624"
         inkscape:connector-curvature="0" /></clipPath><clipPath
       clipPathUnits="userSpaceOnUse"
       id="clipPath632"><path
         d="m 51.12,440.11 522.36,0 0,389.45 -522.36,0 0,-389.45 z"
         clip-rule="evenodd"
         id="path634"
         inkscape:connector-curvature="0" /></clipPath><clipPath
       clipPathUnits="userSpaceOnUse"
       id="clipPath642"><path
         d="m 51.12,440.11 522.36,0 0,389.45 -522.36,0 0,-389.45 z"
         clip-rule="evenodd"
         id="path644"
         inkscape:connector-curvature="0" /></clipPath><clipPath
       clipPathUnits="userSpaceOnUse"
       id="clipPath654"><path
         d="m 51.12,440.11 522.36,0 0,389.45 -522.36,0 0,-389.45 z"
         clip-rule="evenodd"
         id="path656"
         inkscape:connector-curvature="0" /></clipPath><clipPath
       clipPathUnits="userSpaceOnUse"
       id="clipPath662"><path
         d="m 51.12,440.11 522.36,0 0,389.45 -522.36,0 0,-389.45 z"
         clip-rule="evenodd"
         id="path664"
         inkscape:connector-curvature="0" /></clipPath><clipPath
       clipPathUnits="userSpaceOnUse"
       id="clipPath676"><path
         d="m 51.12,440.11 522.36,0 0,389.45 -522.36,0 0,-389.45 z"
         clip-rule="evenodd"
         id="path678"
         inkscape:connector-curvature="0" /></clipPath><clipPath
       clipPathUnits="userSpaceOnUse"
       id="clipPath688"><path
         d="m 51.12,440.11 522.36,0 0,389.45 -522.36,0 0,-389.45 z"
         clip-rule="evenodd"
         id="path690"
         inkscape:connector-curvature="0" /></clipPath><clipPath
       clipPathUnits="userSpaceOnUse"
       id="clipPath698"><path
         d="m 51.12,440.11 522.36,0 0,389.45 -522.36,0 0,-389.45 z"
         clip-rule="evenodd"
         id="path700"
         inkscape:connector-curvature="0" /></clipPath><clipPath
       clipPathUnits="userSpaceOnUse"
       id="clipPath708"><path
         d="m 51.12,440.11 522.36,0 0,389.45 -522.36,0 0,-389.45 z"
         clip-rule="evenodd"
         id="path710"
         inkscape:connector-curvature="0" /></clipPath><clipPath
       clipPathUnits="userSpaceOnUse"
       id="clipPath720"><path
         d="m 51.12,440.11 522.36,0 0,389.45 -522.36,0 0,-389.45 z"
         clip-rule="evenodd"
         id="path722"
         inkscape:connector-curvature="0" /></clipPath><clipPath
       clipPathUnits="userSpaceOnUse"
       id="clipPath734"><path
         d="m 51.12,440.11 522.36,0 0,389.45 -522.36,0 0,-389.45 z"
         clip-rule="evenodd"
         id="path736"
         inkscape:connector-curvature="0" /></clipPath><clipPath
       clipPathUnits="userSpaceOnUse"
       id="clipPath748"><path
         d="m 51.12,440.11 522.36,0 0,389.45 -522.36,0 0,-389.45 z"
         clip-rule="evenodd"
         id="path750"
         inkscape:connector-curvature="0" /></clipPath><clipPath
       clipPathUnits="userSpaceOnUse"
       id="clipPath760"><path
         d="m 51.12,440.11 522.36,0 0,389.45 -522.36,0 0,-389.45 z"
         clip-rule="evenodd"
         id="path762"
         inkscape:connector-curvature="0" /></clipPath><clipPath
       clipPathUnits="userSpaceOnUse"
       id="clipPath774"><path
         d="m 51.12,440.11 522.36,0 0,389.45 -522.36,0 0,-389.45 z"
         clip-rule="evenodd"
         id="path776"
         inkscape:connector-curvature="0" /></clipPath><clipPath
       clipPathUnits="userSpaceOnUse"
       id="clipPath788"><path
         d="m 51.12,440.11 522.36,0 0,389.45 -522.36,0 0,-389.45 z"
         clip-rule="evenodd"
         id="path790"
         inkscape:connector-curvature="0" /></clipPath><clipPath
       clipPathUnits="userSpaceOnUse"
       id="clipPath800"><path
         d="m 51.12,440.11 522.36,0 0,389.45 -522.36,0 0,-389.45 z"
         clip-rule="evenodd"
         id="path802"
         inkscape:connector-curvature="0" /></clipPath><clipPath
       clipPathUnits="userSpaceOnUse"
       id="clipPath814"><path
         d="m 51.12,440.11 522.36,0 0,389.45 -522.36,0 0,-389.45 z"
         clip-rule="evenodd"
         id="path816"
         inkscape:connector-curvature="0" /></clipPath><clipPath
       clipPathUnits="userSpaceOnUse"
       id="clipPath828"><path
         d="m 51.12,440.11 522.36,0 0,389.45 -522.36,0 0,-389.45 z"
         clip-rule="evenodd"
         id="path830"
         inkscape:connector-curvature="0" /></clipPath><clipPath
       clipPathUnits="userSpaceOnUse"
       id="clipPath840"><path
         d="m 51.12,440.11 522.36,0 0,389.45 -522.36,0 0,-389.45 z"
         clip-rule="evenodd"
         id="path842"
         inkscape:connector-curvature="0" /></clipPath><clipPath
       clipPathUnits="userSpaceOnUse"
       id="clipPath848"><path
         d="m 51.12,440.11 522.36,0 0,389.45 -522.36,0 0,-389.45 z"
         clip-rule="evenodd"
         id="path850"
         inkscape:connector-curvature="0" /></clipPath><clipPath
       clipPathUnits="userSpaceOnUse"
       id="clipPath860"><path
         d="m 51.12,440.11 522.36,0 0,389.45 -522.36,0 0,-389.45 z"
         clip-rule="evenodd"
         id="path862"
         inkscape:connector-curvature="0" /></clipPath><clipPath
       clipPathUnits="userSpaceOnUse"
       id="clipPath868"><path
         d="m 51.12,440.11 522.36,0 0,389.45 -522.36,0 0,-389.45 z"
         clip-rule="evenodd"
         id="path870"
         inkscape:connector-curvature="0" /></clipPath><clipPath
       clipPathUnits="userSpaceOnUse"
       id="clipPath880"><path
         d="m 51.12,440.11 522.36,0 0,389.45 -522.36,0 0,-389.45 z"
         clip-rule="evenodd"
         id="path882"
         inkscape:connector-curvature="0" /></clipPath><clipPath
       clipPathUnits="userSpaceOnUse"
       id="clipPath888"><path
         d="m 51.12,440.11 522.36,0 0,389.45 -522.36,0 0,-389.45 z"
         clip-rule="evenodd"
         id="path890"
         inkscape:connector-curvature="0" /></clipPath><clipPath
       clipPathUnits="userSpaceOnUse"
       id="clipPath900"><path
         d="m 51.12,440.11 522.36,0 0,389.45 -522.36,0 0,-389.45 z"
         clip-rule="evenodd"
         id="path902"
         inkscape:connector-curvature="0" /></clipPath><clipPath
       clipPathUnits="userSpaceOnUse"
       id="clipPath910"><path
         d="m 51.12,440.11 522.36,0 0,389.45 -522.36,0 0,-389.45 z"
         clip-rule="evenodd"
         id="path912"
         inkscape:connector-curvature="0" /></clipPath><clipPath
       clipPathUnits="userSpaceOnUse"
       id="clipPath920"><path
         d="m 51.12,440.11 522.36,0 0,389.45 -522.36,0 0,-389.45 z"
         clip-rule="evenodd"
         id="path922"
         inkscape:connector-curvature="0" /></clipPath><clipPath
       clipPathUnits="userSpaceOnUse"
       id="clipPath932"><path
         d="m 51.12,440.11 522.36,0 0,389.45 -522.36,0 0,-389.45 z"
         clip-rule="evenodd"
         id="path934"
         inkscape:connector-curvature="0" /></clipPath><clipPath
       clipPathUnits="userSpaceOnUse"
       id="clipPath940"><path
         d="m 51.12,440.11 522.36,0 0,389.45 -522.36,0 0,-389.45 z"
         clip-rule="evenodd"
         id="path942"
         inkscape:connector-curvature="0" /></clipPath><clipPath
       clipPathUnits="userSpaceOnUse"
       id="clipPath952"><path
         d="m 51.12,440.11 522.36,0 0,389.45 -522.36,0 0,-389.45 z"
         clip-rule="evenodd"
         id="path954"
         inkscape:connector-curvature="0" /></clipPath><clipPath
       clipPathUnits="userSpaceOnUse"
       id="clipPath964"><path
         d="m 51.12,440.11 522.36,0 0,389.45 -522.36,0 0,-389.45 z"
         clip-rule="evenodd"
         id="path966"
         inkscape:connector-curvature="0" /></clipPath><clipPath
       clipPathUnits="userSpaceOnUse"
       id="clipPath972"><path
         d="m 51.12,440.11 522.36,0 0,389.45 -522.36,0 0,-389.45 z"
         clip-rule="evenodd"
         id="path974"
         inkscape:connector-curvature="0" /></clipPath><clipPath
       clipPathUnits="userSpaceOnUse"
       id="clipPath986"><path
         d="m 51.12,440.11 522.36,0 0,389.45 -522.36,0 0,-389.45 z"
         clip-rule="evenodd"
         id="path988"
         inkscape:connector-curvature="0" /></clipPath><clipPath
       clipPathUnits="userSpaceOnUse"
       id="clipPath998"><path
         d="m 51.12,440.11 522.36,0 0,389.45 -522.36,0 0,-389.45 z"
         clip-rule="evenodd"
         id="path1000"
         inkscape:connector-curvature="0" /></clipPath><clipPath
       clipPathUnits="userSpaceOnUse"
       id="clipPath1010"><path
         d="m 51.12,440.11 522.36,0 0,389.45 -522.36,0 0,-389.45 z"
         clip-rule="evenodd"
         id="path1012"
         inkscape:connector-curvature="0" /></clipPath><clipPath
       clipPathUnits="userSpaceOnUse"
       id="clipPath1018"><path
         d="m 51.12,440.11 522.36,0 0,389.45 -522.36,0 0,-389.45 z"
         clip-rule="evenodd"
         id="path1020"
         inkscape:connector-curvature="0" /></clipPath><clipPath
       clipPathUnits="userSpaceOnUse"
       id="clipPath1030"><path
         d="m 51.12,440.11 522.36,0 0,389.45 -522.36,0 0,-389.45 z"
         clip-rule="evenodd"
         id="path1032"
         inkscape:connector-curvature="0" /></clipPath><clipPath
       clipPathUnits="userSpaceOnUse"
       id="clipPath1040"><path
         d="m 51.12,440.11 522.36,0 0,389.45 -522.36,0 0,-389.45 z"
         clip-rule="evenodd"
         id="path1042"
         inkscape:connector-curvature="0" /></clipPath><clipPath
       clipPathUnits="userSpaceOnUse"
       id="clipPath1062"><path
         d="m 51.121,382.51 246.41,0 0,56.52 -246.41,0 0,-56.52 z"
         clip-rule="evenodd"
         id="path1064"
         inkscape:connector-curvature="0" /></clipPath><clipPath
       clipPathUnits="userSpaceOnUse"
       id="clipPath1072"><path
         d="m 51.12,382.51 246.41,0 0,56.52 -246.41,0 0,-56.52 z"
         clip-rule="evenodd"
         id="path1074"
         inkscape:connector-curvature="0" /></clipPath><clipPath
       clipPathUnits="userSpaceOnUse"
       id="clipPath1084"><path
         d="m 51.12,382.51 246.41,0 0,56.52 -246.41,0 0,-56.52 z"
         clip-rule="evenodd"
         id="path1086"
         inkscape:connector-curvature="0" /></clipPath><clipPath
       clipPathUnits="userSpaceOnUse"
       id="clipPath1094"><path
         d="m 51.12,382.51 246.41,0 0,56.52 -246.41,0 0,-56.52 z"
         clip-rule="evenodd"
         id="path1096"
         inkscape:connector-curvature="0" /></clipPath><clipPath
       clipPathUnits="userSpaceOnUse"
       id="clipPath1104"><path
         d="m 51.12,382.51 246.41,0 0,56.52 -246.41,0 0,-56.52 z"
         clip-rule="evenodd"
         id="path1106"
         inkscape:connector-curvature="0" /></clipPath><clipPath
       clipPathUnits="userSpaceOnUse"
       id="clipPath1118"><path
         d="m 298.01,382.51 275.48,0 0,56.52 -275.48,0 0,-56.52 z"
         clip-rule="evenodd"
         id="path1120"
         inkscape:connector-curvature="0" /></clipPath><clipPath
       clipPathUnits="userSpaceOnUse"
       id="clipPath1128"><path
         d="m 298.01,382.51 275.47,0 0,56.52 -275.47,0 0,-56.52 z"
         clip-rule="evenodd"
         id="path1130"
         inkscape:connector-curvature="0" /></clipPath><clipPath
       clipPathUnits="userSpaceOnUse"
       id="clipPath1140"><path
         d="m 298.01,382.51 275.47,0 0,56.52 -275.47,0 0,-56.52 z"
         clip-rule="evenodd"
         id="path1142"
         inkscape:connector-curvature="0" /></clipPath><clipPath
       clipPathUnits="userSpaceOnUse"
       id="clipPath1150"><path
         d="m 298.01,382.51 275.47,0 0,56.52 -275.47,0 0,-56.52 z"
         clip-rule="evenodd"
         id="path1152"
         inkscape:connector-curvature="0" /></clipPath><clipPath
       clipPathUnits="userSpaceOnUse"
       id="clipPath1160"><path
         d="m 298.01,382.51 275.47,0 0,56.52 -275.47,0 0,-56.52 z"
         clip-rule="evenodd"
         id="path1162"
         inkscape:connector-curvature="0" /></clipPath><clipPath
       clipPathUnits="userSpaceOnUse"
       id="clipPath1190"><path
         d="m 51.121,303.88 104.67,0 0,77.55 -104.67,0 0,-77.55 z"
         clip-rule="evenodd"
         id="path1192"
         inkscape:connector-curvature="0" /></clipPath><clipPath
       clipPathUnits="userSpaceOnUse"
       id="clipPath1200"><path
         d="m 51.12,303.89 104.66,0 0,77.544 -104.66,0 0,-77.544 z"
         clip-rule="evenodd"
         id="path1202"
         inkscape:connector-curvature="0" /></clipPath><clipPath
       clipPathUnits="userSpaceOnUse"
       id="clipPath1210"><path
         d="m 51.12,303.89 104.66,0 0,77.544 -104.66,0 0,-77.544 z"
         clip-rule="evenodd"
         id="path1212"
         inkscape:connector-curvature="0" /></clipPath><clipPath
       clipPathUnits="userSpaceOnUse"
       id="clipPath1224"><path
         d="m 51.12,303.89 104.66,0 0,77.544 -104.66,0 0,-77.544 z"
         clip-rule="evenodd"
         id="path1226"
         inkscape:connector-curvature="0" /></clipPath><clipPath
       clipPathUnits="userSpaceOnUse"
       id="clipPath1238"><path
         d="m 51.12,303.89 104.66,0 0,77.544 -104.66,0 0,-77.544 z"
         clip-rule="evenodd"
         id="path1240"
         inkscape:connector-curvature="0" /></clipPath><clipPath
       clipPathUnits="userSpaceOnUse"
       id="clipPath1252"><path
         d="m 51.12,303.89 104.66,0 0,77.544 -104.66,0 0,-77.544 z"
         clip-rule="evenodd"
         id="path1254"
         inkscape:connector-curvature="0" /></clipPath><clipPath
       clipPathUnits="userSpaceOnUse"
       id="clipPath1264"><path
         d="m 51.12,303.89 104.66,0 0,77.544 -104.66,0 0,-77.544 z"
         clip-rule="evenodd"
         id="path1266"
         inkscape:connector-curvature="0" /></clipPath><clipPath
       clipPathUnits="userSpaceOnUse"
       id="clipPath1276"><path
         d="m 51.12,303.89 104.66,0 0,77.544 -104.66,0 0,-77.544 z"
         clip-rule="evenodd"
         id="path1278"
         inkscape:connector-curvature="0" /></clipPath><clipPath
       clipPathUnits="userSpaceOnUse"
       id="clipPath1290"><path
         d="m 156.27,303.88 417.21,0 0,77.55 -417.21,0 0,-77.55 z"
         clip-rule="evenodd"
         id="path1292"
         inkscape:connector-curvature="0" /></clipPath><clipPath
       clipPathUnits="userSpaceOnUse"
       id="clipPath1300"><path
         d="m 156.26,303.89 417.22,0 0,77.544 -417.22,0 0,-77.544 z"
         clip-rule="evenodd"
         id="path1302"
         inkscape:connector-curvature="0" /></clipPath><clipPath
       clipPathUnits="userSpaceOnUse"
       id="clipPath1312"><path
         d="m 156.26,303.89 417.22,0 0,77.544 -417.22,0 0,-77.544 z"
         clip-rule="evenodd"
         id="path1314"
         inkscape:connector-curvature="0" /></clipPath><clipPath
       clipPathUnits="userSpaceOnUse"
       id="clipPath1322"><path
         d="m 156.26,303.89 417.22,0 0,77.544 -417.22,0 0,-77.544 z"
         clip-rule="evenodd"
         id="path1324"
         inkscape:connector-curvature="0" /></clipPath><clipPath
       clipPathUnits="userSpaceOnUse"
       id="clipPath1332"><path
         d="m 156.26,303.89 417.22,0 0,77.544 -417.22,0 0,-77.544 z"
         clip-rule="evenodd"
         id="path1334"
         inkscape:connector-curvature="0" /></clipPath><clipPath
       clipPathUnits="userSpaceOnUse"
       id="clipPath1340"><path
         d="m 156.26,303.89 417.22,0 0,77.544 -417.22,0 0,-77.544 z"
         clip-rule="evenodd"
         id="path1342"
         inkscape:connector-curvature="0" /></clipPath><clipPath
       clipPathUnits="userSpaceOnUse"
       id="clipPath1348"><path
         d="m 156.26,303.89 417.22,0 0,77.544 -417.22,0 0,-77.544 z"
         clip-rule="evenodd"
         id="path1350"
         inkscape:connector-curvature="0" /></clipPath><clipPath
       clipPathUnits="userSpaceOnUse"
       id="clipPath1356"><path
         d="m 156.26,303.89 417.22,0 0,77.544 -417.22,0 0,-77.544 z"
         clip-rule="evenodd"
         id="path1358"
         inkscape:connector-curvature="0" /></clipPath><clipPath
       clipPathUnits="userSpaceOnUse"
       id="clipPath1364"><path
         d="m 156.26,303.89 417.22,0 0,77.544 -417.22,0 0,-77.544 z"
         clip-rule="evenodd"
         id="path1366"
         inkscape:connector-curvature="0" /></clipPath><clipPath
       clipPathUnits="userSpaceOnUse"
       id="clipPath1372"><path
         d="m 156.26,303.89 417.22,0 0,77.544 -417.22,0 0,-77.544 z"
         clip-rule="evenodd"
         id="path1374"
         inkscape:connector-curvature="0" /></clipPath></defs><sodipodi:namedview
     pagecolor="#ffffff"
     bordercolor="#666666"
     borderopacity="1"
     objecttolerance="10"
     gridtolerance="10"
     guidetolerance="10"
     inkscape:pageopacity="0"
     inkscape:pageshadow="2"
     inkscape:window-width="1280"
     inkscape:window-height="780"
     id="namedview4"
     showgrid="false"
     fit-margin-top="0"
     fit-margin-left="0"
     fit-margin-right="0"
     fit-margin-bottom="280"
     inkscape:zoom="0.31713644"
     inkscape:cx="-798.46771"
     inkscape:cy="394.21611"
     inkscape:window-x="0"
     inkscape:window-y="20"
     inkscape:window-maximized="1"
     inkscape:current-layer="g10" /><g
     id="g10"
     inkscape:groupmode="layer"
     inkscape:label="soz_iii_b_1____01_14"
     transform="matrix(1.25,0,0,-1.25,-61.95,1038.15)"><path
       d="m 51.12,440.11 2.76,0 0,389.45 -2.76,0 0,-389.45 z"
       style="fill:#ffffff;fill-opacity:1;fill-rule:evenodd;stroke:none"
       id="path50"
       inkscape:connector-curvature="0" /><path
       d="m 570.72,440.11 2.76,0 0,389.45 -2.76,0 0,-389.45 z"
       style="fill:#ffffff;fill-opacity:1;fill-rule:evenodd;stroke:none"
       id="path52"
       inkscape:connector-curvature="0" /><path
       d="m 49.56,829.56 523.92,0 0,0.96 -523.92,0 0,-0.96 z"
       style="fill:#000000;fill-opacity:1;fill-rule:evenodd;stroke:none"
       id="path1044"
       inkscape:connector-curvature="0" /><path
       d="m 573.48,829.56 1.44,0 0,0.96 -1.44,0 0,-0.96 z"
       style="fill:#000000;fill-opacity:1;fill-rule:evenodd;stroke:none"
       id="path1046"
       inkscape:connector-curvature="0" /><path
       d="m 49.56,440.11 1.44,0 0,389.45 -1.44,0 0,-389.45 z"
       style="fill:#000000;fill-opacity:1;fill-rule:evenodd;stroke:none"
       id="path1048"
       inkscape:connector-curvature="0" /><path
       d="m 573.48,440.11 1.44,0 0,389.45 -1.44,0 0,-389.45 z"
       style="fill:#000000;fill-opacity:1;fill-rule:evenodd;stroke:none"
       id="path1050"
       inkscape:connector-curvature="0" /><path
       d="m 51.12,404.59 2.76,0 0,34.44 -2.76,0 0,-34.44 z"
       style="fill:#ffffff;fill-opacity:1;fill-rule:evenodd;stroke:none"
       id="path1052"
       inkscape:connector-curvature="0" /><path
       d="m 294.29,404.59 3.24,0 0,34.44 -3.24,0 0,-34.44 z"
       style="fill:#ffffff;fill-opacity:1;fill-rule:evenodd;stroke:none"
       id="path1054"
       inkscape:connector-curvature="0" /><path
       d="m 298.01,404.59 3.24,0 0,34.44 -3.24,0 0,-34.44 z"
       style="fill:#ffffff;fill-opacity:1;fill-rule:evenodd;stroke:none"
       id="path1108"
       inkscape:connector-curvature="0" /><path
       d="m 570.72,404.59 2.76,0 0,34.44 -2.76,0 0,-34.44 z"
       style="fill:#ffffff;fill-opacity:1;fill-rule:evenodd;stroke:none"
       id="path1110"
       inkscape:connector-curvature="0" /><path
       d="m 49.56,439.15 1.44,0 0,0.96 -1.44,0 0,-0.96 z"
       style="fill:#000000;fill-opacity:1;fill-rule:evenodd;stroke:none"
       id="path1164"
       inkscape:connector-curvature="0" /><path
       d="m 51,439.15 246.53,0 0,0.96 -246.53,0 0,-0.96 z"
       style="fill:#000000;fill-opacity:1;fill-rule:evenodd;stroke:none"
       id="path1166"
       inkscape:connector-curvature="0" /><path
       d="m 297.53,439.15 0.96,0 0,0.96 -0.96,0 0,-0.96 z"
       style="fill:#000000;fill-opacity:1;fill-rule:evenodd;stroke:none"
       id="path1168"
       inkscape:connector-curvature="0" /><path
       d="m 298.49,439.15 274.99,0 0,0.96 -274.99,0 0,-0.96 z"
       style="fill:#000000;fill-opacity:1;fill-rule:evenodd;stroke:none"
       id="path1170"
       inkscape:connector-curvature="0" /><path
       d="m 573.48,439.15 1.44,0 0,0.96 -1.44,0 0,-0.96 z"
       style="fill:#000000;fill-opacity:1;fill-rule:evenodd;stroke:none"
       id="path1172"
       inkscape:connector-curvature="0" /><path
       d="m 49.56,382.51 1.44,0 0,56.64 -1.44,0 0,-56.64 z"
       style="fill:#000000;fill-opacity:1;fill-rule:evenodd;stroke:none"
       id="path1174"
       inkscape:connector-curvature="0" /><path
       d="m 297.53,382.51 0.48,0 0,56.64 -0.48,0 0,-56.64 z"
       style="fill:#000000;fill-opacity:1;fill-rule:evenodd;stroke:none"
       id="path1176"
       inkscape:connector-curvature="0" /><path
       d="m 573.48,382.51 1.44,0 0,56.64 -1.44,0 0,-56.64 z"
       style="fill:#000000;fill-opacity:1;fill-rule:evenodd;stroke:none"
       id="path1178"
       inkscape:connector-curvature="0" /><path
       d="m 51.12,323.93 2.76,0 0,57.504 -2.76,0 0,-57.504 z"
       style="fill:#ffffff;fill-opacity:1;fill-rule:evenodd;stroke:none"
       id="path1180"
       inkscape:connector-curvature="0" /><path
       d="m 152.42,323.93 3.36,0 0,57.504 -3.36,0 0,-57.504 z"
       style="fill:#ffffff;fill-opacity:1;fill-rule:evenodd;stroke:none"
       id="path1182"
       inkscape:connector-curvature="0" /><path
       d="m 156.26,346.97 3.24,0 0,34.464 -3.24,0 0,-34.464 z"
       style="fill:#ffffff;fill-opacity:1;fill-rule:evenodd;stroke:none"
       id="path1280"
       inkscape:connector-curvature="0" /><path
       d="m 570.72,346.97 2.76,0 0,34.464 -2.76,0 0,-34.464 z"
       style="fill:#ffffff;fill-opacity:1;fill-rule:evenodd;stroke:none"
       id="path1282"
       inkscape:connector-curvature="0" /><path
       d="m 49.56,381.55 1.44,0 0,0.96 -1.44,0 0,-0.96 z"
       style="fill:#000000;fill-opacity:1;fill-rule:evenodd;stroke:none"
       id="path1376"
       inkscape:connector-curvature="0" /><path
       d="m 51,381.55 104.66,0 0,0.96 -104.66,0 0,-0.96 z"
       style="fill:#000000;fill-opacity:1;fill-rule:evenodd;stroke:none"
       id="path1378"
       inkscape:connector-curvature="0" /><path
       d="m 155.66,381.55 0.96,0 0,0.96 -0.96,0 0,-0.96 z"
       style="fill:#000000;fill-opacity:1;fill-rule:evenodd;stroke:none"
       id="path1380"
       inkscape:connector-curvature="0" /><path
       d="m 156.62,381.55 140.9,0 0,0.96 -140.9,0 0,-0.96 z"
       style="fill:#000000;fill-opacity:1;fill-rule:evenodd;stroke:none"
       id="path1382"
       inkscape:connector-curvature="0" /><path
       d="m 297.53,381.55 0.96,0 0,0.96 -0.96,0 0,-0.96 z"
       style="fill:#000000;fill-opacity:1;fill-rule:evenodd;stroke:none"
       id="path1384"
       inkscape:connector-curvature="0" /><path
       d="m 298.49,381.55 274.99,0 0,0.96 -274.99,0 0,-0.96 z"
       style="fill:#000000;fill-opacity:1;fill-rule:evenodd;stroke:none"
       id="path1386"
       inkscape:connector-curvature="0" /><path
       d="m 573.48,381.55 1.44,0 0,0.96 -1.44,0 0,-0.96 z"
       style="fill:#000000;fill-opacity:1;fill-rule:evenodd;stroke:none"
       id="path1388"
       inkscape:connector-curvature="0" /><path
       d="m 49.56,303.89 1.44,0 0,77.664 -1.44,0 0,-77.664 z"
       style="fill:#000000;fill-opacity:1;fill-rule:evenodd;stroke:none"
       id="path1390"
       inkscape:connector-curvature="0" /><path
       d="m 49.56,302.93 106.1,0 0,0.96 -106.1,0 0,-0.96 z"
       style="fill:#000000;fill-opacity:1;fill-rule:evenodd;stroke:none"
       id="path1392"
       inkscape:connector-curvature="0" /><path
       d="m 155.66,303.89 0.48,0 0,77.664 -0.48,0 0,-77.664 z"
       style="fill:#000000;fill-opacity:1;fill-rule:evenodd;stroke:none"
       id="path1394"
       inkscape:connector-curvature="0" /><path
       d="m 155.66,302.93 0.96,0 0,0.96 -0.96,0 0,-0.96 z"
       style="fill:#000000;fill-opacity:1;fill-rule:evenodd;stroke:none"
       id="path1396"
       inkscape:connector-curvature="0" /><path
       d="m 156.62,302.93 416.86,0 0,0.96 -416.86,0 0,-0.96 z"
       style="fill:#000000;fill-opacity:1;fill-rule:evenodd;stroke:none"
       id="path1398"
       inkscape:connector-curvature="0" /><path
       d="m 573.48,303.89 1.44,0 0,77.664 -1.44,0 0,-77.664 z"
       style="fill:#000000;fill-opacity:1;fill-rule:evenodd;stroke:none"
       id="path1400"
       inkscape:connector-curvature="0" /><path
       d="m 573.48,302.93 1.44,0 0,0.96 -1.44,0 0,-0.96 z"
       style="fill:#000000;fill-opacity:1;fill-rule:evenodd;stroke:none"
       id="path1402"
       inkscape:connector-curvature="0" /></g></svg>